{
.appVersion = "3133";
.formatVersion = 3;
DisplayStrings = (
"ᑫᑭᑯᓀᓂᓄᓇᖛᖜᖝᖞᕴᕵᕷᕹᖆᖇᖈᖉᖯᖰᖱᖲᖳ

ᑌᑎᕫᕬ
ᗜᗝᗡᑕ
ᐁᐅᐊᐈᐳᐸᐯᐱᗄᗅᗊᗋ
ᘗᘘᘙᘚᘛ
ᗡᑕᗞᑐᗢᗣᗤᗧᗨᗩᗪᗭ
ᑫᑲᕴᕵᕷᕹᖆᖇᖈᖉᖯ ᕼ/me-canadian.square/mi-canadian.square/mo-canadian.square/ma-canadian.square ᒣᒥᒧᒪᖴᖵᖶᖷ
ᓭᓯᓱᓴᔦᔨᔪᔭ
ᕼᖽᖾᖼᖿ
ᑌᑎᕄᕆᕂᕃ
ᗡᑕᕈᕊᕋᕍᖸᖹᖺᖻ

ᒉᒋᒍᒐᓓᓕᓗᓚᖊᖋᖌᖍᖗᖘᖙᖚᖠᖢᖤ
ᒿᔐᔑᔓᔕ

ᕓᕕᕗᕙ
ᕞᕟᕠᕡᕤᕦᗀᕯ
ᕭᕮᕰᕱᕲᕳ

ᕒᖧᖨᔦᔨᖪᖬᓬᔌ
ᗆᗉᗌᗍ

ᐅᐊᐯᐳᗁᗂᗃᗆᗌᗍᗎᗏᗉᗐᗑᗒᗓᗔᗕᗖᗗᗘᗙᗚᗛ/ye-canadian.square/yi-canadian.square/yo-canadian.square/ya-canadian.square/theThCree-canadian.square/thiThCree-canadian.square/thoThCree-canadian.square/thaThCree-canadian.square",
"ᓭᓯᓱᓴ/ye-canadian.square/yi-canadian.square/yo-canadian.square/ya-canadian.square/theThCree-canadian.square/thiThCree-canadian.square/thoThCree-canadian.square/thaThCree-canadian.square ᐀᙭᙮/uni11AB0/uni11AB1/uni11AB2/uni11AB3/uni11AB4/uni11AB5/uni11AB6/uni11AB7/uni11AB8/uni11AB9/uni11ABA/uni11ABB/uni11ABC/uni11ABD/uni11ABE/uni11ABF 
.,-‚„“”‘’◌̇˙ˇ˘˚/ring_top/.notdef ˛


glyphs = (
{
glyphname = idotless;
lastChange = "2022-09-28 16:00:22 +0000";
layers = (
{
background = {
shapes = (
{
closed = 1;
nodes = (
(121,528,l),
(95,528,l),
(95,0,l),
(121,0,l)
);
}
);
};
layerId = m01;
shapes = (
{
closed = 1;
nodes = (
(121,528,l),
(95,528,l),
(95,0,l),
(121,0,l)
);
}
);
width = 216;
},
{
background = {
shapes = (
{
closed = 1;
nodes = (
(258,553,l),
(67,553,l),
(67,0,l),
(258,0,l)
);
}
);
};
layerId = "A1461942-0433-4891-A171-8512F51D8C86";
shapes = (
{
closed = 1;
nodes = (
(258,553,l),
(67,553,l),
(67,0,l),
(258,0,l)
);
}
);
width = 325;
},
{
background = {
shapes = (
{
closed = 1;
nodes = (
(90,528,l),
(65,528,l),
(65,0,l),
(90,0,l)
);
}
);
};
layerId = "341CD669-D84F-4333-8BC8-F9777E6D3814";
shapes = (
{
closed = 1;
nodes = (
(90,528,l),
(65,528,l),
(65,0,l),
(90,0,l)
);
}
);
width = 155;
},
{
background = {
shapes = (
{
closed = 1;
nodes = (
(222,552,l),
(41,552,l),
(41,0,l),
(222,0,l)
);
}
);
};
layerId = "4DD67900-F9B0-4F36-BC45-F4B21129580C";
shapes = (
{
closed = 1;
nodes = (
(222,552,l),
(41,552,l),
(41,0,l),
(222,0,l)
);
}
);
width = 263;
}
);
note = dotlessi;
unicode = 305;
},
{
color = 2;
glyphname = "acuteFinal-canadian";
lastChange = "2022-10-04 14:25:57 +0000";
layers = (
{
background = {
shapes = (
{
closed = 1;
nodes = (
(91,357,l),
(262,714,l),
(236,714,l),
(65,357,l)
);
}
);
};
layerId = m01;
shapes = (
{
closed = 1;
nodes = (
(91,357,l),
(262,714,l),
(236,714,l),
(65,357,l)
);
}
);
width = 327;
},
{
background = {
shapes = (
{
closed = 1;
nodes = (
(179,357,l),
(373,714,l),
(224,714,l),
(30,357,l)
);
}
);
};
layerId = "A1461942-0433-4891-A171-8512F51D8C86";
shapes = (
{
closed = 1;
nodes = (
(179,357,l),
(373,714,l),
(224,714,l),
(30,357,l)
);
}
);
width = 403;
},
{
background = {
shapes = (
{
closed = 1;
nodes = (
(63,357,l),
(184,714,l),
(161,714,l),
(40,357,l)
);
}
);
};
layerId = "341CD669-D84F-4333-8BC8-F9777E6D3814";
shapes = (
{
closed = 1;
nodes = (
(63,357,l),
(184,714,l),
(161,714,l),
(40,357,l)
);
}
);
width = 224;
},
{
background = {
shapes = (
{
closed = 1;
nodes = (
(140,357,l),
(286,714,l),
(151,714,l),
(5,357,l)
);
}
);
};
layerId = "4DD67900-F9B0-4F36-BC45-F4B21129580C";
shapes = (
{
closed = 1;
nodes = (
(140,357,l),
(286,714,l),
(151,714,l),
(5,357,l)
);
}
);
width = 291;
}
);
metricRight = "=|";
note = uni141F;
unicode = 5151;
},
{
color = 2;
glyphname = "graveFinal-canadian";
kernLeft = mwestleft;
kernRight = mwestright;
lastChange = "2022-10-04 14:25:59 +0000";
layers = (
{
background = {
shapes = (
{
closed = 1;
nodes = (
(261,357,l),
(90,714,l),
(65,714,l),
(236,357,l)
);
}
);
};
layerId = m01;
shapes = (
{
closed = 1;
nodes = (
(261,357,l),
(90,714,l),
(65,714,l),
(236,357,l)
);
}
);
width = 326;
},
{
background = {
shapes = (
{
closed = 1;
nodes = (
(373,357,l),
(179,714,l),
(30,714,l),
(224,357,l)
);
}
);
};
layerId = "A1461942-0433-4891-A171-8512F51D8C86";
shapes = (
{
closed = 1;
nodes = (
(373,357,l),
(179,714,l),
(30,714,l),
(224,357,l)
);
}
);
width = 403;
},
{
background = {
shapes = (
{
closed = 1;
nodes = (
(184,357,l),
(62,714,l),
(40,714,l),
(162,357,l)
);
}
);
};
layerId = "341CD669-D84F-4333-8BC8-F9777E6D3814";
shapes = (
{
closed = 1;
nodes = (
(184,357,l),
(62,714,l),
(40,714,l),
(162,357,l)
);
}
);
width = 224;
},
{
background = {
shapes = (
{
closed = 1;
nodes = (
(286,357,l),
(140,714,l),
(5,714,l),
(151,357,l)
);
}
);
};
layerId = "4DD67900-F9B0-4F36-BC45-F4B21129580C";
shapes = (
{
closed = 1;
nodes = (
(286,357,l),
(140,714,l),
(5,714,l),
(151,357,l)
);
}
);
width = 291;
}
);
metricLeft = "=|acuteFinal-canadian";
metricRight = "=|acuteFinal-canadian";
note = uni1420;
unicode = 5152;
},
{
color = 2;
glyphname = "ringBottomhalfFinal-canadian";
kernLeft = mwestleft;
kernRight = mwestright;
lastChange = "2022-10-04 13:07:13 +0000";
layers = (
{
background = {
shapes = (
{
closed = 1;
nodes = (
(327,351,o),
(385,412,o),
(385,519,cs),
(385,714,l),
(361,714,l),
(361,518,ls),
(361,419,o),
(314,373,o),
(235,373,cs),
(157,373,o),
(109,421,o),
(109,517,cs),
(109,714,l),
(85,714,l),
(85,516,ls),
(85,412,o),
(145,351,o),
(235,351,cs)
);
}
);
};
layerId = m01;
shapes = (
{
closed = 1;
nodes = (
(327,351,o),
(385,412,o),
(385,519,cs),
(385,714,l),
(361,714,l),
(361,518,ls),
(361,419,o),
(314,373,o),
(235,373,cs),
(157,373,o),
(109,421,o),
(109,517,cs),
(109,714,l),
(85,714,l),
(85,516,ls),
(85,412,o),
(145,351,o),
(235,351,cs)
);
}
);
width = 470;
},
{
background = {
shapes = (
{
closed = 1;
nodes = (
(362,351,o),
(433,417,o),
(433,541,cs),
(433,714,l),
(300,714,l),
(300,546,ls),
(300,497,o),
(281,474,o),
(247,474,cs),
(212,474,o),
(193,496,o),
(193,546,cs),
(193,714,l),
(60,714,l),
(60,541,ls),
(60,419,o),
(130,351,o),
(246,351,cs)
);
}
);
};
layerId = "A1461942-0433-4891-A171-8512F51D8C86";
shapes = (
{
closed = 1;
nodes = (
(362,351,o),
(433,417,o),
(433,541,cs),
(433,714,l),
(300,714,l),
(300,546,ls),
(300,497,o),
(281,474,o),
(247,474,cs),
(212,474,o),
(193,496,o),
(193,546,cs),
(193,714,l),
(60,714,l),
(60,541,ls),
(60,419,o),
(130,351,o),
(246,351,cs)
);
}
);
width = 493;
},
{
background = {
shapes = (
{
closed = 1;
nodes = (
(234,351,o),
(272,398,o),
(272,489,cs),
(272,714,l),
(250,714,l),
(250,488,ls),
(250,407,o),
(223,373,o),
(166,373,cs),
(109,373,o),
(82,408,o),
(82,487,cs),
(82,714,l),
(60,714,l),
(60,486,ls),
(60,399,o),
(98,351,o),
(166,351,cs)
);
}
);
};
layerId = "341CD669-D84F-4333-8BC8-F9777E6D3814";
shapes = (
{
closed = 1;
nodes = (
(234,351,o),
(272,398,o),
(272,489,cs),
(272,714,l),
(250,714,l),
(250,488,ls),
(250,407,o),
(223,373,o),
(166,373,cs),
(109,373,o),
(82,408,o),
(82,487,cs),
(82,714,l),
(60,714,l),
(60,486,ls),
(60,399,o),
(98,351,o),
(166,351,cs)
);
}
);
width = 332;
},
{
background = {
shapes = (
{
closed = 1;
nodes = (
(267,351,o),
(323,402,o),
(323,500,cs),
(323,714,l),
(205,714,l),
(205,492,ls),
(205,469,o),
(197,455,o),
(179,455,cs),
(161,455,o),
(153,469,o),
(153,492,cs),
(153,714,l),
(35,714,l),
(35,500,ls),
(35,402,o),
(93,351,o),
(179,351,cs)
);
}
);
};
layerId = "4DD67900-F9B0-4F36-BC45-F4B21129580C";
shapes = (
{
closed = 1;
nodes = (
(267,351,o),
(323,402,o),
(323,500,cs),
(323,714,l),
(205,714,l),
(205,492,ls),
(205,469,o),
(197,455,o),
(179,455,cs),
(161,455,o),
(153,469,o),
(153,492,cs),
(153,714,l),
(35,714,l),
(35,500,ls),
(35,402,o),
(93,351,o),
(179,351,cs)
);
}
);
width = 358;
}
);
metricLeft = "ai-canadian";
metricRight = "==|ai-canadian";
note = uni1421;
unicode = 5153;
},
{
color = 2;
glyphname = "ringTophalfFinal-canadian";
lastChange = "2022-09-28 16:00:22 +0000";
layers = (
{
background = {
shapes = (
{
closed = 1;
nodes = (
(109,357,l),
(109,554,ls),
(109,650,o),
(157,698,o),
(235,698,cs),
(314,698,o),
(361,652,o),
(361,553,cs),
(361,357,l),
(385,357,l),
(385,552,ls),
(385,659,o),
(327,720,o),
(235,720,cs),
(145,720,o),
(85,659,o),
(85,555,cs),
(85,357,l)
);
}
);
};
layerId = m01;
shapes = (
{
closed = 1;
nodes = (
(109,357,l),
(109,554,ls),
(109,650,o),
(157,698,o),
(235,698,cs),
(314,698,o),
(361,652,o),
(361,553,cs),
(361,357,l),
(385,357,l),
(385,552,ls),
(385,659,o),
(327,720,o),
(235,720,cs),
(145,720,o),
(85,659,o),
(85,555,cs),
(85,357,l)
);
}
);
width = 470;
},
{
background = {
shapes = (
{
closed = 1;
nodes = (
(193,357,l),
(193,525,ls),
(193,575,o),
(212,597,o),
(247,597,cs),
(281,597,o),
(300,574,o),
(300,525,cs),
(300,357,l),
(433,357,l),
(433,530,ls),
(433,654,o),
(362,720,o),
(246,720,cs),
(130,720,o),
(60,652,o),
(60,530,cs),
(60,357,l)
);
}
);
};
layerId = "A1461942-0433-4891-A171-8512F51D8C86";
shapes = (
{
closed = 1;
nodes = (
(193,357,l),
(193,525,ls),
(193,575,o),
(212,597,o),
(247,597,cs),
(281,597,o),
(300,574,o),
(300,525,cs),
(300,357,l),
(433,357,l),
(433,530,ls),
(433,654,o),
(362,720,o),
(246,720,cs),
(130,720,o),
(60,652,o),
(60,530,cs),
(60,357,l)
);
}
);
width = 493;
},
{
background = {
shapes = (
{
closed = 1;
nodes = (
(82,357,l),
(82,584,ls),
(82,663,o),
(109,698,o),
(166,698,cs),
(223,698,o),
(250,664,o),
(250,583,cs),
(250,357,l),
(272,357,l),
(272,582,ls),
(272,673,o),
(234,720,o),
(166,720,cs),
(98,720,o),
(60,672,o),
(60,585,cs),
(60,357,l)
);
}
);
};
layerId = "341CD669-D84F-4333-8BC8-F9777E6D3814";
shapes = (
{
closed = 1;
nodes = (
(82,357,l),
(82,584,ls),
(82,663,o),
(109,698,o),
(166,698,cs),
(223,698,o),
(250,664,o),
(250,583,cs),
(250,357,l),
(272,357,l),
(272,582,ls),
(272,673,o),
(234,720,o),
(166,720,cs),
(98,720,o),
(60,672,o),
(60,585,cs),
(60,357,l)
);
}
);
width = 332;
},
{
background = {
shapes = (
{
closed = 1;
nodes = (
(153,357,l),
(153,580,ls),
(153,602,o),
(161,616,o),
(179,616,cs),
(197,616,o),
(205,602,o),
(205,580,cs),
(205,357,l),
(323,357,l),
(323,571,ls),
(323,669,o),
(267,720,o),
(179,720,cs),
(93,720,o),
(35,669,o),
(35,571,cs),
(35,357,l)
);
}
);
};
layerId = "4DD67900-F9B0-4F36-BC45-F4B21129580C";
shapes = (
{
closed = 1;
nodes = (
(153,357,l),
(153,580,ls),
(153,602,o),
(161,616,o),
(179,616,cs),
(197,616,o),
(205,602,o),
(205,580,cs),
(205,357,l),
(323,357,l),
(323,571,ls),
(323,669,o),
(267,720,o),
(179,720,cs),
(93,720,o),
(35,669,o),
(35,571,cs),
(35,357,l)
);
}
);
width = 358;
}
);
metricLeft = "ai-canadian";
metricRight = "==|ai-canadian";
note = uni1422;
unicode = 5154;
},
{
color = 2;
glyphname = "ringRighthalfFinal-canadian";
kernLeft = mwestleft;
kernRight = mwestright;
lastChange = "2022-10-04 14:26:16 +0000";
layers = (
{
background = {
shapes = (
{
closed = 1;
nodes = (
(164,357,ls),
(271,357,o),
(335,427,o),
(335,536,cs),
(335,645,o),
(271,714,o),
(161,714,cs),
(80,714,l),
(80,692,l),
(161,692,ls),
(260,692,o),
(312,635,o),
(312,536,cs),
(312,437,o),
(260,379,o),
(161,379,cs),
(80,379,l),
(80,357,l)
);
}
);
};
layerId = m01;
shapes = (
{
closed = 1;
nodes = (
(164,357,ls),
(271,357,o),
(335,427,o),
(335,536,cs),
(335,645,o),
(271,714,o),
(161,714,cs),
(80,714,l),
(80,692,l),
(161,692,ls),
(260,692,o),
(312,635,o),
(312,536,cs),
(312,437,o),
(260,379,o),
(161,379,cs),
(80,379,l),
(80,357,l)
);
}
);
width = 420;
},
{
background = {
shapes = (
{
closed = 1;
nodes = (
(172,357,ls),
(301,357,o),
(370,423,o),
(370,535,cs),
(370,646,o),
(301,714,o),
(172,714,cs),
(60,714,l),
(60,592,l),
(165,592,ls),
(211,592,o),
(235,572,o),
(235,535,cs),
(235,497,o),
(211,479,o),
(165,479,cs),
(60,479,l),
(60,357,l)
);
}
);
};
layerId = "A1461942-0433-4891-A171-8512F51D8C86";
shapes = (
{
closed = 1;
nodes = (
(172,357,ls),
(301,357,o),
(370,423,o),
(370,535,cs),
(370,646,o),
(301,714,o),
(172,714,cs),
(60,714,l),
(60,592,l),
(165,592,ls),
(211,592,o),
(235,572,o),
(235,535,cs),
(235,497,o),
(211,479,o),
(165,479,cs),
(60,479,l),
(60,357,l)
);
}
);
width = 420;
},
{
background = {
shapes = (
{
closed = 1;
nodes = (
(77,357,ls),
(183,357,o),
(235,421,o),
(235,535,cs),
(235,649,o),
(183,714,o),
(79,714,cs),
(55,714,l),
(55,692,l),
(76,692,ls),
(170,692,o),
(212,637,o),
(212,535,cs),
(212,431,o),
(170,379,o),
(76,379,cs),
(55,379,l),
(55,357,l)
);
}
);
};
layerId = "341CD669-D84F-4333-8BC8-F9777E6D3814";
shapes = (
{
closed = 1;
nodes = (
(77,357,ls),
(183,357,o),
(235,421,o),
(235,535,cs),
(235,649,o),
(183,714,o),
(79,714,cs),
(55,714,l),
(55,692,l),
(76,692,ls),
(170,692,o),
(212,637,o),
(212,535,cs),
(212,431,o),
(170,379,o),
(76,379,cs),
(55,379,l),
(55,357,l)
);
}
);
width = 295;
},
{
background = {
shapes = (
{
closed = 1;
nodes = (
(89,357,ls),
(198,357,o),
(263,428,o),
(263,535,cs),
(263,642,o),
(198,714,o),
(89,714,cs),
(35,714,l),
(35,602,l),
(77,602,ls),
(120,602,o),
(145,577,o),
(145,535,cs),
(145,493,o),
(120,469,o),
(77,469,cs),
(35,469,l),
(35,357,l)
);
}
);
};
layerId = "4DD67900-F9B0-4F36-BC45-F4B21129580C";
shapes = (
{
closed = 1;
nodes = (
(89,357,ls),
(198,357,o),
(263,428,o),
(263,535,cs),
(263,642,o),
(198,714,o),
(89,714,cs),
(35,714,l),
(35,602,l),
(77,602,ls),
(120,602,o),
(145,577,o),
(145,535,cs),
(145,493,o),
(120,469,o),
(77,469,cs),
(35,469,l),
(35,357,l)
);
}
);
width = 293;
}
);
metricLeft = "=|t-canadian";
metricWidth = "t-canadian";
note = uni1423;
unicode = 5155;
},
{
color = 2;
glyphname = "ringFinal-canadian";
kernLeft = mwestleft;
kernRight = mwestright;
lastChange = "2022-10-04 14:26:17 +0000";
layers = (
{
background = {
shapes = (
{
closed = 1;
nodes = (
(377,351,o),
(459,430,o),
(459,536,cs),
(459,642,o),
(375,720,o),
(271,720,cs),
(167,720,o),
(85,642,o),
(85,536,cs),
(85,430,o),
(165,351,o),
(271,351,cs)
);
},
{
closed = 1;
nodes = (
(176,373,o),
(108,442,o),
(108,536,cs),
(108,630,o),
(178,698,o),
(271,698,cs),
(364,698,o),
(436,630,o),
(436,536,cs),
(436,442,o),
(366,373,o),
(271,373,cs)
);
}
);
};
layerId = m01;
shapes = (
{
closed = 1;
nodes = (
(377,351,o),
(459,430,o),
(459,536,cs),
(459,642,o),
(375,720,o),
(271,720,cs),
(167,720,o),
(85,642,o),
(85,536,cs),
(85,430,o),
(165,351,o),
(271,351,cs)
);
},
{
closed = 1;
nodes = (
(176,373,o),
(108,442,o),
(108,536,cs),
(108,630,o),
(178,698,o),
(271,698,cs),
(364,698,o),
(436,630,o),
(436,536,cs),
(436,442,o),
(366,373,o),
(271,373,cs)
);
}
);
width = 544;
},
{
background = {
shapes = (
{
closed = 1;
nodes = (
(351,351,o),
(430,430,o),
(430,536,cs),
(430,642,o),
(349,720,o),
(240,720,cs),
(131,720,o),
(50,642,o),
(50,536,cs),
(50,430,o),
(129,351,o),
(240,351,cs)
);
},
{
closed = 1;
nodes = (
(199,464,o),
(175,497,o),
(175,536,cs),
(175,575,o),
(200,607,o),
(240,607,cs),
(279,607,o),
(305,575,o),
(305,536,cs),
(305,497,o),
(280,464,o),
(240,464,cs)
);
}
);
};
layerId = "A1461942-0433-4891-A171-8512F51D8C86";
shapes = (
{
closed = 1;
nodes = (
(351,351,o),
(430,430,o),
(430,536,cs),
(430,642,o),
(349,720,o),
(240,720,cs),
(131,720,o),
(50,642,o),
(50,536,cs),
(50,430,o),
(129,351,o),
(240,351,cs)
);
},
{
closed = 1;
nodes = (
(199,464,o),
(175,497,o),
(175,536,cs),
(175,575,o),
(200,607,o),
(240,607,cs),
(279,607,o),
(305,575,o),
(305,536,cs),
(305,497,o),
(280,464,o),
(240,464,cs)
);
}
);
width = 480;
},
{
background = {
shapes = (
{
closed = 1;
nodes = (
(302,408,o),
(372,475,o),
(372,564,cs),
(372,653,o),
(302,720,o),
(215,720,cs),
(128,720,o),
(60,653,o),
(60,564,cs),
(60,475,o),
(128,408,o),
(215,408,cs)
);
},
{
closed = 1;
nodes = (
(136,429,o),
(82,483,o),
(82,564,cs),
(82,645,o),
(136,699,o),
(215,699,cs),
(293,699,o),
(350,645,o),
(350,564,cs),
(350,483,o),
(293,429,o),
(215,429,cs)
);
}
);
};
layerId = "341CD669-D84F-4333-8BC8-F9777E6D3814";
shapes = (
{
closed = 1;
nodes = (
(302,408,o),
(372,475,o),
(372,564,cs),
(372,653,o),
(302,720,o),
(215,720,cs),
(128,720,o),
(60,653,o),
(60,564,cs),
(60,475,o),
(128,408,o),
(215,408,cs)
);
},
{
closed = 1;
nodes = (
(136,429,o),
(82,483,o),
(82,564,cs),
(82,645,o),
(136,699,o),
(215,699,cs),
(293,699,o),
(350,645,o),
(350,564,cs),
(350,483,o),
(293,429,o),
(215,429,cs)
);
}
);
width = 432;
},
{
background = {
shapes = (
{
closed = 1;
nodes = (
(288,404,o),
(354,472,o),
(354,563,cs),
(354,652,o),
(287,720,o),
(193,720,cs),
(98,720,o),
(30,653,o),
(30,563,cs),
(30,472,o),
(97,404,o),
(193,404,cs)
);
},
{
closed = 1;
nodes = (
(156,504,o),
(138,529,o),
(138,563,cs),
(138,595,o),
(156,620,o),
(193,620,cs),
(226,620,o),
(246,593,o),
(246,563,cs),
(246,529,o),
(226,504,o),
(193,504,cs)
);
}
);
};
layerId = "4DD67900-F9B0-4F36-BC45-F4B21129580C";
shapes = (
{
closed = 1;
nodes = (
(288,404,o),
(354,472,o),
(354,563,cs),
(354,652,o),
(287,720,o),
(193,720,cs),
(98,720,o),
(30,653,o),
(30,563,cs),
(30,472,o),
(97,404,o),
(193,404,cs)
);
},
{
closed = 1;
nodes = (
(156,504,o),
(138,529,o),
(138,563,cs),
(138,595,o),
(156,620,o),
(193,620,cs),
(226,620,o),
(246,593,o),
(246,563,cs),
(246,529,o),
(226,504,o),
(193,504,cs)
);
}
);
width = 384;
}
);
metricLeft = "t-canadian";
metricRight = "=|t-canadian";
note = uni1424;
unicode = 5156;
},
{
color = 2;
glyphname = "doubleacuteFinal-canadian";
lastChange = "2022-10-04 14:26:19 +0000";
layers = (
{
background = {
shapes = (
{
closed = 1;
nodes = (
(262,714,l),
(236,714,l),
(65,357,l),
(91,357,l)
);
},
{
closed = 1;
nodes = (
(392,714,l),
(366,714,l),
(195,357,l),
(221,357,l)
);
}
);
};
layerId = m01;
shapes = (
{
closed = 1;
nodes = (
(262,714,l),
(236,714,l),
(65,357,l),
(91,357,l)
);
},
{
closed = 1;
nodes = (
(392,714,l),
(366,714,l),
(195,357,l),
(221,357,l)
);
}
);
width = 457;
},
{
background = {
shapes = (
{
closed = 1;
nodes = (
(373,714,l),
(224,714,l),
(30,357,l),
(179,357,l)
);
},
{
closed = 1;
nodes = (
(587,714,l),
(438,714,l),
(244,357,l),
(393,357,l)
);
}
);
};
layerId = "A1461942-0433-4891-A171-8512F51D8C86";
shapes = (
{
closed = 1;
nodes = (
(373,714,l),
(224,714,l),
(30,357,l),
(179,357,l)
);
},
{
closed = 1;
nodes = (
(587,714,l),
(438,714,l),
(244,357,l),
(393,357,l)
);
}
);
width = 617;
},
{
background = {
shapes = (
{
closed = 1;
nodes = (
(184,714,l),
(161,714,l),
(40,357,l),
(63,357,l)
);
},
{
closed = 1;
nodes = (
(278,714,l),
(254,714,l),
(134,357,l),
(157,357,l)
);
}
);
};
layerId = "341CD669-D84F-4333-8BC8-F9777E6D3814";
shapes = (
{
closed = 1;
nodes = (
(184,714,l),
(161,714,l),
(40,357,l),
(63,357,l)
);
},
{
closed = 1;
nodes = (
(278,714,l),
(254,714,l),
(134,357,l),
(157,357,l)
);
}
);
width = 318;
},
{
background = {
shapes = (
{
closed = 1;
nodes = (
(286,714,l),
(151,714,l),
(5,357,l),
(140,357,l)
);
},
{
closed = 1;
nodes = (
(457,714,l),
(322,714,l),
(177,357,l),
(312,357,l)
);
}
);
};
layerId = "4DD67900-F9B0-4F36-BC45-F4B21129580C";
shapes = (
{
closed = 1;
nodes = (
(286,714,l),
(151,714,l),
(5,357,l),
(140,357,l)
);
},
{
closed = 1;
nodes = (
(457,714,l),
(322,714,l),
(177,357,l),
(312,357,l)
);
}
);
width = 462;
}
);
metricLeft = "acuteFinal-canadian";
metricRight = "=|";
note = uni1425;
unicode = 5157;
},
{
color = 2;
glyphname = "doubleshortverticalstrokesFinal-canadian";
kernLeft = mwestleft;
kernRight = mwestright;
lastChange = "2022-10-03 15:30:27 +0000";
layers = (
{
background = {
shapes = (
{
closed = 1;
nodes = (
(109,714,l),
(85,714,l),
(85,357,l),
(109,357,l)
);
},
{
closed = 1;
nodes = (
(228,714,l),
(204,714,l),
(204,357,l),
(228,357,l)
);
}
);
};
layerId = m01;
shapes = (
{
closed = 1;
nodes = (
(109,714,l),
(85,714,l),
(85,357,l),
(109,357,l)
);
},
{
closed = 1;
nodes = (
(228,714,l),
(204,714,l),
(204,357,l),
(228,357,l)
);
}
);
width = 313;
},
{
background = {
shapes = (
{
closed = 1;
nodes = (
(193,714,l),
(60,714,l),
(60,357,l),
(193,357,l)
);
},
{
closed = 1;
nodes = (
(381,714,l),
(248,714,l),
(248,357,l),
(381,357,l)
);
}
);
};
layerId = "A1461942-0433-4891-A171-8512F51D8C86";
shapes = (
{
closed = 1;
nodes = (
(193,714,l),
(60,714,l),
(60,357,l),
(193,357,l)
);
},
{
closed = 1;
nodes = (
(381,714,l),
(248,714,l),
(248,357,l),
(381,357,l)
);
}
);
width = 441;
},
{
background = {
shapes = (
{
closed = 1;
nodes = (
(82,714,l),
(60,714,l),
(60,357,l),
(82,357,l)
);
},
{
closed = 1;
nodes = (
(167,714,l),
(145,714,l),
(145,357,l),
(167,357,l)
);
}
);
};
layerId = "341CD669-D84F-4333-8BC8-F9777E6D3814";
shapes = (
{
closed = 1;
nodes = (
(82,714,l),
(60,714,l),
(60,357,l),
(82,357,l)
);
},
{
closed = 1;
nodes = (
(167,714,l),
(145,714,l),
(145,357,l),
(167,357,l)
);
}
);
width = 227;
},
{
background = {
shapes = (
{
closed = 1;
nodes = (
(153,714,l),
(35,714,l),
(35,357,l),
(153,357,l)
);
},
{
closed = 1;
nodes = (
(302,714,l),
(184,714,l),
(184,357,l),
(302,357,l)
);
}
);
};
layerId = "4DD67900-F9B0-4F36-BC45-F4B21129580C";
shapes = (
{
closed = 1;
nodes = (
(153,714,l),
(35,714,l),
(35,357,l),
(153,357,l)
);
},
{
closed = 1;
nodes = (
(302,714,l),
(184,714,l),
(184,357,l),
(302,357,l)
);
}
);
width = 337;
}
);
metricLeft = "pWestCree-canadian";
metricRight = "pWestCree-canadian";
note = uni1426;
unicode = 5158;
},
{
color = 2;
glyphname = "middledotFinal-canadian";
lastChange = "2022-10-04 14:10:35 +0000";
layers = (
{
background = {
shapes = (
{
closed = 1;
nodes = (
(137,334,o),
(151,348,o),
(151,367,cs),
(151,386,o),
(137,400,o),
(118,400,cs),
(99,400,o),
(85,386,o),
(85,367,cs),
(85,348,o),
(99,334,o),
(118,334,cs)
);
}
);
};
layerId = m01;
shapes = (
{
closed = 1;
nodes = (
(137,334,o),
(151,348,o),
(151,367,cs),
(151,386,o),
(137,400,o),
(118,400,cs),
(99,400,o),
(85,386,o),
(85,367,cs),
(85,348,o),
(99,334,o),
(118,334,cs)
);
}
);
width = 236;
},
{
background = {
shapes = (
{
closed = 1;
nodes = (
(185,277,o),
(225,317,o),
(225,367,cs),
(225,417,o),
(185,457,o),
(135,457,cs),
(85,457,o),
(45,417,o),
(45,367,cs),
(45,317,o),
(85,277,o),
(135,277,cs)
);
}
);
};
layerId = "A1461942-0433-4891-A171-8512F51D8C86";
shapes = (
{
closed = 1;
nodes = (
(185,277,o),
(225,317,o),
(225,367,cs),
(225,417,o),
(185,457,o),
(135,457,cs),
(85,457,o),
(45,417,o),
(45,367,cs),
(45,317,o),
(85,277,o),
(135,277,cs)
);
}
);
width = 270;
},
{
background = {
shapes = (
{
closed = 1;
nodes = (
(102,337,o),
(115,350,o),
(115,367,cs),
(115,384,o),
(102,397,o),
(85,397,cs),
(68,397,o),
(55,384,o),
(55,367,cs),
(55,350,o),
(68,337,o),
(85,337,cs)
);
}
);
};
layerId = "341CD669-D84F-4333-8BC8-F9777E6D3814";
shapes = (
{
closed = 1;
nodes = (
(102,337,o),
(115,350,o),
(115,367,cs),
(115,384,o),
(102,397,o),
(85,397,cs),
(68,397,o),
(55,384,o),
(55,367,cs),
(55,350,o),
(68,337,o),
(85,337,cs)
);
}
);
width = 170;
},
{
background = {
shapes = (
{
closed = 1;
nodes = (
(149,287,o),
(185,323,o),
(185,367,cs),
(185,411,o),
(149,447,o),
(105,447,cs),
(61,447,o),
(25,411,o),
(25,367,cs),
(25,323,o),
(61,287,o),
(105,287,cs)
);
}
);
};
layerId = "4DD67900-F9B0-4F36-BC45-F4B21129580C";
shapes = (
{
closed = 1;
nodes = (
(149,287,o),
(185,323,o),
(185,367,cs),
(185,411,o),
(149,447,o),
(105,447,cs),
(61,447,o),
(25,411,o),
(25,367,cs),
(25,323,o),
(61,287,o),
(105,287,cs)
);
}
);
width = 210;
}
);
metricRight = "=|";
note = uni1427;
unicode = 5159;
},
{
color = 2;
glyphname = "shorthorizontalstrokeFinal-canadian";
kernLeft = mwestleft;
kernRight = mwestright;
lastChange = "2022-10-04 14:10:53 +0000";
layers = (
{
background = {
shapes = (
{
closed = 1;
nodes = (
(436,526,l),
(436,548,l),
(80,548,l),
(80,526,l)
);
}
);
};
layerId = m01;
shapes = (
{
closed = 1;
nodes = (
(436,526,l),
(436,548,l),
(80,548,l),
(80,526,l)
);
}
);
width = 516;
},
{
background = {
shapes = (
{
closed = 1;
nodes = (
(428,469,l),
(428,605,l),
(60,605,l),
(60,469,l)
);
}
);
};
layerId = "A1461942-0433-4891-A171-8512F51D8C86";
shapes = (
{
closed = 1;
nodes = (
(428,469,l),
(428,605,l),
(60,605,l),
(60,469,l)
);
}
);
width = 488;
},
{
background = {
shapes = (
{
closed = 1;
nodes = (
(310,526,l),
(310,548,l),
(60,548,l),
(60,526,l)
);
}
);
};
layerId = "341CD669-D84F-4333-8BC8-F9777E6D3814";
shapes = (
{
closed = 1;
nodes = (
(310,526,l),
(310,548,l),
(60,548,l),
(60,526,l)
);
}
);
width = 370;
},
{
background = {
shapes = (
{
closed = 1;
nodes = (
(315,507,l),
(315,627,l),
(35,627,l),
(35,507,l)
);
}
);
};
layerId = "4DD67900-F9B0-4F36-BC45-F4B21129580C";
shapes = (
{
closed = 1;
nodes = (
(315,507,l),
(315,627,l),
(35,627,l),
(35,507,l)
);
}
);
width = 350;
}
);
metricRight = "=|";
note = uni1428;
unicode = 5160;
},
{
color = 2;
glyphname = "plusFinal-canadian";
kernLeft = mwestleft;
kernRight = mwestright;
lastChange = "2022-10-04 14:10:55 +0000";
layers = (
{
background = {
shapes = (
{
closed = 1;
nodes = (
(271,357,l),
(271,714,l),
(247,714,l),
(247,357,l)
);
},
{
closed = 1;
nodes = (
(436,526,l),
(436,548,l),
(80,548,l),
(80,526,l)
);
}
);
};
layerId = m01;
shapes = (
{
closed = 1;
nodes = (
(271,357,l),
(271,526,l),
(436,526,l),
(436,548,l),
(271,548,l),
(271,714,l),
(247,714,l),
(247,548,l),
(80,548,l),
(80,526,l),
(247,526,l),
(247,357,l)
);
}
);
width = 516;
},
{
background = {
shapes = (
{
closed = 1;
nodes = (
(311,357,l),
(311,714,l),
(178,714,l),
(178,357,l)
);
},
{
closed = 1;
nodes = (
(429,474,l),
(429,600,l),
(60,600,l),
(60,474,l)
);
}
);
};
layerId = "A1461942-0433-4891-A171-8512F51D8C86";
shapes = (
{
closed = 1;
nodes = (
(311,357,l),
(311,474,l),
(429,474,l),
(429,600,l),
(311,600,l),
(311,714,l),
(178,714,l),
(178,600,l),
(60,600,l),
(60,474,l),
(178,474,l),
(178,357,l)
);
}
);
width = 489;
},
{
background = {
shapes = (
{
closed = 1;
nodes = (
(196,417,l),
(196,714,l),
(175,714,l),
(175,417,l)
);
},
{
closed = 1;
nodes = (
(310,556,l),
(310,578,l),
(60,578,l),
(60,556,l)
);
}
);
};
layerId = "341CD669-D84F-4333-8BC8-F9777E6D3814";
shapes = (
{
closed = 1;
nodes = (
(196,417,l),
(196,556,l),
(310,556,l),
(310,578,l),
(196,578,l),
(196,714,l),
(175,714,l),
(175,578,l),
(60,578,l),
(60,556,l),
(175,556,l),
(175,417,l)
);
}
);
width = 370;
},
{
background = {
shapes = (
{
closed = 1;
nodes = (
(231,417,l),
(231,714,l),
(121,714,l),
(121,417,l)
);
},
{
closed = 1;
nodes = (
(315,511,l),
(315,623,l),
(35,623,l),
(35,511,l)
);
}
);
};
layerId = "4DD67900-F9B0-4F36-BC45-F4B21129580C";
shapes = (
{
closed = 1;
nodes = (
(231,417,l),
(231,511,l),
(315,511,l),
(315,623,l),
(231,623,l),
(231,714,l),
(121,714,l),
(121,623,l),
(35,623,l),
(35,511,l),
(121,511,l),
(121,417,l)
);
}
);
width = 350;
}
);
metricLeft = "shorthorizontalstrokeFinal-canadian";
metricRight = "shorthorizontalstrokeFinal-canadian";
note = uni1429;
unicode = 5161;
},
{
color = 2;
glyphname = "downtackFinal-canadian";
kernLeft = mwestleft;
kernRight = mwestright;
lastChange = "2022-10-04 14:10:55 +0000";
layers = (
{
background = {
shapes = (
{
closed = 1;
nodes = (
(271,357,l),
(271,704,l),
(247,704,l),
(247,357,l)
);
},
{
closed = 1;
nodes = (
(436,692,l),
(436,714,l),
(80,714,l),
(80,692,l)
);
}
);
};
layerId = m01;
shapes = (
{
closed = 1;
nodes = (
(271,357,l),
(271,692,l),
(436,692,l),
(436,714,l),
(80,714,l),
(80,692,l),
(247,692,l),
(247,357,l)
);
}
);
width = 516;
},
{
background = {
shapes = (
{
closed = 1;
nodes = (
(311,357,l),
(311,704,l),
(178,704,l),
(178,357,l)
);
},
{
closed = 1;
nodes = (
(429,588,l),
(429,714,l),
(60,714,l),
(60,588,l)
);
}
);
};
layerId = "A1461942-0433-4891-A171-8512F51D8C86";
shapes = (
{
closed = 1;
nodes = (
(311,357,l),
(311,588,l),
(429,588,l),
(429,714,l),
(60,714,l),
(60,588,l),
(178,588,l),
(178,357,l)
);
}
);
width = 489;
},
{
background = {
shapes = (
{
closed = 1;
nodes = (
(197,357,l),
(197,704,l),
(175,704,l),
(175,357,l)
);
},
{
closed = 1;
nodes = (
(310,692,l),
(310,714,l),
(60,714,l),
(60,692,l)
);
}
);
};
layerId = "341CD669-D84F-4333-8BC8-F9777E6D3814";
shapes = (
{
closed = 1;
nodes = (
(197,357,l),
(197,692,l),
(310,692,l),
(310,714,l),
(60,714,l),
(60,692,l),
(175,692,l),
(175,357,l)
);
}
);
width = 370;
},
{
background = {
shapes = (
{
closed = 1;
nodes = (
(234,357,l),
(234,704,l),
(116,704,l),
(116,357,l)
);
},
{
closed = 1;
nodes = (
(315,602,l),
(315,714,l),
(35,714,l),
(35,602,l)
);
}
);
};
layerId = "4DD67900-F9B0-4F36-BC45-F4B21129580C";
shapes = (
{
closed = 1;
nodes = (
(234,357,l),
(234,602,l),
(315,602,l),
(315,714,l),
(35,714,l),
(35,602,l),
(116,602,l),
(116,357,l)
);
}
);
width = 350;
}
);
metricLeft = "shorthorizontalstrokeFinal-canadian";
metricRight = "shorthorizontalstrokeFinal-canadian";
note = uni142A;
unicode = 5162;
},
{
color = 2;
glyphname = "thFinalWoodScree-canadian";
lastChange = "2022-10-04 13:09:12 +0000";
layers = (
{
background = {
shapes = (
{
closed = 1;
nodes = (
(276,357,l),
(276,714,l),
(252,714,l),
(252,357,l)
);
},
{
closed = 1;
nodes = (
(441,457,l),
(441,479,l),
(85,479,l),
(85,457,l)
);
},
{
closed = 1;
nodes = (
(441,592,l),
(441,614,l),
(85,614,l),
(85,592,l)
);
}
);
};
layerId = m01;
shapes = (
{
closed = 1;
nodes = (
(276,357,l),
(276,457,l),
(441,457,l),
(441,479,l),
(276,479,l),
(276,592,l),
(441,592,l),
(441,614,l),
(276,614,l),
(276,714,l),
(252,714,l),
(252,614,l),
(85,614,l),
(85,592,l),
(252,592,l),
(252,479,l),
(85,479,l),
(85,457,l),
(252,457,l),
(252,357,l)
);
}
);
width = 526;
},
{
background = {
shapes = (
{
closed = 1;
nodes = (
(312,357,l),
(312,714,l),
(179,714,l),
(179,357,l)
);
},
{
closed = 1;
nodes = (
(428,407,l),
(428,512,l),
(60,512,l),
(60,407,l)
);
},
{
closed = 1;
nodes = (
(428,559,l),
(428,664,l),
(60,664,l),
(60,559,l)
);
}
);
};
layerId = "A1461942-0433-4891-A171-8512F51D8C86";
shapes = (
{
closed = 1;
nodes = (
(312,357,l),
(312,407,l),
(428,407,l),
(428,512,l),
(312,512,l),
(312,559,l),
(428,559,l),
(428,664,l),
(312,664,l),
(312,714,l),
(179,714,l),
(179,664,l),
(60,664,l),
(60,559,l),
(179,559,l),
(179,512,l),
(60,512,l),
(60,407,l),
(179,407,l),
(179,357,l)
);
}
);
width = 488;
},
{
background = {
shapes = (
{
closed = 1;
nodes = (
(196,357,l),
(196,714,l),
(174,714,l),
(174,357,l)
);
},
{
closed = 1;
nodes = (
(310,457,l),
(310,479,l),
(60,479,l),
(60,457,l)
);
},
{
closed = 1;
nodes = (
(310,592,l),
(310,614,l),
(60,614,l),
(60,592,l)
);
}
);
};
layerId = "341CD669-D84F-4333-8BC8-F9777E6D3814";
shapes = (
{
closed = 1;
nodes = (
(196,357,l),
(196,457,l),
(310,457,l),
(310,479,l),
(196,479,l),
(196,592,l),
(310,592,l),
(310,614,l),
(196,614,l),
(196,714,l),
(174,714,l),
(174,614,l),
(60,614,l),
(60,592,l),
(174,592,l),
(174,479,l),
(60,479,l),
(60,457,l),
(174,457,l),
(174,357,l)
);
}
);
width = 370;
},
{
background = {
shapes = (
{
closed = 1;
nodes = (
(234,357,l),
(234,714,l),
(116,714,l),
(116,357,l)
);
},
{
closed = 1;
nodes = (
(315,407,l),
(315,507,l),
(35,507,l),
(35,407,l)
);
},
{
closed = 1;
nodes = (
(315,564,l),
(315,664,l),
(35,664,l),
(35,564,l)
);
}
);
};
layerId = "4DD67900-F9B0-4F36-BC45-F4B21129580C";
shapes = (
{
closed = 1;
nodes = (
(234,357,l),
(234,407,l),
(315,407,l),
(315,507,l),
(234,507,l),
(234,564,l),
(315,564,l),
(315,664,l),
(234,664,l),
(234,714,l),
(116,714,l),
(116,664,l),
(35,664,l),
(35,564,l),
(116,564,l),
(116,507,l),
(35,507,l),
(35,407,l),
(116,407,l),
(116,357,l)
);
}
);
width = 350;
}
);
metricLeft = "hyphen-canadian";
metricRight = "hyphen-canadian";
note = uni167E;
unicode = 5758;
},
{
color = 2;
glyphname = "ringSmallFinal-canadian";
kernLeft = mwestleft;
kernRight = mwestright;
lastChange = "2022-10-03 19:12:49 +0000";
layers = (
{
background = {
shapes = (
{
closed = 1;
nodes = (
(240,526,o),
(285,566,o),
(285,626,cs),
(285,686,o),
(240,726,o),
(185,726,cs),
(130,726,o),
(85,686,o),
(85,626,cs),
(85,566,o),
(130,526,o),
(185,526,cs)
);
},
{
closed = 1;
nodes = (
(137,548,o),
(108,581,o),
(108,626,cs),
(108,671,o),
(138,704,o),
(185,704,cs),
(232,704,o),
(262,671,o),
(262,626,cs),
(262,581,o),
(233,548,o),
(185,548,cs)
);
}
);
};
layerId = m01;
shapes = (
{
closed = 1;
nodes = (
(240,526,o),
(285,566,o),
(285,626,cs),
(285,686,o),
(240,726,o),
(185,726,cs),
(130,726,o),
(85,686,o),
(85,626,cs),
(85,566,o),
(130,526,o),
(185,526,cs)
);
},
{
closed = 1;
nodes = (
(137,548,o),
(108,581,o),
(108,626,cs),
(108,671,o),
(138,704,o),
(185,704,cs),
(232,704,o),
(262,671,o),
(262,626,cs),
(262,581,o),
(233,548,o),
(185,548,cs)
);
}
);
width = 370;
},
{
background = {
shapes = (
{
closed = 1;
nodes = (
(259,483,o),
(322,534,o),
(322,606,cs),
(322,678,o),
(259,729,o),
(189,729,cs),
(119,729,o),
(60,678,o),
(60,606,cs),
(60,534,o),
(119,483,o),
(189,483,cs)
);
},
{
closed = 1;
nodes = (
(163,563,o),
(149,583,o),
(149,606,cs),
(149,629,o),
(167,649,o),
(191,649,cs),
(215,649,o),
(233,629,o),
(233,606,cs),
(233,583,o),
(215,563,o),
(191,563,cs)
);
}
);
};
layerId = "A1461942-0433-4891-A171-8512F51D8C86";
shapes = (
{
closed = 1;
nodes = (
(259,483,o),
(322,534,o),
(322,606,cs),
(322,678,o),
(259,729,o),
(189,729,cs),
(119,729,o),
(60,678,o),
(60,606,cs),
(60,534,o),
(119,483,o),
(189,483,cs)
);
},
{
closed = 1;
nodes = (
(163,563,o),
(149,583,o),
(149,606,cs),
(149,629,o),
(167,649,o),
(191,649,cs),
(215,649,o),
(233,629,o),
(233,606,cs),
(233,583,o),
(215,563,o),
(191,563,cs)
);
}
);
width = 382;
},
{
background = {
shapes = (
{
closed = 1;
nodes = (
(186,566,o),
(220,600,o),
(220,646,cs),
(220,692,o),
(186,726,o),
(140,726,cs),
(94,726,o),
(60,692,o),
(60,646,cs),
(60,600,o),
(94,566,o),
(140,566,cs)
);
},
{
closed = 1;
nodes = (
(105,586,o),
(81,610,o),
(81,646,cs),
(81,681,o),
(105,706,o),
(140,706,cs),
(175,706,o),
(199,681,o),
(199,646,cs),
(199,610,o),
(175,586,o),
(140,586,cs)
);
}
);
};
layerId = "341CD669-D84F-4333-8BC8-F9777E6D3814";
shapes = (
{
closed = 1;
nodes = (
(186,566,o),
(220,600,o),
(220,646,cs),
(220,692,o),
(186,726,o),
(140,726,cs),
(94,726,o),
(60,692,o),
(60,646,cs),
(60,600,o),
(94,566,o),
(140,566,cs)
);
},
{
closed = 1;
nodes = (
(105,586,o),
(81,610,o),
(81,646,cs),
(81,681,o),
(105,706,o),
(140,706,cs),
(175,706,o),
(199,681,o),
(199,646,cs),
(199,610,o),
(175,586,o),
(140,586,cs)
);
}
);
width = 280;
},
{
background = {
shapes = (
{
closed = 1;
nodes = (
(206,509,o),
(259,555,o),
(259,619,cs),
(259,683,o),
(206,729,o),
(147,729,cs),
(88,729,o),
(35,684,o),
(35,619,cs),
(35,555,o),
(87,509,o),
(147,509,cs)
);
},
{
closed = 1;
nodes = (
(124,579,o),
(108,598,o),
(108,619,cs),
(108,640,o),
(124,659,o),
(147,659,cs),
(170,659,o),
(186,640,o),
(186,619,cs),
(186,598,o),
(170,579,o),
(147,579,cs)
);
}
);
};
layerId = "4DD67900-F9B0-4F36-BC45-F4B21129580C";
shapes = (
{
closed = 1;
nodes = (
(206,509,o),
(259,555,o),
(259,619,cs),
(259,683,o),
(206,729,o),
(147,729,cs),
(88,729,o),
(35,684,o),
(35,619,cs),
(35,555,o),
(87,509,o),
(147,509,cs)
);
},
{
closed = 1;
nodes = (
(124,579,o),
(108,598,o),
(108,619,cs),
(108,640,o),
(124,659,o),
(147,659,cs),
(170,659,o),
(186,640,o),
(186,619,cs),
(186,598,o),
(170,579,o),
(147,579,cs)
);
}
);
width = 294;
}
);
metricRight = "=|";
note = g725;
unicode = 6366;
},
{
color = 2;
glyphname = "raiseddotFinal-canadian";
kernLeft = mwestleft;
kernRight = mwestright;
lastChange = "2022-10-04 14:26:44 +0000";
layers = (
{
background = {
shapes = (
{
closed = 1;
nodes = (
(137,660,o),
(151,674,o),
(151,693,cs),
(151,712,o),
(137,726,o),
(118,726,cs),
(99,726,o),
(85,712,o),
(85,693,cs),
(85,674,o),
(99,660,o),
(118,660,cs)
);
}
);
};
layerId = m01;
shapes = (
{
closed = 1;
nodes = (
(137,660,o),
(151,674,o),
(151,693,cs),
(151,712,o),
(137,726,o),
(118,726,cs),
(99,726,o),
(85,712,o),
(85,693,cs),
(85,674,o),
(99,660,o),
(118,660,cs)
);
}
);
width = 236;
},
{
background = {
shapes = (
{
closed = 1;
nodes = (
(185,549,o),
(225,589,o),
(225,639,cs),
(225,689,o),
(185,729,o),
(135,729,cs),
(85,729,o),
(45,689,o),
(45,639,cs),
(45,589,o),
(85,549,o),
(135,549,cs)
);
}
);
};
layerId = "A1461942-0433-4891-A171-8512F51D8C86";
shapes = (
{
closed = 1;
nodes = (
(185,549,o),
(225,589,o),
(225,639,cs),
(225,689,o),
(185,729,o),
(135,729,cs),
(85,729,o),
(45,689,o),
(45,639,cs),
(45,589,o),
(85,549,o),
(135,549,cs)
);
}
);
width = 270;
},
{
background = {
shapes = (
{
closed = 1;
nodes = (
(107,666,o),
(120,679,o),
(120,696,cs),
(120,713,o),
(107,726,o),
(90,726,cs),
(73,726,o),
(60,713,o),
(60,696,cs),
(60,679,o),
(73,666,o),
(90,666,cs)
);
}
);
};
layerId = "341CD669-D84F-4333-8BC8-F9777E6D3814";
shapes = (
{
closed = 1;
nodes = (
(107,666,o),
(120,679,o),
(120,696,cs),
(120,713,o),
(107,726,o),
(90,726,cs),
(73,726,o),
(60,713,o),
(60,696,cs),
(60,679,o),
(73,666,o),
(90,666,cs)
);
}
);
width = 180;
},
{
background = {
shapes = (
{
closed = 1;
nodes = (
(149,569,o),
(185,605,o),
(185,649,cs),
(185,693,o),
(149,729,o),
(105,729,cs),
(61,729,o),
(25,693,o),
(25,649,cs),
(25,605,o),
(61,569,o),
(105,569,cs)
);
}
);
};
layerId = "4DD67900-F9B0-4F36-BC45-F4B21129580C";
shapes = (
{
closed = 1;
nodes = (
(149,569,o),
(185,605,o),
(185,649,cs),
(185,693,o),
(149,729,o),
(105,729,cs),
(61,729,o),
(25,693,o),
(25,649,cs),
(25,605,o),
(61,569,o),
(105,569,cs)
);
}
);
width = 210;
}
);
metricRight = "=|";
note = g725;
unicode = 6367;
},
{
color = 2;
glyphname = "plusFinal-canadian.base";
lastChange = "2022-10-04 14:10:55 +0000";
layers = (
{
background = {
shapes = (
{
closed = 1;
nodes = (
(271,0,l),
(271,357,l),
(247,357,l),
(247,0,l)
);
},
{
closed = 1;
nodes = (
(436,169,l),
(436,191,l),
(80,191,l),
(80,169,l)
);
}
);
};
layerId = m01;
shapes = (
{
closed = 1;
nodes = (
(271,0,l),
(271,169,l),
(436,169,l),
(436,191,l),
(271,191,l),
(271,357,l),
(247,357,l),
(247,191,l),
(80,191,l),
(80,169,l),
(247,169,l),
(247,0,l)
);
}
);
width = 516;
},
{
background = {
shapes = (
{
closed = 1;
nodes = (
(311,0,l),
(311,357,l),
(178,357,l),
(178,0,l)
);
},
{
closed = 1;
nodes = (
(429,117,l),
(429,243,l),
(60,243,l),
(60,117,l)
);
}
);
};
layerId = "A1461942-0433-4891-A171-8512F51D8C86";
shapes = (
{
closed = 1;
nodes = (
(311,0,l),
(311,117,l),
(429,117,l),
(429,243,l),
(311,243,l),
(311,357,l),
(178,357,l),
(178,243,l),
(60,243,l),
(60,117,l),
(178,117,l),
(178,0,l)
);
}
);
width = 489;
},
{
background = {
shapes = (
{
closed = 1;
nodes = (
(196,0,l),
(196,297,l),
(175,297,l),
(175,0,l)
);
},
{
closed = 1;
nodes = (
(310,139,l),
(310,161,l),
(60,161,l),
(60,139,l)
);
}
);
};
layerId = "341CD669-D84F-4333-8BC8-F9777E6D3814";
shapes = (
{
closed = 1;
nodes = (
(196,0,l),
(196,139,l),
(310,139,l),
(310,161,l),
(196,161,l),
(196,297,l),
(175,297,l),
(175,161,l),
(60,161,l),
(60,139,l),
(175,139,l),
(175,0,l)
);
}
);
width = 370;
},
{
background = {
shapes = (
{
closed = 1;
nodes = (
(231,0,l),
(231,297,l),
(121,297,l),
(121,0,l)
);
},
{
closed = 1;
nodes = (
(315,94,l),
(315,206,l),
(35,206,l),
(35,94,l)
);
}
);
};
layerId = "4DD67900-F9B0-4F36-BC45-F4B21129580C";
shapes = (
{
closed = 1;
nodes = (
(231,0,l),
(231,94,l),
(315,94,l),
(315,206,l),
(231,206,l),
(231,297,l),
(121,297,l),
(121,206,l),
(35,206,l),
(35,94,l),
(121,94,l),
(121,0,l)
);
}
);
width = 350;
}
);
metricLeft = "shorthorizontalstrokeFinal-canadian";
metricRight = "shorthorizontalstrokeFinal-canadian";
note = uni1429;
},
{
color = 2;
glyphname = "e-canadian";
kernLeft = ecanleft;
kernRight = ecanright;
lastChange = "2022-10-04 10:53:20 +0000";
layers = (
{
anchors = (
{
name = middle_center_can;
pos = (387,470);
},
{
name = top_center_can;
pos = (387,714);
},
{
name = top_left_can;
pos = (130,714);
},
{
name = top_right_can;
pos = (645,714);
}
);
background = {
anchors = (
{
name = middle_center_can;
pos = (387,470);
},
{
name = top_center_can;
pos = (387,714);
},
{
name = top_left_can;
pos = (130,714);
},
{
name = top_right_can;
pos = (645,714);
}
);
shapes = (
{
closed = 1;
nodes = (
(405,0,l),
(740,701,l),
(740,714,l),
(45,714,l),
(45,701,l),
(380,0,l)
);
},
{
closed = 1;
nodes = (
(397,19,l),
(75,700,l),
(75,689,l),
(711,689,l),
(711,700,l),
(389,19,l)
);
}
);
};
layerId = m01;
shapes = (
{
closed = 1;
nodes = (
(405,0,l),
(740,701,l),
(740,714,l),
(45,714,l),
(45,701,l),
(380,0,l)
);
},
{
closed = 1;
nodes = (
(397,19,l),
(75,700,l),
(75,689,l),
(711,689,l),
(711,700,l),
(389,19,l)
);
}
);
width = 785;
},
{
anchors = (
{
name = middle_center_can;
pos = (420,470);
},
{
name = top_center_can;
pos = (420,714);
},
{
name = top_left_can;
pos = (163,714);
},
{
name = top_right_can;
pos = (678,714);
}
);
background = {
anchors = (
{
name = middle_center_can;
pos = (420,470);
},
{
name = top_center_can;
pos = (420,714);
},
{
name = top_left_can;
pos = (163,714);
},
{
name = top_right_can;
pos = (678,714);
}
);
shapes = (
{
closed = 1;
nodes = (
(448,0,l),
(812,669,l),
(812,714,l),
(28,714,l),
(28,669,l),
(392,0,l)
);
},
{
closed = 1;
nodes = (
(447,252,l),
(260,598,l),
(236,559,l),
(604,559,l),
(588,598,l),
(401,252,l)
);
}
);
};
guides = (
{
angle = 61.4496;
pos = (584,598);
}
);
layerId = "A1461942-0433-4891-A171-8512F51D8C86";
shapes = (
{
closed = 1;
nodes = (
(448,0,l),
(812,669,l),
(812,714,l),
(28,714,l),
(28,669,l),
(392,0,l)
);
},
{
closed = 1;
nodes = (
(447,252,l),
(260,598,l),
(236,559,l),
(604,559,l),
(588,598,l),
(401,252,l)
);
}
);
width = 840;
},
{
anchors = (
{
name = middle_center_can;
pos = (276,470);
},
{
name = top_center_can;
pos = (276,714);
},
{
name = top_left_can;
pos = (97,714);
},
{
name = top_right_can;
pos = (457,714);
}
);
background = {
anchors = (
{
name = middle_center_can;
pos = (276,470);
},
{
name = top_center_can;
pos = (276,714);
},
{
name = top_left_can;
pos = (97,714);
},
{
name = top_right_can;
pos = (457,714);
}
);
shapes = (
{
closed = 1;
nodes = (
(289,0,l),
(525,701,l),
(525,714,l),
(35,714,l),
(35,701,l),
(271,0,l)
);
},
{
closed = 1;
nodes = (
(285,27,l),
(60,701,l),
(59,690,l),
(501,690,l),
(500,701,l),
(275,27,l)
);
}
);
};
layerId = "341CD669-D84F-4333-8BC8-F9777E6D3814";
shapes = (
{
closed = 1;
nodes = (
(289,0,l),
(525,701,l),
(525,714,l),
(35,714,l),
(35,701,l),
(271,0,l)
);
},
{
closed = 1;
nodes = (
(285,27,l),
(60,701,l),
(59,690,l),
(501,690,l),
(500,701,l),
(275,27,l)
);
}
);
width = 560;
},
{
anchors = (
{
name = middle_center_can;
pos = (307,470);
},
{
name = top_center_can;
pos = (307,714);
},
{
name = top_left_can;
pos = (122,714);
},
{
name = top_right_can;
pos = (492,714);
}
);
background = {
anchors = (
{
name = middle_center_can;
pos = (307,470);
},
{
name = top_center_can;
pos = (307,714);
},
{
name = top_left_can;
pos = (122,714);
},
{
name = top_right_can;
pos = (492,714);
}
);
shapes = (
{
closed = 1;
nodes = (
(329,0,l),
(599,671,l),
(599,714,l),
(11,714,l),
(11,671,l),
(281,0,l)
);
},
{
closed = 1;
nodes = (
(351,218,l),
(200,604,l),
(165,571,l),
(439,571,l),
(412,604,l),
(261,218,l)
);
}
);
};
guides = (
{
angle = 248.0809;
pos = (450,671);
}
);
layerId = "4DD67900-F9B0-4F36-BC45-F4B21129580C";
shapes = (
{
closed = 1;
nodes = (
(329,0,l),
(599,671,l),
(599,714,l),
(11,714,l),
(11,671,l),
(281,0,l)
);
},
{
closed = 1;
nodes = (
(351,218,l),
(200,604,l),
(165,571,l),
(439,571,l),
(412,604,l),
(261,218,l)
);
}
);
width = 610;
}
);
metricRight = "=|";
note = uni1401;
unicode = 5121;
},
{
color = 2;
glyphname = "i-canadian";
kernLeft = icanleft;
kernRight = icanright;
lastChange = "2022-10-04 10:53:52 +0000";
layers = (
{
anchors = (
{
name = middle_center_can;
pos = (387,470);
},
{
name = top_center_can;
pos = (387,714);
},
{
name = top_left_can;
pos = (130,714);
},
{
name = top_right_can;
pos = (645,714);
}
);
background = {
anchors = (
{
name = middle_center_can;
pos = (387,470);
},
{
name = top_center_can;
pos = (387,714);
},
{
name = top_left_can;
pos = (130,714);
},
{
name = top_right_can;
pos = (645,714);
}
);
shapes = (
{
closed = 1;
nodes = (
(740,0,l),
(740,13,l),
(405,714,l),
(380,714,l),
(45,13,l),
(45,0,l)
);
},
{
closed = 1;
nodes = (
(397,695,l),
(389,695,l),
(711,14,l),
(711,25,l),
(75,25,l),
(75,14,l)
);
}
);
};
layerId = m01;
shapes = (
{
closed = 1;
nodes = (
(740,0,l),
(740,13,l),
(405,714,l),
(380,714,l),
(45,13,l),
(45,0,l)
);
},
{
closed = 1;
nodes = (
(397,695,l),
(389,695,l),
(711,14,l),
(711,25,l),
(75,25,l),
(75,14,l)
);
}
);
width = 785;
},
{
anchors = (
{
name = middle_center_can;
pos = (420,237);
},
{
name = top_center_can;
pos = (420,714);
},
{
name = top_left_can;
pos = (163,714);
},
{
name = top_right_can;
pos = (678,714);
}
);
background = {
anchors = (
{
name = middle_center_can;
pos = (420,237);
},
{
name = top_center_can;
pos = (420,714);
},
{
name = top_left_can;
pos = (163,714);
},
{
name = top_right_can;
pos = (678,714);
}
);
shapes = (
{
closed = 1;
nodes = (
(812,0,l),
(812,45,l),
(448,714,l),
(392,714,l),
(28,45,l),
(28,0,l)
);
},
{
closed = 1;
nodes = (
(439,462,l),
(393,462,l),
(580,116,l),
(604,155,l),
(236,155,l),
(252,116,l)
);
}
);
};
guides = (
{
angle = 118.5504;
pos = (576,116);
}
);
layerId = "A1461942-0433-4891-A171-8512F51D8C86";
shapes = (
{
closed = 1;
nodes = (
(812,0,l),
(812,45,l),
(448,714,l),
(392,714,l),
(28,45,l),
(28,0,l)
);
},
{
closed = 1;
nodes = (
(439,462,l),
(393,462,l),
(580,116,l),
(604,155,l),
(236,155,l),
(252,116,l)
);
}
);
width = 840;
},
{
anchors = (
{
name = middle_center_can;
pos = (276,471);
},
{
name = top_center_can;
pos = (276,714);
},
{
name = top_left_can;
pos = (97,714);
},
{
name = top_right_can;
pos = (457,714);
}
);
background = {
anchors = (
{
name = middle_center_can;
pos = (276,471);
},
{
name = top_center_can;
pos = (276,714);
},
{
name = top_left_can;
pos = (97,714);
},
{
name = top_right_can;
pos = (457,714);
}
);
shapes = (
{
closed = 1;
nodes = (
(525,0,l),
(525,13,l),
(289,714,l),
(271,714,l),
(35,13,l),
(35,0,l)
);
},
{
closed = 1;
nodes = (
(285,687,l),
(275,687,l),
(500,13,l),
(501,24,l),
(59,24,l),
(60,13,l)
);
}
);
};
layerId = "341CD669-D84F-4333-8BC8-F9777E6D3814";
shapes = (
{
closed = 1;
nodes = (
(525,0,l),
(525,13,l),
(289,714,l),
(271,714,l),
(35,13,l),
(35,0,l)
);
},
{
closed = 1;
nodes = (
(285,687,l),
(275,687,l),
(500,13,l),
(501,24,l),
(59,24,l),
(60,13,l)
);
}
);
width = 560;
},
{
anchors = (
{
name = middle_center_can;
pos = (307,251);
},
{
name = top_center_can;
pos = (307,714);
},
{
name = top_left_can;
pos = (122,714);
},
{
name = top_right_can;
pos = (492,714);
}
);
background = {
anchors = (
{
name = middle_center_can;
pos = (307,251);
},
{
name = top_center_can;
pos = (307,714);
},
{
name = top_left_can;
pos = (122,714);
},
{
name = top_right_can;
pos = (492,714);
}
);
shapes = (
{
closed = 1;
nodes = (
(599,0,l),
(599,43,l),
(329,714,l),
(281,714,l),
(11,43,l),
(11,0,l)
);
},
{
closed = 1;
nodes = (
(349,496,l),
(259,496,l),
(410,110,l),
(437,143,l),
(163,143,l),
(198,110,l)
);
}
);
};
guides = (
{
angle = 118.5504;
pos = (573,116);
}
);
layerId = "4DD67900-F9B0-4F36-BC45-F4B21129580C";
shapes = (
{
closed = 1;
nodes = (
(599,0,l),
(599,43,l),
(329,714,l),
(281,714,l),
(11,43,l),
(11,0,l)
);
},
{
closed = 1;
nodes = (
(349,496,l),
(259,496,l),
(410,110,l),
(437,143,l),
(163,143,l),
(198,110,l)
);
}
);
width = 610;
}
);
metricLeft = "e-canadian";
metricRight = "e-canadian";
note = uni1403;
unicode = 5123;
},
{
color = 2;
glyphname = "o-canadian";
kernLeft = ocanleft;
kernRight = ocanright;
lastChange = "2022-10-04 11:16:01 +0000";
layers = (
{
anchors = (
{
name = middle_center_can;
pos = (311,357);
},
{
name = top_center_can;
pos = (413,714);
},
{
name = top_double;
pos = (496,714);
},
{
name = top_left_can;
pos = (113,714);
},
{
name = top_right_can;
pos = (696,714);
}
);
background = {
anchors = (
{
name = middle_center_can;
pos = (311,357);
},
{
name = top_center_can;
pos = (413,714);
},
{
name = top_double;
pos = (496,714);
},
{
name = top_left_can;
pos = (113,714);
},
{
name = top_right_can;
pos = (696,714);
}
);
shapes = (
{
closed = 1;
nodes = (
(113,0,l),
(726,347,l),
(726,367,l),
(113,714,l),
(100,714,l),
(100,0,l)
);
},
{
closed = 1;
nodes = (
(125,684,l),
(114,685,l),
(707,351,l),
(707,363,l),
(114,29,l),
(125,29,l)
);
}
);
};
layerId = m01;
shapes = (
{
closed = 1;
nodes = (
(113,0,l),
(726,347,l),
(726,367,l),
(113,714,l),
(100,714,l),
(100,0,l)
);
},
{
closed = 1;
nodes = (
(125,684,l),
(114,685,l),
(707,351,l),
(707,363,l),
(114,29,l),
(125,29,l)
);
}
);
width = 771;
},
{
anchors = (
{
name = middle_center_can;
pos = (296,357);
},
{
name = top_center_can;
pos = (398,714);
},
{
name = top_double;
pos = (526,714);
},
{
name = top_left_can;
pos = (153,714);
},
{
name = top_right_can;
pos = (656,714);
}
);
background = {
anchors = (
{
name = middle_center_can;
pos = (296,357);
},
{
name = top_center_can;
pos = (398,714);
},
{
name = top_double;
pos = (526,714);
},
{
name = top_left_can;
pos = (153,714);
},
{
name = top_right_can;
pos = (656,714);
}
);
shapes = (
{
closed = 1;
nodes = (
(115,0,l),
(725,329,l),
(725,385,l),
(115,714,l),
(70,714,l),
(70,0,l)
);
},
{
closed = 1;
nodes = (
(236,505,l),
(187,501,l),
(489,341,l),
(489,377,l),
(187,218,l),
(236,214,l)
);
}
);
};
guides = (
{
angle = 151.6601;
pos = (725,385);
},
{
angle = 28.3399;
pos = (481,373);
}
);
layerId = "A1461942-0433-4891-A171-8512F51D8C86";
shapes = (
{
closed = 1;
nodes = (
(115,0,l),
(725,329,l),
(725,385,l),
(115,714,l),
(70,714,l),
(70,0,l)
);
},
{
closed = 1;
nodes = (
(236,505,l),
(187,501,l),
(489,341,l),
(489,377,l),
(187,218,l),
(236,214,l)
);
}
);
width = 753;
},
{
anchors = (
{
name = middle_center_can;
pos = (224,357);
},
{
name = top_center_can;
pos = (295,714);
},
{
name = top_double;
pos = (366,714);
},
{
name = top_left_can;
pos = (87,714);
},
{
name = top_right_can;
pos = (492,714);
}
);
background = {
anchors = (
{
name = middle_center_can;
pos = (224,357);
},
{
name = top_center_can;
pos = (295,714);
},
{
name = top_double;
pos = (366,714);
},
{
name = top_left_can;
pos = (87,714);
},
{
name = top_right_can;
pos = (492,714);
}
);
shapes = (
{
closed = 1;
nodes = (
(86,0,l),
(515,348,l),
(515,366,l),
(86,714,l),
(75,714,l),
(75,0,l)
);
},
{
closed = 1;
nodes = (
(98,683,l),
(89,682,l),
(501,349,l),
(501,365,l),
(89,32,l),
(98,31,l)
);
}
);
};
layerId = "341CD669-D84F-4333-8BC8-F9777E6D3814";
shapes = (
{
closed = 1;
nodes = (
(86,0,l),
(515,348,l),
(515,366,l),
(86,714,l),
(75,714,l),
(75,0,l)
);
},
{
closed = 1;
nodes = (
(98,683,l),
(89,682,l),
(501,349,l),
(501,365,l),
(89,32,l),
(98,31,l)
);
}
);
width = 550;
},
{
anchors = (
{
name = middle_center_can;
pos = (237,357);
},
{
name = top_center_can;
pos = (280,714);
},
{
name = top_double;
pos = (385,714);
},
{
name = top_left_can;
pos = (109,714);
},
{
name = top_right_can;
pos = (469,714);
}
);
background = {
anchors = (
{
name = middle_center_can;
pos = (237,357);
},
{
name = top_center_can;
pos = (280,714);
},
{
name = top_double;
pos = (385,714);
},
{
name = top_left_can;
pos = (109,714);
},
{
name = top_right_can;
pos = (469,714);
}
);
shapes = (
{
closed = 1;
nodes = (
(81,0,l),
(539,330,l),
(539,384,l),
(81,714,l),
(40,714,l),
(40,0,l)
);
},
{
closed = 1;
nodes = (
(187,511,l),
(152,488,l),
(385,320,l),
(385,397,l),
(152,228,l),
(187,203,l)
);
}
);
};
guides = (
{
angle = -35.7737;
pos = (152,482);
},
{
angle = 216.9953;
pos = (519,480);
}
);
layerId = "4DD67900-F9B0-4F36-BC45-F4B21129580C";
shapes = (
{
closed = 1;
nodes = (
(81,0,l),
(539,330,l),
(539,384,l),
(81,714,l),
(40,714,l),
(40,0,l)
);
},
{
closed = 1;
nodes = (
(187,511,l),
(152,488,l),
(385,320,l),
(385,397,l),
(152,228,l),
(187,203,l)
);
}
);
width = 562;
}
);
metricLeft = "nunavuth-canadian";
note = uni1405;
unicode = 5125;
},
{
color = 2;
glyphname = "eeCarrier-canadian";
lastChange = "2022-09-29 19:37:15 +0000";
layers = (
{
background = {
shapes = (
{
closed = 1;
nodes = (
(113,0,l),
(726,347,l),
(726,367,l),
(113,714,l),
(100,714,l),
(100,0,l)
);
},
{
closed = 1;
nodes = (
(125,684,l),
(114,685,l),
(707,351,l),
(707,363,l),
(114,29,l),
(125,29,l)
);
},
{
closed = 1;
nodes = (
(323,466,l),
(299,466,l),
(299,248,l),
(323,248,l)
);
}
);
};
layerId = m01;
shapes = (
{
closed = 1;
nodes = (
(113,0,l),
(726,347,l),
(726,367,l),
(113,714,l),
(100,714,l),
(100,0,l)
);
},
{
closed = 1;
nodes = (
(125,684,l),
(114,685,l),
(707,351,l),
(707,363,l),
(114,29,l),
(125,29,l)
);
},
{
closed = 1;
nodes = (
(323,466,l),
(299,466,l),
(299,248,l),
(323,248,l)
);
}
);
width = 771;
},
{
background = {
shapes = (
{
closed = 1;
nodes = (
(115,0,l),
(725,329,l),
(725,385,l),
(115,714,l),
(70,714,l),
(70,0,l)
);
},
{
closed = 1;
nodes = (
(236,505,l),
(187,501,l),
(489,341,l),
(489,377,l),
(187,218,l),
(236,214,l)
);
},
{
closed = 1;
nodes = (
(326,413,l),
(266,413,l),
(266,301,l),
(326,301,l)
);
}
);
};
layerId = "A1461942-0433-4891-A171-8512F51D8C86";
shapes = (
{
closed = 1;
nodes = (
(115,0,l),
(725,329,l),
(725,385,l),
(115,714,l),
(70,714,l),
(70,0,l)
);
},
{
closed = 1;
nodes = (
(236,505,l),
(187,501,l),
(489,341,l),
(489,377,l),
(187,218,l),
(236,214,l)
);
},
{
closed = 1;
nodes = (
(326,413,l),
(266,413,l),
(266,301,l),
(326,301,l)
);
}
);
width = 753;
},
{
background = {
shapes = (
{
closed = 1;
nodes = (
(86,0,l),
(515,348,l),
(515,366,l),
(86,714,l),
(75,714,l),
(75,0,l)
);
},
{
closed = 1;
nodes = (
(98,683,l),
(89,682,l),
(501,349,l),
(501,365,l),
(89,32,l),
(98,31,l)
);
},
{
closed = 1;
nodes = (
(235,466,l),
(213,466,l),
(213,248,l),
(235,248,l)
);
}
);
};
layerId = "341CD669-D84F-4333-8BC8-F9777E6D3814";
shapes = (
{
closed = 1;
nodes = (
(86,0,l),
(515,348,l),
(515,366,l),
(86,714,l),
(75,714,l),
(75,0,l)
);
},
{
closed = 1;
nodes = (
(98,683,l),
(89,682,l),
(501,349,l),
(501,365,l),
(89,32,l),
(98,31,l)
);
},
{
closed = 1;
nodes = (
(235,466,l),
(213,466,l),
(213,248,l),
(235,248,l)
);
}
);
width = 550;
},
{
background = {
shapes = (
{
closed = 1;
nodes = (
(81,0,l),
(539,330,l),
(539,384,l),
(81,714,l),
(40,714,l),
(40,0,l)
);
},
{
closed = 1;
nodes = (
(172,511,l),
(152,503,l),
(385,335,l),
(385,382,l),
(152,213,l),
(172,203,l)
);
},
{
closed = 1;
nodes = (
(254,412,l),
(201,412,l),
(201,302,l),
(254,302,l)
);
}
);
};
layerId = "4DD67900-F9B0-4F36-BC45-F4B21129580C";
shapes = (
{
closed = 1;
nodes = (
(81,0,l),
(539,330,l),
(539,384,l),
(81,714,l),
(40,714,l),
(40,0,l)
);
},
{
closed = 1;
nodes = (
(172,511,l),
(152,503,l),
(385,335,l),
(385,382,l),
(152,213,l),
(172,203,l)
);
},
{
closed = 1;
nodes = (
(254,412,l),
(201,412,l),
(201,302,l),
(254,302,l)
);
}
);
width = 562;
}
);
metricLeft = "nunavuth-canadian";
metricRight = "o-canadian";
note = uni1408;
unicode = 5128;
},
{
color = 2;
glyphname = "a-canadian";
kernLeft = acanleft;
kernRight = acanright;
lastChange = "2022-10-04 09:44:47 +0000";
layers = (
{
anchors = (
{
name = middle_center_can;
pos = (450,357);
},
{
name = top_center_can;
pos = (358,714);
},
{
name = top_left_can;
pos = (58,714);
},
{
name = top_right_can;
pos = (659,714);
}
);
background = {
anchors = (
{
name = middle_center_can;
pos = (450,357);
},
{
name = top_center_can;
pos = (358,714);
},
{
name = top_left_can;
pos = (58,714);
},
{
name = top_right_can;
pos = (659,714);
}
);
shapes = (
{
closed = 1;
nodes = (
(671,0,l),
(671,714,l),
(658,714,l),
(45,367,l),
(45,347,l),
(658,0,l)
);
},
{
closed = 1;
nodes = (
(656,28,l),
(64,363,l),
(64,351,l),
(655,685,l),
(646,685,l),
(646,28,l)
);
}
);
};
guides = (
{
angle = 209.5128;
pos = (64,350);
},
{
angle = -29.5128;
pos = (64,363);
}
);
layerId = m01;
shapes = (
{
closed = 1;
nodes = (
(671,0,l),
(671,714,l),
(658,714,l),
(45,367,l),
(45,347,l),
(658,0,l)
);
},
{
closed = 1;
nodes = (
(656,28,l),
(64,363,l),
(64,351,l),
(655,685,l),
(646,685,l),
(646,28,l)
);
}
);
width = 771;
},
{
anchors = (
{
name = middle_center_can;
pos = (457,357);
},
{
name = top_center_can;
pos = (356,714);
},
{
name = top_left_can;
pos = (111,714);
},
{
name = top_right_can;
pos = (600,714);
}
);
background = {
anchors = (
{
name = middle_center_can;
pos = (457,357);
},
{
name = top_center_can;
pos = (356,714);
},
{
name = top_left_can;
pos = (111,714);
},
{
name = top_right_can;
pos = (600,714);
}
);
shapes = (
{
closed = 1;
nodes = (
(683,0,l),
(683,714,l),
(638,714,l),
(28,385,l),
(28,329,l),
(638,0,l)
);
},
{
closed = 1;
nodes = (
(566,218,l),
(264,377,l),
(264,341,l),
(566,500,l),
(517,504,l),
(517,214,l)
);
}
);
};
guides = (
{
angle = 208.3399;
pos = (272,345);
},
{
angle = -28.3399;
pos = (272,373);
}
);
layerId = "A1461942-0433-4891-A171-8512F51D8C86";
shapes = (
{
closed = 1;
nodes = (
(683,0,l),
(683,714,l),
(638,714,l),
(28,385,l),
(28,329,l),
(638,0,l)
);
},
{
closed = 1;
nodes = (
(566,218,l),
(264,377,l),
(264,341,l),
(566,500,l),
(517,504,l),
(517,214,l)
);
}
);
width = 753;
},
{
anchors = (
{
name = middle_center_can;
pos = (320,357);
},
{
name = top_center_can;
pos = (255,714);
},
{
name = top_left_can;
pos = (47,714);
},
{
name = top_right_can;
pos = (463,714);
}
);
background = {
anchors = (
{
name = middle_center_can;
pos = (320,357);
},
{
name = top_center_can;
pos = (255,714);
},
{
name = top_left_can;
pos = (47,714);
},
{
name = top_right_can;
pos = (463,714);
}
);
shapes = (
{
closed = 1;
nodes = (
(475,0,l),
(475,714,l),
(464,714,l),
(35,366,l),
(35,348,l),
(464,0,l)
);
},
{
closed = 1;
nodes = (
(461,32,l),
(49,365,l),
(49,349,l),
(461,682,l),
(452,683,l),
(452,31,l)
);
}
);
};
guides = (
{
angle = 209.5128;
pos = (67,350);
},
{
angle = -29.5128;
pos = (67,363);
}
);
layerId = "341CD669-D84F-4333-8BC8-F9777E6D3814";
shapes = (
{
closed = 1;
nodes = (
(475,0,l),
(475,714,l),
(464,714,l),
(35,366,l),
(35,348,l),
(464,0,l)
);
},
{
closed = 1;
nodes = (
(461,32,l),
(49,365,l),
(49,349,l),
(461,682,l),
(452,683,l),
(452,31,l)
);
}
);
width = 550;
},
{
anchors = (
{
name = middle_center_can;
pos = (325,357);
},
{
name = top_center_can;
pos = (233,714);
},
{
name = top_left_can;
pos = (111,714);
},
{
name = top_right_can;
pos = (444,714);
}
);
background = {
anchors = (
{
name = middle_center_can;
pos = (325,357);
},
{
name = top_center_can;
pos = (233,714);
},
{
name = top_left_can;
pos = (111,714);
},
{
name = top_right_can;
pos = (444,714);
}
);
shapes = (
{
closed = 1;
nodes = (
(481,714,l),
(23,384,l),
(23,330,l),
(481,0,l),
(522,0,l),
(522,714,l)
);
},
{
closed = 1;
nodes = (
(375,203,l),
(410,226,l),
(177,394,l),
(177,317,l),
(410,486,l),
(375,511,l)
);
}
);
};
guides = (
{
angle = 208.3399;
pos = (298,345);
},
{
angle = -28.3399;
pos = (298,373);
}
);
layerId = "4DD67900-F9B0-4F36-BC45-F4B21129580C";
shapes = (
{
closed = 1;
nodes = (
(522,0,l),
(522,714,l),
(481,714,l),
(23,384,l),
(23,330,l),
(481,0,l)
);
},
{
closed = 1;
nodes = (
(410,226,l),
(177,394,l),
(177,317,l),
(410,486,l),
(375,511,l),
(375,203,l)
);
}
);
width = 562;
}
);
metricRight = "nunavuth-canadian";
note = uni140A;
unicode = 5130;
},
{
color = 2;
glyphname = "ai-canadian";
lastChange = "2022-09-29 19:38:13 +0000";
layers = (
{
background = {
shapes = (
{
closed = 1;
nodes = (
(305,351,o),
(354,394,o),
(367,476,c),
(355,476,l),
(370,395,o),
(420,351,o),
(495,351,cs),
(583,351,o),
(639,409,o),
(639,516,cs),
(639,714,l),
(615,714,l),
(615,515,ls),
(615,416,o),
(570,373,o),
(495,373,cs),
(421,373,o),
(374,418,o),
(374,514,cs),
(374,714,l),
(350,714,l),
(350,515,ls),
(350,416,o),
(304,373,o),
(229,373,cs),
(155,373,o),
(109,418,o),
(109,514,cs),
(109,714,l),
(85,714,l),
(85,513,ls),
(85,409,o),
(143,351,o),
(229,351,cs)
);
}
);
};
layerId = m01;
shapes = (
{
closed = 1;
nodes = (
(305,351,o),
(354,394,o),
(367,476,c),
(355,476,l),
(370,395,o),
(420,351,o),
(495,351,cs),
(583,351,o),
(639,409,o),
(639,516,cs),
(639,714,l),
(615,714,l),
(615,515,ls),
(615,416,o),
(570,373,o),
(495,373,cs),
(421,373,o),
(374,418,o),
(374,514,cs),
(374,714,l),
(350,714,l),
(350,515,ls),
(350,416,o),
(304,373,o),
(229,373,cs),
(155,373,o),
(109,418,o),
(109,514,cs),
(109,714,l),
(85,714,l),
(85,513,ls),
(85,409,o),
(143,351,o),
(229,351,cs)
);
}
);
width = 724;
},
{
background = {
shapes = (
{
closed = 1;
nodes = (
(292,351,o),
(336,371,o),
(367,416,c),
(328,416,l),
(357,371,o),
(404,351,o),
(462,351,cs),
(570,351,o),
(634,419,o),
(634,531,cs),
(634,714,l),
(509,714,l),
(509,531,ls),
(509,485,o),
(493,464,o),
(459,464,cs),
(426,464,o),
(409,486,o),
(409,531,cs),
(409,714,l),
(285,714,l),
(285,531,ls),
(285,485,o),
(268,464,o),
(234,464,cs),
(201,464,o),
(185,486,o),
(185,531,cs),
(185,714,l),
(60,714,l),
(60,531,ls),
(60,417,o),
(125,351,o),
(233,351,cs)
);
}
);
};
layerId = "A1461942-0433-4891-A171-8512F51D8C86";
shapes = (
{
closed = 1;
nodes = (
(292,351,o),
(336,371,o),
(367,416,c),
(328,416,l),
(357,371,o),
(404,351,o),
(462,351,cs),
(570,351,o),
(634,419,o),
(634,531,cs),
(634,714,l),
(509,714,l),
(509,531,ls),
(509,485,o),
(493,464,o),
(459,464,cs),
(426,464,o),
(409,486,o),
(409,531,cs),
(409,714,l),
(285,714,l),
(285,531,ls),
(285,485,o),
(268,464,o),
(234,464,cs),
(201,464,o),
(185,486,o),
(185,531,cs),
(185,714,l),
(60,714,l),
(60,531,ls),
(60,417,o),
(125,351,o),
(233,351,cs)
);
}
);
width = 694;
},
{
background = {
shapes = (
{
closed = 1;
nodes = (
(215,351,o),
(249,388,o),
(258,447,c),
(251,447,l),
(262,385,o),
(299,351,o),
(349,351,cs),
(406,351,o),
(451,389,o),
(451,496,cs),
(451,714,l),
(429,714,l),
(429,495,ls),
(429,396,o),
(391,373,o),
(347,373,cs),
(303,373,o),
(266,398,o),
(266,494,cs),
(266,714,l),
(244,714,l),
(244,495,ls),
(244,396,o),
(206,373,o),
(162,373,cs),
(118,373,o),
(82,398,o),
(82,494,cs),
(82,714,l),
(60,714,l),
(60,493,ls),
(60,389,o),
(105,351,o),
(161,351,cs)
);
}
);
};
layerId = "341CD669-D84F-4333-8BC8-F9777E6D3814";
shapes = (
{
closed = 1;
nodes = (
(215,351,o),
(249,388,o),
(258,447,c),
(251,447,l),
(262,385,o),
(299,351,o),
(349,351,cs),
(406,351,o),
(451,389,o),
(451,496,cs),
(451,714,l),
(429,714,l),
(429,495,ls),
(429,396,o),
(391,373,o),
(347,373,cs),
(303,373,o),
(266,398,o),
(266,494,cs),
(266,714,l),
(244,714,l),
(244,495,ls),
(244,396,o),
(206,373,o),
(162,373,cs),
(118,373,o),
(82,398,o),
(82,494,cs),
(82,714,l),
(60,714,l),
(60,493,ls),
(60,389,o),
(105,351,o),
(161,351,cs)
);
}
);
width = 511;
},
{
background = {
shapes = (
{
closed = 1;
nodes = (
(209,351,o),
(235,368,o),
(266,416,c),
(231,416,l),
(258,367,o),
(287,351,o),
(333,351,cs),
(410,351,o),
(460,398,o),
(460,500,cs),
(460,714,l),
(350,714,l),
(350,504,ls),
(350,467,o),
(343,455,o),
(326,455,cs),
(309,455,o),
(301,468,o),
(301,504,cs),
(301,714,l),
(193,714,l),
(193,504,ls),
(193,468,o),
(185,455,o),
(168,455,cs),
(151,455,o),
(145,470,o),
(145,504,cs),
(145,714,l),
(35,714,l),
(35,500,ls),
(35,398,o),
(86,351,o),
(163,351,cs)
);
}
);
};
layerId = "4DD67900-F9B0-4F36-BC45-F4B21129580C";
shapes = (
{
closed = 1;
nodes = (
(209,351,o),
(235,368,o),
(266,416,c),
(231,416,l),
(258,367,o),
(287,351,o),
(333,351,cs),
(410,351,o),
(460,398,o),
(460,500,cs),
(460,714,l),
(350,714,l),
(350,504,ls),
(350,467,o),
(343,455,o),
(326,455,cs),
(309,455,o),
(301,468,o),
(301,504,cs),
(301,714,l),
(193,714,l),
(193,504,ls),
(193,468,o),
(185,455,o),
(168,455,cs),
(151,455,o),
(145,470,o),
(145,504,cs),
(145,714,l),
(35,714,l),
(35,500,ls),
(35,398,o),
(86,351,o),
(163,351,cs)
);
}
);
width = 495;
}
);
metricRight = "=|";
note = uni141C;
unicode = 5148;
},
{
color = 11;
glyphname = "ycreew-canadian";
lastChange = "2022-09-28 16:00:22 +0000";
layers = (
{
background = {
shapes = (
{
closed = 1;
nodes = (
(402,528,o),
(445,570,o),
(445,624,cs),
(445,678,o),
(404,720,o),
(350,720,cs),
(296,720,o),
(253,678,o),
(253,624,cs),
(253,570,o),
(296,528,o),
(349,528,cs)
);
},
{
closed = 1;
nodes = (
(234,351,o),
(277,393,o),
(277,447,cs),
(277,501,o),
(236,543,o),
(182,543,cs),
(128,543,o),
(85,501,o),
(85,447,cs),
(85,393,o),
(128,351,o),
(181,351,cs)
);
},
{
closed = 1;
nodes = (
(138,372,o),
(107,406,o),
(107,447,cs),
(107,488,o),
(138,522,o),
(181,522,cs),
(224,522,o),
(255,488,o),
(255,447,cs),
(255,406,o),
(224,372,o),
(181,372,cs)
);
},
{
closed = 1;
nodes = (
(306,549,o),
(275,583,o),
(275,624,cs),
(275,665,o),
(306,699,o),
(349,699,cs),
(392,699,o),
(423,665,o),
(423,624,cs),
(423,583,o),
(392,549,o),
(349,549,cs)
);
}
);
};
layerId = m01;
shapes = (
{
closed = 1;
nodes = (
(402,528,o),
(445,570,o),
(445,624,cs),
(445,678,o),
(404,720,o),
(350,720,cs),
(296,720,o),
(253,678,o),
(253,624,cs),
(253,570,o),
(296,528,o),
(349,528,cs)
);
},
{
closed = 1;
nodes = (
(234,351,o),
(277,393,o),
(277,447,cs),
(277,501,o),
(236,543,o),
(182,543,cs),
(128,543,o),
(85,501,o),
(85,447,cs),
(85,393,o),
(128,351,o),
(181,351,cs)
);
},
{
closed = 1;
nodes = (
(138,372,o),
(107,406,o),
(107,447,cs),
(107,488,o),
(138,522,o),
(181,522,cs),
(224,522,o),
(255,488,o),
(255,447,cs),
(255,406,o),
(224,372,o),
(181,372,cs)
);
},
{
closed = 1;
nodes = (
(306,549,o),
(275,583,o),
(275,624,cs),
(275,665,o),
(306,699,o),
(349,699,cs),
(392,699,o),
(423,665,o),
(423,624,cs),
(423,583,o),
(392,549,o),
(349,549,cs)
);
}
);
width = 530;
},
{
background = {
shapes = (
{
closed = 1;
nodes = (
(385,528,o),
(426,569,o),
(426,625,cs),
(426,680,o),
(384,720,o),
(327,720,cs),
(270,720,o),
(228,680,o),
(228,625,cs),
(228,569,o),
(269,528,o),
(327,528,cs)
);
},
{
closed = 1;
nodes = (
(207,351,o),
(248,392,o),
(248,448,cs),
(248,503,o),
(206,543,o),
(149,543,cs),
(92,543,o),
(50,503,o),
(50,448,cs),
(50,392,o),
(91,351,o),
(149,351,cs)
);
},
{
closed = 1;
nodes = (
(128,410,o),
(115,427,o),
(115,448,cs),
(115,468,o),
(128,484,o),
(149,484,cs),
(169,484,o),
(183,468,o),
(183,448,cs),
(183,427,o),
(169,410,o),
(149,410,cs)
);
},
{
closed = 1;
nodes = (
(305,587,o),
(293,604,o),
(293,625,cs),
(293,645,o),
(306,661,o),
(327,661,cs),
(347,661,o),
(361,645,o),
(361,625,cs),
(361,604,o),
(347,587,o),
(327,587,cs)
);
}
);
};
layerId = "A1461942-0433-4891-A171-8512F51D8C86";
shapes = (
{
closed = 1;
nodes = (
(385,528,o),
(426,569,o),
(426,625,cs),
(426,680,o),
(384,720,o),
(327,720,cs),
(270,720,o),
(228,680,o),
(228,625,cs),
(228,569,o),
(269,528,o),
(327,528,cs)
);
},
{
closed = 1;
nodes = (
(207,351,o),
(248,392,o),
(248,448,cs),
(248,503,o),
(206,543,o),
(149,543,cs),
(92,543,o),
(50,503,o),
(50,448,cs),
(50,392,o),
(91,351,o),
(149,351,cs)
);
},
{
closed = 1;
nodes = (
(128,410,o),
(115,427,o),
(115,448,cs),
(115,468,o),
(128,484,o),
(149,484,cs),
(169,484,o),
(183,468,o),
(183,448,cs),
(183,427,o),
(169,410,o),
(149,410,cs)
);
},
{
closed = 1;
nodes = (
(305,587,o),
(293,604,o),
(293,625,cs),
(293,645,o),
(306,661,o),
(327,661,cs),
(347,661,o),
(361,645,o),
(361,625,cs),
(361,604,o),
(347,587,o),
(327,587,cs)
);
}
);
width = 476;
},
{
background = {
shapes = (
{
closed = 1;
nodes = (
(286,528,o),
(313,564,o),
(313,624,cs),
(313,684,o),
(286,720,o),
(245,720,cs),
(204,720,o),
(177,684,o),
(177,624,cs),
(177,564,o),
(204,528,o),
(245,528,cs)
);
},
{
closed = 1;
nodes = (
(169,351,o),
(196,387,o),
(196,447,cs),
(196,507,o),
(169,543,o),
(128,543,cs),
(87,543,o),
(60,507,o),
(60,447,cs),
(60,387,o),
(87,351,o),
(128,351,cs)
);
},
{
closed = 1;
nodes = (
(98,371,o),
(81,397,o),
(81,447,cs),
(81,497,o),
(98,523,o),
(128,523,cs),
(158,523,o),
(175,497,o),
(175,447,cs),
(175,397,o),
(158,371,o),
(128,371,cs)
);
},
{
closed = 1;
nodes = (
(215,548,o),
(198,574,o),
(198,624,cs),
(198,674,o),
(215,700,o),
(245,700,cs),
(275,700,o),
(292,674,o),
(292,624,cs),
(292,574,o),
(275,548,o),
(245,548,cs)
);
}
);
};
layerId = "341CD669-D84F-4333-8BC8-F9777E6D3814";
shapes = (
{
closed = 1;
nodes = (
(286,528,o),
(313,564,o),
(313,624,cs),
(313,684,o),
(286,720,o),
(245,720,cs),
(204,720,o),
(177,684,o),
(177,624,cs),
(177,564,o),
(204,528,o),
(245,528,cs)
);
},
{
closed = 1;
nodes = (
(169,351,o),
(196,387,o),
(196,447,cs),
(196,507,o),
(169,543,o),
(128,543,cs),
(87,543,o),
(60,507,o),
(60,447,cs),
(60,387,o),
(87,351,o),
(128,351,cs)
);
},
{
closed = 1;
nodes = (
(98,371,o),
(81,397,o),
(81,447,cs),
(81,497,o),
(98,523,o),
(128,523,cs),
(158,523,o),
(175,497,o),
(175,447,cs),
(175,397,o),
(158,371,o),
(128,371,cs)
);
},
{
closed = 1;
nodes = (
(215,548,o),
(198,574,o),
(198,624,cs),
(198,674,o),
(215,700,o),
(245,700,cs),
(275,700,o),
(292,674,o),
(292,624,cs),
(292,574,o),
(275,548,o),
(245,548,cs)
);
}
);
width = 373;
},
{
background = {
shapes = (
{
closed = 1;
nodes = (
(281,528,o),
(310,564,o),
(310,625,cs),
(310,686,o),
(279,720,o),
(238,720,cs),
(196,720,o),
(166,686,o),
(166,625,cs),
(166,564,o),
(195,528,o),
(238,528,cs)
);
},
{
closed = 1;
nodes = (
(150,351,o),
(179,387,o),
(179,448,cs),
(179,509,o),
(148,543,o),
(107,543,cs),
(65,543,o),
(35,509,o),
(35,448,cs),
(35,387,o),
(64,351,o),
(107,351,cs)
);
},
{
closed = 1;
nodes = (
(97,406,o),
(90,416,o),
(90,448,cs),
(90,480,o),
(97,488,o),
(107,488,cs),
(117,488,o),
(124,480,o),
(124,448,cs),
(124,416,o),
(117,406,o),
(107,406,cs)
);
},
{
closed = 1;
nodes = (
(228,583,o),
(221,593,o),
(221,625,cs),
(221,657,o),
(228,665,o),
(238,665,cs),
(248,665,o),
(255,657,o),
(255,625,cs),
(255,593,o),
(248,583,o),
(238,583,cs)
);
}
);
};
layerId = "4DD67900-F9B0-4F36-BC45-F4B21129580C";
shapes = (
{
closed = 1;
nodes = (
(281,528,o),
(310,564,o),
(310,625,cs),
(310,686,o),
(279,720,o),
(238,720,cs),
(196,720,o),
(166,686,o),
(166,625,cs),
(166,564,o),
(195,528,o),
(238,528,cs)
);
},
{
closed = 1;
nodes = (
(150,351,o),
(179,387,o),
(179,448,cs),
(179,509,o),
(148,543,o),
(107,543,cs),
(65,543,o),
(35,509,o),
(35,448,cs),
(35,387,o),
(64,351,o),
(107,351,cs)
);
},
{
closed = 1;
nodes = (
(97,406,o),
(90,416,o),
(90,448,cs),
(90,480,o),
(97,488,o),
(107,488,cs),
(117,488,o),
(124,480,o),
(124,448,cs),
(124,416,o),
(117,406,o),
(107,406,cs)
);
},
{
closed = 1;
nodes = (
(228,583,o),
(221,593,o),
(221,625,cs),
(221,657,o),
(228,665,o),
(238,665,cs),
(248,665,o),
(255,657,o),
(255,625,cs),
(255,593,o),
(248,583,o),
(238,583,cs)
);
}
);
width = 345;
}
);
metricRight = "=|";
note = uni141D;
unicode = 5149;
},
{
color = 2;
glyphname = "glottalstop-canadian";
lastChange = "2022-09-29 19:42:11 +0000";
layers = (
{
background = {
shapes = (
{
closed = 1;
nodes = (
(428,357,l),
(428,366,l),
(261,714,l),
(247,714,l),
(80,366,l),
(80,357,l)
);
},
{
closed = 1;
nodes = (
(264,700,l),
(244,700,l),
(405,364,l),
(413,378,l),
(95,378,l),
(103,364,l)
);
}
);
};
layerId = m01;
shapes = (
{
closed = 1;
nodes = (
(428,357,l),
(428,366,l),
(261,714,l),
(247,714,l),
(80,366,l),
(80,357,l)
);
},
{
closed = 1;
nodes = (
(264,700,l),
(244,700,l),
(405,364,l),
(413,378,l),
(95,378,l),
(103,364,l)
);
}
);
width = 508;
},
{
background = {
shapes = (
{
closed = 1;
nodes = (
(432,357,l),
(432,380,l),
(250,714,l),
(222,714,l),
(40,380,l),
(40,357,l)
);
},
{
closed = 1;
nodes = (
(262,588,l),
(207,588,l),
(300,415,l),
(328,452,l),
(144,452,l),
(168,415,l)
);
}
);
};
layerId = "A1461942-0433-4891-A171-8512F51D8C86";
shapes = (
{
closed = 1;
nodes = (
(432,357,l),
(432,380,l),
(250,714,l),
(222,714,l),
(40,380,l),
(40,357,l)
);
},
{
closed = 1;
nodes = (
(262,588,l),
(207,588,l),
(300,415,l),
(328,452,l),
(144,452,l),
(168,415,l)
);
}
);
width = 472;
},
{
background = {
shapes = (
{
closed = 1;
nodes = (
(302,357,l),
(302,366,l),
(185,714,l),
(175,714,l),
(57,366,l),
(57,357,l)
);
},
{
closed = 1;
nodes = (
(187,691,l),
(173,691,l),
(281,364,l),
(288,379,l),
(71,379,l),
(78,364,l)
);
}
);
};
layerId = "341CD669-D84F-4333-8BC8-F9777E6D3814";
shapes = (
{
closed = 1;
nodes = (
(302,357,l),
(302,366,l),
(185,714,l),
(175,714,l),
(57,366,l),
(57,357,l)
);
},
{
closed = 1;
nodes = (
(187,691,l),
(173,691,l),
(281,364,l),
(288,379,l),
(71,379,l),
(78,364,l)
);
}
);
width = 359;
},
{
background = {
shapes = (
{
closed = 1;
nodes = (
(322,357,l),
(322,379,l),
(187,714,l),
(163,714,l),
(28,379,l),
(28,357,l)
);
},
{
closed = 1;
nodes = (
(201,595,l),
(150,595,l),
(218,412,l),
(232,442,l),
(121,442,l),
(132,412,l)
);
}
);
};
layerId = "4DD67900-F9B0-4F36-BC45-F4B21129580C";
shapes = (
{
closed = 1;
nodes = (
(322,357,l),
(322,379,l),
(187,714,l),
(163,714,l),
(28,379,l),
(28,357,l)
);
},
{
closed = 1;
nodes = (
(201,595,l),
(150,595,l),
(218,412,l),
(232,442,l),
(121,442,l),
(132,412,l)
);
}
);
width = 350;
}
);
metricRight = "=|";
note = uni141E;
unicode = 5150;
},
{
color = 2;
glyphname = "pe-canadian";
kernLeft = ecanleft;
kernRight = ecanright;
lastChange = "2022-10-04 10:33:39 +0000";
layers = (
{
anchors = (
{
name = middle_center_can;
pos = (387,470);
},
{
name = top_center_can;
pos = (387,714);
},
{
name = top_left_can;
pos = (130,714);
},
{
name = top_right_can;
pos = (645,714);
}
);
background = {
anchors = (
{
name = middle_center_can;
pos = (387,470);
},
{
name = top_center_can;
pos = (387,714);
},
{
name = top_left_can;
pos = (130,714);
},
{
name = top_right_can;
pos = (645,714);
}
);
shapes = (
{
closed = 1;
nodes = (
(405,0,l),
(740,701,l),
(740,714,l),
(717,714,l),
(389,19,l),
(396,19,l),
(68,714,l),
(45,714,l),
(45,701,l),
(380,0,l)
);
}
);
};
layerId = m01;
shapes = (
{
closed = 1;
nodes = (
(405,0,l),
(740,701,l),
(740,714,l),
(717,714,l),
(389,19,l),
(396,19,l),
(68,714,l),
(45,714,l),
(45,701,l),
(380,0,l)
);
}
);
width = 785;
},
{
anchors = (
{
name = middle_center_can;
pos = (420,470);
},
{
name = top_center_can;
pos = (420,714);
},
{
name = top_left_can;
pos = (163,714);
},
{
name = top_right_can;
pos = (678,714);
}
);
background = {
shapes = (
{
closed = 1;
nodes = (
(448,0,l),
(812,669,l),
(812,714,l),
(629,714,l),
(377,242,l),
(472,242,l),
(224,714,l),
(28,714,l),
(28,669,l),
(392,0,l)
);
}
);
};
layerId = "A1461942-0433-4891-A171-8512F51D8C86";
shapes = (
{
closed = 1;
nodes = (
(448,0,l),
(812,669,l),
(812,714,l),
(629,714,l),
(377,242,l),
(472,242,l),
(224,714,l),
(28,714,l),
(28,669,l),
(392,0,l)
);
}
);
width = 840;
},
{
anchors = (
{
name = middle_center_can;
pos = (276,470);
},
{
name = top_center_can;
pos = (276,714);
},
{
name = top_left_can;
pos = (97,714);
},
{
name = top_right_can;
pos = (457,714);
}
);
background = {
anchors = (
{
name = middle_center_can;
pos = (276,470);
},
{
name = top_center_can;
pos = (276,714);
},
{
name = top_left_can;
pos = (97,714);
},
{
name = top_right_can;
pos = (457,714);
}
);
shapes = (
{
closed = 1;
nodes = (
(289,0,l),
(525,701,l),
(525,714,l),
(503,714,l),
(275,27,l),
(285,27,l),
(57,714,l),
(35,714,l),
(35,701,l),
(271,0,l)
);
}
);
};
layerId = "341CD669-D84F-4333-8BC8-F9777E6D3814";
shapes = (
{
closed = 1;
nodes = (
(289,0,l),
(525,701,l),
(525,714,l),
(503,714,l),
(275,27,l),
(285,27,l),
(57,714,l),
(35,714,l),
(35,701,l),
(271,0,l)
);
}
);
width = 560;
},
{
anchors = (
{
name = middle_center_can;
pos = (307,470);
},
{
name = top_center_can;
pos = (307,714);
},
{
name = top_left_can;
pos = (122,714);
},
{
name = top_right_can;
pos = (492,714);
}
);
background = {
shapes = (
{
closed = 1;
nodes = (
(329,0,l),
(599,671,l),
(599,714,l),
(439,714,l),
(245,212,l),
(371,212,l),
(175,714,l),
(11,714,l),
(11,671,l),
(281,0,l)
);
}
);
};
guides = (
{
angle = 248.0809;
pos = (440,714);
},
{
angle = -68.0809;
pos = (183,714);
}
);
layerId = "4DD67900-F9B0-4F36-BC45-F4B21129580C";
shapes = (
{
closed = 1;
nodes = (
(329,0,l),
(599,671,l),
(599,714,l),
(439,714,l),
(245,212,l),
(371,212,l),
(175,714,l),
(11,714,l),
(11,671,l),
(281,0,l)
);
}
);
width = 610;
}
);
metricLeft = "e-canadian";
metricRight = "e-canadian";
note = uni142F;
unicode = 5167;
},
{
color = 2;
glyphname = "pi-canadian";
kernLeft = icanleft;
kernRight = icanright;
lastChange = "2022-10-04 10:33:45 +0000";
layers = (
{
anchors = (
{
name = middle_center_can;
pos = (387,470);
},
{
name = top_center_can;
pos = (387,714);
},
{
name = top_left_can;
pos = (130,714);
},
{
name = top_right_can;
pos = (645,714);
}
);
background = {
anchors = (
{
name = middle_center_can;
pos = (387,470);
},
{
name = top_center_can;
pos = (387,714);
},
{
name = top_left_can;
pos = (130,714);
},
{
name = top_right_can;
pos = (645,714);
}
);
shapes = (
{
closed = 1;
nodes = (
(68,0,l),
(396,695,l),
(389,695,l),
(717,0,l),
(740,0,l),
(740,13,l),
(405,714,l),
(380,714,l),
(45,13,l),
(45,0,l)
);
}
);
};
layerId = m01;
shapes = (
{
closed = 1;
nodes = (
(68,0,l),
(396,695,l),
(389,695,l),
(717,0,l),
(740,0,l),
(740,13,l),
(405,714,l),
(380,714,l),
(45,13,l),
(45,0,l)
);
}
);
width = 785;
},
{
anchors = (
{
name = middle_center_can;
pos = (420,237);
},
{
name = top_center_can;
pos = (420,714);
},
{
name = top_left_can;
pos = (163,714);
},
{
name = top_right_can;
pos = (678,714);
}
);
background = {
shapes = (
{
closed = 1;
nodes = (
(214,0,l),
(469,472,l),
(372,472,l),
(619,0,l),
(812,0,l),
(812,45,l),
(448,714,l),
(392,714,l),
(28,45,l),
(28,0,l)
);
}
);
};
layerId = "A1461942-0433-4891-A171-8512F51D8C86";
shapes = (
{
closed = 1;
nodes = (
(214,0,l),
(469,472,l),
(372,472,l),
(619,0,l),
(812,0,l),
(812,45,l),
(448,714,l),
(392,714,l),
(28,45,l),
(28,0,l)
);
}
);
width = 840;
},
{
anchors = (
{
name = middle_center_can;
pos = (276,471);
},
{
name = top_center_can;
pos = (276,714);
},
{
name = top_left_can;
pos = (97,714);
},
{
name = top_right_can;
pos = (457,714);
}
);
background = {
anchors = (
{
name = middle_center_can;
pos = (276,471);
},
{
name = top_center_can;
pos = (276,714);
},
{
name = top_left_can;
pos = (97,714);
},
{
name = top_right_can;
pos = (457,714);
}
);
shapes = (
{
closed = 1;
nodes = (
(57,0,l),
(285,687,l),
(275,687,l),
(503,0,l),
(525,0,l),
(525,13,l),
(289,714,l),
(271,714,l),
(35,13,l),
(35,0,l)
);
}
);
};
layerId = "341CD669-D84F-4333-8BC8-F9777E6D3814";
shapes = (
{
closed = 1;
nodes = (
(57,0,l),
(285,687,l),
(275,687,l),
(503,0,l),
(525,0,l),
(525,13,l),
(289,714,l),
(271,714,l),
(35,13,l),
(35,0,l)
);
}
);
width = 560;
},
{
anchors = (
{
name = middle_center_can;
pos = (307,251);
},
{
name = top_center_can;
pos = (307,714);
},
{
name = top_left_can;
pos = (122,714);
},
{
name = top_right_can;
pos = (492,714);
}
);
background = {
shapes = (
{
closed = 1;
nodes = (
(173,0,l),
(367,502,l),
(241,502,l),
(437,0,l),
(599,0,l),
(599,43,l),
(329,714,l),
(281,714,l),
(11,43,l),
(11,0,l)
);
}
);
};
layerId = "4DD67900-F9B0-4F36-BC45-F4B21129580C";
shapes = (
{
closed = 1;
nodes = (
(173,0,l),
(367,502,l),
(241,502,l),
(437,0,l),
(599,0,l),
(599,43,l),
(329,714,l),
(281,714,l),
(11,43,l),
(11,0,l)
);
}
);
width = 610;
}
);
metricLeft = "e-canadian";
metricRight = "e-canadian";
note = uni1431;
unicode = 5169;
},
{
color = 4;
glyphname = "po-canadian";
kernLeft = ocanleft;
kernRight = ocanright;
lastChange = "2022-10-03 15:41:29 +0000";
layers = (
{
anchors = (
{
name = middle_center_can;
pos = (281,357);
},
{
name = top_center_can;
pos = (383,714);
},
{
name = top_double;
pos = (472,714);
},
{
name = top_left_can;
pos = (88,714);
},
{
name = top_right_can;
pos = (661,714);
}
);
background = {
anchors = (
{
name = middle_center_can;
pos = (281,357);
},
{
name = top_center_can;
pos = (383,714);
},
{
name = top_double;
pos = (472,714);
},
{
name = top_left_can;
pos = (88,714);
},
{
name = top_right_can;
pos = (661,714);
}
);
shapes = (
{
closed = 1;
nodes = (
(88,0,l),
(691,347,l),
(691,367,l),
(88,714,l),
(75,714,l),
(75,694,l),
(672,351,l),
(672,363,l),
(75,20,l),
(75,0,l)
);
}
);
};
layerId = m01;
shapes = (
{
closed = 1;
nodes = (
(88,0,l),
(691,347,l),
(691,367,l),
(88,714,l),
(75,714,l),
(75,694,l),
(672,351,l),
(672,363,l),
(75,20,l),
(75,0,l)
);
}
);
width = 736;
},
{
anchors = (
{
name = middle_center_can;
pos = (181,357);
},
{
name = top_center_can;
pos = (373,714);
},
{
name = top_double;
pos = (502,714);
},
{
name = top_left_can;
pos = (128,714);
},
{
name = top_right_can;
pos = (631,714);
}
);
background = {
anchors = (
{
name = middle_center_can;
pos = (181,357);
},
{
name = top_center_can;
pos = (373,714);
},
{
name = top_double;
pos = (502,714);
},
{
name = top_left_can;
pos = (128,714);
},
{
name = top_right_can;
pos = (631,714);
}
);
shapes = (
{
closed = 1;
nodes = (
(90,0,l),
(700,329,l),
(700,385,l),
(90,714,l),
(45,714,l),
(45,531,l),
(456,315,l),
(456,401,l),
(45,185,l),
(45,0,l)
);
}
);
};
layerId = "A1461942-0433-4891-A171-8512F51D8C86";
shapes = (
{
closed = 1;
nodes = (
(90,0,l),
(700,329,l),
(700,385,l),
(90,714,l),
(45,714,l),
(45,531,l),
(456,315,l),
(456,401,l),
(45,185,l),
(45,0,l)
);
}
);
width = 728;
},
{
anchors = (
{
name = middle_center_can;
pos = (192,357);
},
{
name = top_center_can;
pos = (267,714);
},
{
name = top_double;
pos = (342,714);
},
{
name = top_left_can;
pos = (62,714);
},
{
name = top_right_can;
pos = (460,714);
}
);
background = {
anchors = (
{
name = middle_center_can;
pos = (192,357);
},
{
name = top_center_can;
pos = (267,714);
},
{
name = top_double;
pos = (342,714);
},
{
name = top_left_can;
pos = (62,714);
},
{
name = top_right_can;
pos = (460,714);
}
);
shapes = (
{
closed = 1;
nodes = (
(61,0,l),
(483,348,l),
(483,366,l),
(61,714,l),
(50,714,l),
(50,693,l),
(469,349,l),
(469,365,l),
(50,21,l),
(50,0,l)
);
}
);
};
layerId = "341CD669-D84F-4333-8BC8-F9777E6D3814";
shapes = (
{
closed = 1;
nodes = (
(61,0,l),
(483,348,l),
(483,366,l),
(61,714,l),
(50,714,l),
(50,693,l),
(469,349,l),
(469,365,l),
(50,21,l),
(50,0,l)
);
}
);
width = 518;
},
{
anchors = (
{
name = middle_center_can;
pos = (127,357);
},
{
name = top_center_can;
pos = (267,714);
},
{
name = top_double;
pos = (390,714);
},
{
name = top_left_can;
pos = (105,714);
},
{
name = top_right_can;
pos = (456,714);
}
);
background = {
anchors = (
{
name = middle_center_can;
pos = (127,357);
},
{
name = top_center_can;
pos = (267,714);
},
{
name = top_double;
pos = (390,714);
},
{
name = top_left_can;
pos = (105,714);
},
{
name = top_right_can;
pos = (456,714);
}
);
shapes = (
{
closed = 1;
nodes = (
(68,0,l),
(526,330,l),
(526,384,l),
(68,714,l),
(27,714,l),
(27,542,l),
(342,318,l),
(342,398,l),
(27,174,l),
(27,0,l)
);
}
);
};
guides = (
{
angle = 143.0047;
pos = (386,285);
}
);
layerId = "4DD67900-F9B0-4F36-BC45-F4B21129580C";
shapes = (
{
closed = 1;
nodes = (
(68,0,l),
(526,330,l),
(526,384,l),
(68,714,l),
(27,714,l),
(27,542,l),
(342,318,l),
(342,398,l),
(27,174,l),
(27,0,l)
);
}
);
width = 549;
}
);
metricRight = "o-canadian";
note = uni1433;
unicode = 5171;
},
{
color = 2;
glyphname = "pa-canadian";
kernLeft = acanleft;
kernRight = acanright;
lastChange = "2022-10-03 15:41:57 +0000";
layers = (
{
anchors = (
{
name = middle_center_can;
pos = (271,357);
},
{
name = top_center_can;
pos = (353,714);
},
{
name = top_left_can;
pos = (58,714);
},
{
name = top_right_can;
pos = (648,714);
}
);
background = {
anchors = (
{
name = middle_center_can;
pos = (271,357);
},
{
name = top_center_can;
pos = (353,714);
},
{
name = top_left_can;
pos = (58,714);
},
{
name = top_right_can;
pos = (648,714);
}
);
shapes = (
{
closed = 1;
nodes = (
(661,0,l),
(661,20,l),
(64,363,l),
(64,351,l),
(661,694,l),
(661,714,l),
(648,714,l),
(45,367,l),
(45,347,l),
(648,0,l)
);
}
);
};
layerId = m01;
shapes = (
{
closed = 1;
nodes = (
(661,0,l),
(661,20,l),
(64,363,l),
(64,351,l),
(661,694,l),
(661,714,l),
(648,714,l),
(45,367,l),
(45,347,l),
(648,0,l)
);
}
);
width = 736;
},
{
anchors = (
{
name = middle_center_can;
pos = (457,357);
},
{
name = top_center_can;
pos = (356,714);
},
{
name = top_left_can;
pos = (111,714);
},
{
name = top_right_can;
pos = (600,714);
}
);
background = {
anchors = (
{
name = middle_center_can;
pos = (457,357);
},
{
name = top_center_can;
pos = (356,714);
},
{
name = top_left_can;
pos = (111,714);
},
{
name = top_right_can;
pos = (600,714);
}
);
shapes = (
{
closed = 1;
nodes = (
(683,0,l),
(683,183,l),
(272,399,l),
(272,313,l),
(683,529,l),
(683,714,l),
(638,714,l),
(28,385,l),
(28,329,l),
(638,0,l)
);
}
);
};
layerId = "A1461942-0433-4891-A171-8512F51D8C86";
shapes = (
{
closed = 1;
nodes = (
(683,0,l),
(683,183,l),
(272,399,l),
(272,313,l),
(683,529,l),
(683,714,l),
(638,714,l),
(28,385,l),
(28,329,l),
(638,0,l)
);
}
);
width = 728;
},
{
anchors = (
{
name = middle_center_can;
pos = (202,357);
},
{
name = top_center_can;
pos = (252,714);
},
{
name = top_left_can;
pos = (47,714);
},
{
name = top_right_can;
pos = (456,714);
}
);
background = {
anchors = (
{
name = middle_center_can;
pos = (202,357);
},
{
name = top_center_can;
pos = (252,714);
},
{
name = top_left_can;
pos = (47,714);
},
{
name = top_right_can;
pos = (456,714);
}
);
shapes = (
{
closed = 1;
nodes = (
(468,0,l),
(468,21,l),
(49,365,l),
(49,349,l),
(468,693,l),
(468,714,l),
(457,714,l),
(35,366,l),
(35,348,l),
(457,0,l)
);
}
);
};
layerId = "341CD669-D84F-4333-8BC8-F9777E6D3814";
shapes = (
{
closed = 1;
nodes = (
(468,0,l),
(468,21,l),
(49,365,l),
(49,349,l),
(468,693,l),
(468,714,l),
(457,714,l),
(35,366,l),
(35,348,l),
(457,0,l)
);
}
);
width = 518;
},
{
anchors = (
{
name = middle_center_can;
pos = (407,357);
},
{
name = top_center_can;
pos = (284,714);
},
{
name = top_left_can;
pos = (112,714);
},
{
name = top_right_can;
pos = (445,714);
}
);
background = {
anchors = (
{
name = middle_center_can;
pos = (407,357);
},
{
name = top_center_can;
pos = (284,714);
},
{
name = top_left_can;
pos = (112,714);
},
{
name = top_right_can;
pos = (445,714);
}
);
shapes = (
{
closed = 1;
nodes = (
(481,714,l),
(23,384,l),
(23,330,l),
(481,0,l),
(522,0,l),
(522,172,l),
(207,396,l),
(207,316,l),
(522,540,l),
(522,714,l)
);
}
);
};
layerId = "4DD67900-F9B0-4F36-BC45-F4B21129580C";
shapes = (
{
closed = 1;
nodes = (
(522,0,l),
(522,172,l),
(207,396,l),
(207,316,l),
(522,540,l),
(522,714,l),
(481,714,l),
(23,384,l),
(23,330,l),
(481,0,l)
);
}
);
width = 549;
}
);
metricRight = "=|po-canadian";
note = uni1438;
unicode = 5176;
},
{
color = 2;
glyphname = "p-canadian";
kernLeft = mwestleft;
kernRight = mwestright;
lastChange = "2022-10-03 19:13:13 +0000";
layers = (
{
background = {
shapes = (
{
closed = 1;
nodes = (
(393,357,l),
(393,376,l),
(105,542,l),
(105,530,l),
(393,695,l),
(393,714,l),
(381,714,l),
(85,543,l),
(85,529,l),
(381,357,l)
);
}
);
};
layerId = m01;
shapes = (
{
closed = 1;
nodes = (
(393,357,l),
(393,376,l),
(105,542,l),
(105,530,l),
(393,695,l),
(393,714,l),
(381,714,l),
(85,543,l),
(85,529,l),
(381,357,l)
);
}
);
width = 478;
},
{
background = {
shapes = (
{
closed = 1;
nodes = (
(388,357,l),
(388,479,l),
(182,587,l),
(182,483,l),
(388,591,l),
(388,714,l),
(365,714,l),
(60,550,l),
(60,522,l),
(365,357,l)
);
}
);
};
layerId = "A1461942-0433-4891-A171-8512F51D8C86";
shapes = (
{
closed = 1;
nodes = (
(388,357,l),
(388,479,l),
(182,587,l),
(182,483,l),
(388,591,l),
(388,714,l),
(365,714,l),
(60,550,l),
(60,522,l),
(365,357,l)
);
}
);
width = 448;
},
{
background = {
shapes = (
{
closed = 1;
nodes = (
(276,357,l),
(276,377,l),
(77,542,l),
(77,530,l),
(276,694,l),
(276,714,l),
(268,714,l),
(60,543,l),
(60,529,l),
(268,357,l)
);
}
);
};
layerId = "341CD669-D84F-4333-8BC8-F9777E6D3814";
shapes = (
{
closed = 1;
nodes = (
(276,357,l),
(276,377,l),
(77,542,l),
(77,530,l),
(276,694,l),
(276,714,l),
(268,714,l),
(60,543,l),
(60,529,l),
(268,357,l)
);
}
);
width = 336;
},
{
background = {
shapes = (
{
closed = 1;
nodes = (
(276,357,l),
(276,468,l),
(125,580,l),
(125,490,l),
(276,601,l),
(276,714,l),
(257,714,l),
(35,550,l),
(35,522,l),
(257,357,l)
);
}
);
};
layerId = "4DD67900-F9B0-4F36-BC45-F4B21129580C";
shapes = (
{
closed = 1;
nodes = (
(276,357,l),
(276,468,l),
(125,580,l),
(125,490,l),
(276,601,l),
(276,714,l),
(257,714,l),
(35,550,l),
(35,522,l),
(257,357,l)
);
}
);
width = 311;
}
);
note = uni1449;
unicode = 5193;
},
{
color = 2;
glyphname = "pWestCree-canadian";
kernLeft = mwestleft;
kernRight = mwestright;
lastChange = "2022-10-04 13:18:28 +0000";
layers = (
{
background = {
shapes = (
{
closed = 1;
nodes = (
(109,357,l),
(109,714,l),
(85,714,l),
(85,357,l)
);
}
);
};
layerId = m01;
shapes = (
{
closed = 1;
nodes = (
(109,357,l),
(109,714,l),
(85,714,l),
(85,357,l)
);
}
);
width = 194;
},
{
background = {
shapes = (
{
closed = 1;
nodes = (
(193,357,l),
(193,714,l),
(60,714,l),
(60,357,l)
);
}
);
};
layerId = "A1461942-0433-4891-A171-8512F51D8C86";
shapes = (
{
closed = 1;
nodes = (
(193,357,l),
(193,714,l),
(60,714,l),
(60,357,l)
);
}
);
width = 253;
},
{
background = {
shapes = (
{
closed = 1;
nodes = (
(82,357,l),
(82,714,l),
(60,714,l),
(60,357,l)
);
}
);
};
layerId = "341CD669-D84F-4333-8BC8-F9777E6D3814";
shapes = (
{
closed = 1;
nodes = (
(82,357,l),
(82,714,l),
(60,714,l),
(60,357,l)
);
}
);
width = 142;
},
{
background = {
shapes = (
{
closed = 1;
nodes = (
(153,357,l),
(153,714,l),
(35,714,l),
(35,357,l)
);
}
);
};
layerId = "4DD67900-F9B0-4F36-BC45-F4B21129580C";
shapes = (
{
closed = 1;
nodes = (
(153,357,l),
(153,714,l),
(35,714,l),
(35,357,l)
);
}
);
width = 188;
}
);
metricRight = "=|";
note = uni144A;
unicode = 5194;
},
{
color = 2;
glyphname = "hCarrier-canadian";
lastChange = "2022-09-28 16:00:22 +0000";
layers = (
{
background = {
shapes = (
{
closed = 1;
nodes = (
(109,189,l),
(109,335,ls),
(109,392,o),
(148,426,o),
(205,426,cs),
(258,426,o),
(288,395,o),
(288,330,cs),
(288,189,l),
(312,189,l),
(312,335,ls),
(312,406,o),
(271,448,o),
(204,448,cs),
(148,448,o),
(102,413,o),
(98,359,c),
(109,359,l),
(109,546,l),
(85,546,l),
(85,189,l)
);
}
);
};
color = 6;
layerId = m01;
shapes = (
{
closed = 1;
nodes = (
(109,189,l),
(109,335,ls),
(109,392,o),
(148,426,o),
(205,426,cs),
(258,426,o),
(288,395,o),
(288,330,cs),
(288,189,l),
(312,189,l),
(312,335,ls),
(312,406,o),
(271,448,o),
(204,448,cs),
(148,448,o),
(102,413,o),
(98,359,c),
(109,359,l),
(109,546,l),
(85,546,l),
(85,189,l)
);
}
);
width = 372;
},
{
background = {
shapes = (
{
closed = 1;
nodes = (
(193,189,l),
(193,279,ls),
(193,313,o),
(208,332,o),
(235,332,cs),
(260,332,o),
(272,314,o),
(272,277,cs),
(272,189,l),
(405,189,l),
(405,303,ls),
(405,407,o),
(335,453,o),
(262,453,cs),
(214,453,o),
(173,430,o),
(163,404,c),
(193,378,l),
(193,546,l),
(60,546,l),
(60,189,l)
);
}
);
};
color = 6;
layerId = "A1461942-0433-4891-A171-8512F51D8C86";
shapes = (
{
closed = 1;
nodes = (
(193,189,l),
(193,279,ls),
(193,313,o),
(208,332,o),
(235,332,cs),
(260,332,o),
(272,314,o),
(272,277,cs),
(272,189,l),
(405,189,l),
(405,303,ls),
(405,407,o),
(335,453,o),
(262,453,cs),
(214,453,o),
(173,430,o),
(163,404,c),
(193,378,l),
(193,546,l),
(60,546,l),
(60,189,l)
);
}
);
width = 440;
},
{
background = {
shapes = (
{
closed = 1;
nodes = (
(82,189,l),
(82,355,ls),
(82,400,o),
(106,427,o),
(147,427,cs),
(185,427,o),
(203,402,o),
(203,350,cs),
(203,189,l),
(225,189,l),
(225,355,ls),
(225,414,o),
(196,448,o),
(147,448,cs),
(104,448,o),
(74,417,o),
(73,372,c),
(82,372,l),
(82,546,l),
(60,546,l),
(60,189,l)
);
}
);
};
color = 6;
layerId = "341CD669-D84F-4333-8BC8-F9777E6D3814";
shapes = (
{
closed = 1;
nodes = (
(82,189,l),
(82,355,ls),
(82,400,o),
(106,427,o),
(147,427,cs),
(185,427,o),
(203,402,o),
(203,350,cs),
(203,189,l),
(225,189,l),
(225,355,ls),
(225,414,o),
(196,448,o),
(147,448,cs),
(104,448,o),
(74,417,o),
(73,372,c),
(82,372,l),
(82,546,l),
(60,546,l),
(60,189,l)
);
}
);
width = 266;
},
{
background = {
shapes = (
{
closed = 1;
nodes = (
(153,189,l),
(153,309,ls),
(153,334,o),
(160,349,o),
(178,349,cs),
(194,349,o),
(201,336,o),
(201,317,cs),
(201,189,l),
(319,189,l),
(319,335,ls),
(319,427,o),
(257,453,o),
(216,453,cs),
(172,453,o),
(141,429,o),
(132,401,c),
(153,377,l),
(153,546,l),
(35,546,l),
(35,189,l)
);
}
);
};
color = 6;
layerId = "4DD67900-F9B0-4F36-BC45-F4B21129580C";
shapes = (
{
closed = 1;
nodes = (
(153,189,l),
(153,309,ls),
(153,334,o),
(160,349,o),
(178,349,cs),
(194,349,o),
(201,336,o),
(201,317,cs),
(201,189,l),
(319,189,l),
(319,335,ls),
(319,427,o),
(257,453,o),
(216,453,cs),
(172,453,o),
(141,429,o),
(132,401,c),
(153,377,l),
(153,546,l),
(35,546,l),
(35,189,l)
);
}
);
width = 344;
}
);
metricLeft = "pWestCree-canadian";
note = uni144B;
unicode = 5195;
},
{
color = 2;
glyphname = "te-canadian";
lastChange = "2022-09-29 19:43:12 +0000";
layers = (
{
anchors = (
{
name = middle_center_can;
pos = (390,357);
},
{
name = top_center_can;
pos = (390,714);
},
{
name = top_left_can;
pos = (103,714);
},
{
name = top_right_can;
pos = (677,714);
}
);
background = {
anchors = (
{
name = middle_center_can;
pos = (390,357);
},
{
name = top_center_can;
pos = (390,714);
},
{
name = top_left_can;
pos = (103,714);
},
{
name = top_right_can;
pos = (677,714);
}
);
shapes = (
{
closed = 1;
nodes = (
(574,-12,o),
(690,115,o),
(690,329,cs),
(690,714,l),
(664,714,l),
(664,325,ls),
(664,127,o),
(561,14,o),
(390,14,cs),
(222,14,o),
(116,127,o),
(116,324,cs),
(116,714,l),
(90,714,l),
(90,323,ls),
(90,115,o),
(209,-12,o),
(390,-12,cs)
);
}
);
};
layerId = m01;
shapes = (
{
closed = 1;
nodes = (
(574,-12,o),
(690,115,o),
(690,329,cs),
(690,714,l),
(664,714,l),
(664,325,ls),
(664,127,o),
(561,14,o),
(390,14,cs),
(222,14,o),
(116,127,o),
(116,324,cs),
(116,714,l),
(90,714,l),
(90,323,ls),
(90,115,o),
(209,-12,o),
(390,-12,cs)
);
}
);
width = 780;
},
{
anchors = (
{
name = middle_center_can;
pos = (414,357);
},
{
name = top_center_can;
pos = (414,714);
},
{
name = top_left_can;
pos = (157,714);
},
{
name = top_right_can;
pos = (672,714);
}
);
background = {
anchors = (
{
name = middle_center_can;
pos = (414,357);
},
{
name = top_center_can;
pos = (414,714);
},
{
name = top_left_can;
pos = (157,714);
},
{
name = top_right_can;
pos = (672,714);
}
);
shapes = (
{
closed = 1;
nodes = (
(635,-15,o),
(768,121,o),
(768,347,cs),
(768,714,l),
(575,714,l),
(575,346,ls),
(575,220,o),
(521,157,o),
(414,157,cs),
(310,157,o),
(253,224,o),
(253,346,cs),
(253,714,l),
(60,714,l),
(60,347,ls),
(60,117,o),
(190,-15,o),
(415,-15,cs)
);
}
);
};
layerId = "A1461942-0433-4891-A171-8512F51D8C86";
shapes = (
{
closed = 1;
nodes = (
(635,-15,o),
(768,121,o),
(768,347,cs),
(768,714,l),
(575,714,l),
(575,346,ls),
(575,220,o),
(521,157,o),
(414,157,cs),
(310,157,o),
(253,224,o),
(253,346,cs),
(253,714,l),
(60,714,l),
(60,347,ls),
(60,117,o),
(190,-15,o),
(415,-15,cs)
);
}
);
width = 828;
},
{
anchors = (
{
name = middle_center_can;
pos = (282,357);
},
{
name = top_center_can;
pos = (282,714);
},
{
name = top_left_can;
pos = (83,714);
},
{
name = top_right_can;
pos = (482,714);
}
);
background = {
anchors = (
{
name = middle_center_can;
pos = (282,357);
},
{
name = top_center_can;
pos = (282,714);
},
{
name = top_left_can;
pos = (83,714);
},
{
name = top_right_can;
pos = (482,714);
}
);
shapes = (
{
closed = 1;
nodes = (
(414,-12,o),
(495,73,o),
(495,242,cs),
(495,714,l),
(470,714,l),
(470,240,ls),
(470,84,o),
(401,13,o),
(282,13,cs),
(166,13,o),
(95,86,o),
(95,239,cs),
(95,714,l),
(70,714,l),
(70,238,ls),
(70,74,o),
(154,-12,o),
(282,-12,cs)
);
}
);
};
layerId = "341CD669-D84F-4333-8BC8-F9777E6D3814";
shapes = (
{
closed = 1;
nodes = (
(414,-12,o),
(495,73,o),
(495,242,cs),
(495,714,l),
(470,714,l),
(470,240,ls),
(470,84,o),
(401,13,o),
(282,13,cs),
(166,13,o),
(95,86,o),
(95,239,cs),
(95,714,l),
(70,714,l),
(70,238,ls),
(70,74,o),
(154,-12,o),
(282,-12,cs)
);
}
);
width = 565;
},
{
anchors = (
{
name = middle_center_can;
pos = (309,357);
},
{
name = top_center_can;
pos = (309,714);
},
{
name = top_left_can;
pos = (132,714);
},
{
name = top_right_can;
pos = (487,714);
}
);
background = {
anchors = (
{
name = middle_center_can;
pos = (309,357);
},
{
name = top_center_can;
pos = (309,714);
},
{
name = top_left_can;
pos = (132,714);
},
{
name = top_right_can;
pos = (487,714);
}
);
shapes = (
{
closed = 1;
nodes = (
(485,-15,o),
(578,85,o),
(578,276,cs),
(578,714,l),
(395,714,l),
(395,280,ls),
(395,188,o),
(368,153,o),
(309,153,cs),
(253,153,o),
(223,191,o),
(223,280,cs),
(223,714,l),
(40,714,l),
(40,276,ls),
(40,85,o),
(137,-15,o),
(310,-15,cs)
);
}
);
};
layerId = "4DD67900-F9B0-4F36-BC45-F4B21129580C";
shapes = (
{
closed = 1;
nodes = (
(485,-15,o),
(578,85,o),
(578,276,cs),
(578,714,l),
(395,714,l),
(395,280,ls),
(395,188,o),
(368,153,o),
(309,153,cs),
(253,153,o),
(223,191,o),
(223,280,cs),
(223,714,l),
(40,714,l),
(40,276,ls),
(40,85,o),
(137,-15,o),
(310,-15,cs)
);
}
);
width = 618;
}
);
metricRight = "=|";
note = uni144C;
unicode = 5196;
},
{
color = 2;
glyphname = "ti-canadian";
lastChange = "2022-09-29 19:43:17 +0000";
layers = (
{
anchors = (
{
name = middle_center_can;
pos = (390,357);
},
{
name = middle_right_can;
pos = (903,357);
},
{
name = top_center_can;
pos = (390,714);
},
{
name = top_left_can;
pos = (103,714);
},
{
name = top_right_can;
pos = (677,714);
}
);
background = {
anchors = (
{
name = middle_center_can;
pos = (390,357);
},
{
name = middle_right_can;
pos = (903,357);
},
{
name = top_center_can;
pos = (390,714);
},
{
name = top_left_can;
pos = (103,714);
},
{
name = top_right_can;
pos = (677,714);
}
);
shapes = (
{
closed = 1;
nodes = (
(116,0,l),
(116,389,ls),
(116,587,o),
(219,700,o),
(390,700,cs),
(558,700,o),
(664,587,o),
(664,390,cs),
(664,0,l),
(690,0,l),
(690,391,ls),
(690,599,o),
(571,726,o),
(390,726,cs),
(206,726,o),
(90,599,o),
(90,385,cs),
(90,0,l)
);
}
);
};
layerId = m01;
shapes = (
{
closed = 1;
nodes = (
(116,0,l),
(116,389,ls),
(116,587,o),
(219,700,o),
(390,700,cs),
(558,700,o),
(664,587,o),
(664,390,cs),
(664,0,l),
(690,0,l),
(690,391,ls),
(690,599,o),
(571,726,o),
(390,726,cs),
(206,726,o),
(90,599,o),
(90,385,cs),
(90,0,l)
);
}
);
width = 780;
},
{
anchors = (
{
name = middle_center_can;
pos = (414,357);
},
{
name = middle_right_can;
pos = (928,357);
},
{
name = top_center_can;
pos = (414,714);
},
{
name = top_left_can;
pos = (157,714);
},
{
name = top_right_can;
pos = (672,714);
}
);
background = {
anchors = (
{
name = middle_center_can;
pos = (414,357);
},
{
name = middle_right_can;
pos = (928,357);
},
{
name = top_center_can;
pos = (414,714);
},
{
name = top_left_can;
pos = (157,714);
},
{
name = top_right_can;
pos = (672,714);
}
);
shapes = (
{
closed = 1;
nodes = (
(253,0,l),
(253,368,ls),
(253,490,o),
(316,557,o),
(419,557,cs),
(520,557,o),
(575,490,o),
(575,368,cs),
(575,0,l),
(768,0,l),
(768,367,ls),
(768,595,o),
(639,729,o),
(424,729,cs),
(199,729,o),
(60,595,o),
(60,368,cs),
(60,0,l)
);
}
);
};
layerId = "A1461942-0433-4891-A171-8512F51D8C86";
shapes = (
{
closed = 1;
nodes = (
(253,0,l),
(253,368,ls),
(253,490,o),
(316,557,o),
(419,557,cs),
(520,557,o),
(575,490,o),
(575,368,cs),
(575,0,l),
(768,0,l),
(768,367,ls),
(768,595,o),
(639,729,o),
(424,729,cs),
(199,729,o),
(60,595,o),
(60,368,cs),
(60,0,l)
);
}
);
width = 828;
},
{
anchors = (
{
name = middle_center_can;
pos = (282,357);
},
{
name = middle_right_can;
pos = (587,357);
},
{
name = top_center_can;
pos = (282,714);
},
{
name = top_left_can;
pos = (83,714);
},
{
name = top_right_can;
pos = (482,714);
}
);
background = {
anchors = (
{
name = middle_center_can;
pos = (282,357);
},
{
name = middle_right_can;
pos = (587,357);
},
{
name = top_center_can;
pos = (282,714);
},
{
name = top_left_can;
pos = (83,714);
},
{
name = top_right_can;
pos = (482,714);
}
);
shapes = (
{
closed = 1;
nodes = (
(95,0,l),
(95,474,ls),
(95,630,o),
(164,701,o),
(283,701,cs),
(399,701,o),
(470,628,o),
(470,475,cs),
(470,0,l),
(495,0,l),
(495,476,ls),
(495,640,o),
(411,726,o),
(283,726,cs),
(151,726,o),
(70,641,o),
(70,472,cs),
(70,0,l)
);
}
);
};
layerId = "341CD669-D84F-4333-8BC8-F9777E6D3814";
shapes = (
{
closed = 1;
nodes = (
(95,0,l),
(95,474,ls),
(95,630,o),
(164,701,o),
(283,701,cs),
(399,701,o),
(470,628,o),
(470,475,cs),
(470,0,l),
(495,0,l),
(495,476,ls),
(495,640,o),
(411,726,o),
(283,726,cs),
(151,726,o),
(70,641,o),
(70,472,cs),
(70,0,l)
);
}
);
width = 565;
},
{
anchors = (
{
name = middle_center_can;
pos = (309,357);
},
{
name = middle_right_can;
pos = (701,357);
},
{
name = top_center_can;
pos = (309,714);
},
{
name = top_left_can;
pos = (132,714);
},
{
name = top_right_can;
pos = (487,714);
}
);
background = {
anchors = (
{
name = middle_center_can;
pos = (309,357);
},
{
name = middle_right_can;
pos = (701,357);
},
{
name = top_center_can;
pos = (309,714);
},
{
name = top_left_can;
pos = (132,714);
},
{
name = top_right_can;
pos = (487,714);
}
);
shapes = (
{
closed = 1;
nodes = (
(223,0,l),
(223,434,ls),
(223,526,o),
(250,561,o),
(309,561,cs),
(365,561,o),
(395,523,o),
(395,434,cs),
(395,0,l),
(578,0,l),
(578,438,ls),
(578,629,o),
(483,729,o),
(308,729,cs),
(143,729,o),
(40,629,o),
(40,438,cs),
(40,0,l)
);
}
);
};
layerId = "4DD67900-F9B0-4F36-BC45-F4B21129580C";
shapes = (
{
closed = 1;
nodes = (
(223,0,l),
(223,434,ls),
(223,526,o),
(250,561,o),
(309,561,cs),
(365,561,o),
(395,523,o),
(395,434,cs),
(395,0,l),
(578,0,l),
(578,438,ls),
(578,629,o),
(483,729,o),
(308,729,cs),
(143,729,o),
(40,629,o),
(40,438,cs),
(40,0,l)
);
}
);
width = 618;
}
);
metricLeft = "te-canadian";
metricRight = "te-canadian";
note = uni144E;
unicode = 5198;
},
{
color = 2;
glyphname = "to-canadian";
kernLeft = toleft;
lastChange = "2022-10-03 15:42:20 +0000";
layers = (
{
anchors = (
{
name = middle_center_can;
pos = (317,357);
},
{
name = middle_right_can;
pos = (797,357);
},
{
name = top_center_can;
pos = (300,714);
},
{
name = top_double;
pos = (346,714);
},
{
name = top_left_can;
pos = (88,714);
},
{
name = top_right_can;
pos = (571,714);
}
);
background = {
anchors = (
{
name = middle_center_can;
pos = (317,357);
},
{
name = middle_right_can;
pos = (797,357);
},
{
name = top_center_can;
pos = (300,714);
},
{
name = top_double;
pos = (346,714);
},
{
name = top_left_can;
pos = (88,714);
},
{
name = top_right_can;
pos = (571,714);
}
);
shapes = (
{
closed = 1;
nodes = (
(246,0,ls),
(456,0,o),
(584,140,o),
(584,358,cs),
(584,576,o),
(456,714,o),
(240,714,cs),
(75,714,l),
(75,689,l),
(244,689,ls),
(444,689,o),
(558,564,o),
(558,358,cs),
(558,152,o),
(444,25,o),
(245,25,cs),
(75,25,l),
(75,0,l)
);
}
);
};
layerId = m01;
shapes = (
{
closed = 1;
nodes = (
(246,0,ls),
(456,0,o),
(584,140,o),
(584,358,cs),
(584,576,o),
(456,714,o),
(240,714,cs),
(75,714,l),
(75,689,l),
(244,689,ls),
(444,689,o),
(558,564,o),
(558,358,cs),
(558,152,o),
(444,25,o),
(245,25,cs),
(75,25,l),
(75,0,l)
);
}
);
width = 669;
},
{
anchors = (
{
name = middle_center_can;
pos = (259,357);
},
{
name = middle_right_can;
pos = (814,357);
},
{
name = top_center_can;
pos = (325,714);
},
{
name = top_double;
pos = (441,714);
},
{
name = top_left_can;
pos = (138,714);
},
{
name = top_right_can;
pos = (571,714);
}
);
background = {
anchors = (
{
name = middle_center_can;
pos = (259,357);
},
{
name = middle_right_can;
pos = (814,357);
},
{
name = top_center_can;
pos = (325,714);
},
{
name = top_double;
pos = (441,714);
},
{
name = top_left_can;
pos = (138,714);
},
{
name = top_right_can;
pos = (571,714);
}
);
shapes = (
{
closed = 1;
nodes = (
(279,0,ls),
(517,0,o),
(654,135,o),
(654,358,cs),
(654,581,o),
(517,714,o),
(279,714,cs),
(55,714,l),
(55,543,l),
(264,543,ls),
(389,543,o),
(461,481,o),
(461,358,cs),
(461,235,o),
(389,171,o),
(264,171,cs),
(55,171,l),
(55,0,l)
);
}
);
};
layerId = "A1461942-0433-4891-A171-8512F51D8C86";
shapes = (
{
closed = 1;
nodes = (
(279,0,ls),
(517,0,o),
(654,135,o),
(654,358,cs),
(654,581,o),
(517,714,o),
(279,714,cs),
(55,714,l),
(55,543,l),
(264,543,ls),
(389,543,o),
(461,481,o),
(461,358,cs),
(461,235,o),
(389,171,o),
(264,171,cs),
(55,171,l),
(55,0,l)
);
}
);
width = 709;
},
{
anchors = (
{
name = middle_center_can;
pos = (218,357);
},
{
name = middle_right_can;
pos = (502,357);
},
{
name = top_center_can;
pos = (210,714);
},
{
name = top_double;
pos = (246,714);
},
{
name = top_left_can;
pos = (62,714);
},
{
name = top_right_can;
pos = (398,714);
}
);
background = {
anchors = (
{
name = middle_center_can;
pos = (218,357);
},
{
name = middle_right_can;
pos = (502,357);
},
{
name = top_center_can;
pos = (210,714);
},
{
name = top_double;
pos = (246,714);
},
{
name = top_left_can;
pos = (62,714);
},
{
name = top_right_can;
pos = (398,714);
}
);
shapes = (
{
closed = 1;
nodes = (
(138,0,ls),
(330,0,o),
(410,130,o),
(410,358,cs),
(410,586,o),
(330,714,o),
(132,714,cs),
(50,714,l),
(50,690,l),
(132,690,ls),
(317,690,o),
(385,574,o),
(385,358,cs),
(385,144,o),
(317,24,o),
(138,24,cs),
(50,24,l),
(50,0,l)
);
}
);
};
layerId = "341CD669-D84F-4333-8BC8-F9777E6D3814";
shapes = (
{
closed = 1;
nodes = (
(138,0,ls),
(330,0,o),
(410,130,o),
(410,358,cs),
(410,586,o),
(330,714,o),
(132,714,cs),
(50,714,l),
(50,690,l),
(132,690,ls),
(317,690,o),
(385,574,o),
(385,358,cs),
(385,144,o),
(317,24,o),
(138,24,cs),
(50,24,l),
(50,0,l)
);
}
);
width = 470;
},
{
anchors = (
{
name = middle_center_can;
pos = (166,357);
},
{
name = middle_right_can;
pos = (607,357);
},
{
name = top_center_can;
pos = (235,714);
},
{
name = top_double;
pos = (316,714);
},
{
name = top_left_can;
pos = (107,714);
},
{
name = top_right_can;
pos = (406,714);
}
);
background = {
anchors = (
{
name = middle_center_can;
pos = (166,357);
},
{
name = middle_right_can;
pos = (607,357);
},
{
name = top_center_can;
pos = (235,714);
},
{
name = top_double;
pos = (316,714);
},
{
name = top_left_can;
pos = (107,714);
},
{
name = top_right_can;
pos = (406,714);
}
);
shapes = (
{
closed = 1;
nodes = (
(126,0,ls),
(348,0,o),
(484,113,o),
(484,358,cs),
(484,603,o),
(348,714,o),
(126,714,cs),
(29,714,l),
(29,547,l),
(129,547,ls),
(230,547,o),
(301,501,o),
(301,358,cs),
(301,215,o),
(230,167,o),
(129,167,cs),
(29,167,l),
(29,0,l)
);
}
);
};
layerId = "4DD67900-F9B0-4F36-BC45-F4B21129580C";
shapes = (
{
closed = 1;
nodes = (
(126,0,ls),
(348,0,o),
(484,113,o),
(484,358,cs),
(484,603,o),
(348,714,o),
(126,714,cs),
(29,714,l),
(29,547,l),
(129,547,ls),
(230,547,o),
(301,501,o),
(301,358,cs),
(301,215,o),
(230,167,o),
(129,167,cs),
(29,167,l),
(29,0,l)
);
}
);
width = 519;
}
);
note = uni1450;
unicode = 5200;
},
{
color = 2;
glyphname = "ta-canadian";
kernRight = taright;
lastChange = "2022-10-03 15:42:37 +0000";
layers = (
{
anchors = (
{
name = middle_center_can;
pos = (353,357);
},
{
name = top_center_can;
pos = (369,714);
},
{
name = top_left_can;
pos = (98,714);
},
{
name = top_right_can;
pos = (581,714);
}
);
background = {
anchors = (
{
name = middle_center_can;
pos = (353,357);
},
{
name = top_center_can;
pos = (369,714);
},
{
name = top_left_can;
pos = (98,714);
},
{
name = top_right_can;
pos = (581,714);
}
);
shapes = (
{
closed = 1;
nodes = (
(594,0,l),
(594,25,l),
(424,25,ls),
(225,25,o),
(111,152,o),
(111,358,cs),
(111,564,o),
(225,689,o),
(425,689,cs),
(594,689,l),
(594,714,l),
(429,714,ls),
(213,714,o),
(85,576,o),
(85,358,cs),
(85,140,o),
(213,0,o),
(423,0,cs)
);
}
);
};
layerId = m01;
shapes = (
{
closed = 1;
nodes = (
(594,0,l),
(594,25,l),
(424,25,ls),
(225,25,o),
(111,152,o),
(111,358,cs),
(111,564,o),
(225,689,o),
(425,689,cs),
(594,689,l),
(594,714,l),
(429,714,ls),
(213,714,o),
(85,576,o),
(85,358,cs),
(85,140,o),
(213,0,o),
(423,0,cs)
);
}
);
width = 669;
},
{
anchors = (
{
name = middle_center_can;
pos = (450,357);
},
{
name = top_center_can;
pos = (385,714);
},
{
name = top_left_can;
pos = (138,714);
},
{
name = top_right_can;
pos = (571,714);
}
);
background = {
anchors = (
{
name = middle_center_can;
pos = (450,357);
},
{
name = top_center_can;
pos = (385,714);
},
{
name = top_left_can;
pos = (138,714);
},
{
name = top_right_can;
pos = (571,714);
}
);
shapes = (
{
closed = 1;
nodes = (
(654,0,l),
(654,171,l),
(445,171,ls),
(320,171,o),
(248,235,o),
(248,358,cs),
(248,481,o),
(320,543,o),
(445,543,cs),
(654,543,l),
(654,714,l),
(430,714,ls),
(192,714,o),
(55,581,o),
(55,358,cs),
(55,135,o),
(192,0,o),
(430,0,cs)
);
}
);
};
layerId = "A1461942-0433-4891-A171-8512F51D8C86";
shapes = (
{
closed = 1;
nodes = (
(654,0,l),
(654,171,l),
(445,171,ls),
(320,171,o),
(248,235,o),
(248,358,cs),
(248,481,o),
(320,543,o),
(445,543,cs),
(654,543,l),
(654,714,l),
(430,714,ls),
(192,714,o),
(55,581,o),
(55,358,cs),
(55,135,o),
(192,0,o),
(430,0,cs)
);
}
);
width = 709;
},
{
anchors = (
{
name = middle_center_can;
pos = (253,357);
},
{
name = top_center_can;
pos = (261,714);
},
{
name = top_left_can;
pos = (72,714);
},
{
name = top_right_can;
pos = (408,714);
}
);
background = {
anchors = (
{
name = middle_center_can;
pos = (253,357);
},
{
name = top_center_can;
pos = (261,714);
},
{
name = top_left_can;
pos = (72,714);
},
{
name = top_right_can;
pos = (408,714);
}
);
shapes = (
{
closed = 1;
nodes = (
(420,0,l),
(420,24,l),
(338,24,ls),
(153,24,o),
(85,140,o),
(85,356,cs),
(85,570,o),
(153,690,o),
(332,690,cs),
(420,690,l),
(420,714,l),
(332,714,ls),
(140,714,o),
(60,584,o),
(60,356,cs),
(60,128,o),
(140,0,o),
(338,0,cs)
);
}
);
};
layerId = "341CD669-D84F-4333-8BC8-F9777E6D3814";
shapes = (
{
closed = 1;
nodes = (
(420,0,l),
(420,24,l),
(338,24,ls),
(153,24,o),
(85,140,o),
(85,356,cs),
(85,570,o),
(153,690,o),
(332,690,cs),
(420,690,l),
(420,714,l),
(332,714,ls),
(140,714,o),
(60,584,o),
(60,356,cs),
(60,128,o),
(140,0,o),
(338,0,cs)
);
}
);
width = 470;
},
{
anchors = (
{
name = middle_center_can;
pos = (353,357);
},
{
name = top_center_can;
pos = (285,714);
},
{
name = top_left_can;
pos = (113,714);
},
{
name = top_right_can;
pos = (412,714);
}
);
background = {
anchors = (
{
name = middle_center_can;
pos = (353,357);
},
{
name = top_center_can;
pos = (285,714);
},
{
name = top_left_can;
pos = (113,714);
},
{
name = top_right_can;
pos = (412,714);
}
);
shapes = (
{
closed = 1;
nodes = (
(490,0,l),
(490,167,l),
(390,167,ls),
(289,167,o),
(219,213,o),
(219,356,cs),
(219,499,o),
(289,547,o),
(390,547,cs),
(490,547,l),
(490,714,l),
(393,714,ls),
(171,714,o),
(35,601,o),
(35,356,cs),
(35,111,o),
(171,0,o),
(393,0,cs)
);
}
);
};
layerId = "4DD67900-F9B0-4F36-BC45-F4B21129580C";
shapes = (
{
closed = 1;
nodes = (
(490,0,l),
(490,167,l),
(390,167,ls),
(289,167,o),
(219,213,o),
(219,356,cs),
(219,499,o),
(289,547,o),
(390,547,cs),
(490,547,l),
(490,714,l),
(393,714,ls),
(171,714,o),
(35,601,o),
(35,356,cs),
(35,111,o),
(171,0,o),
(393,0,cs)
);
}
);
width = 519;
}
);
metricLeft = "==|theCarrier-canadian";
metricRight = "==|to-canadian";
note = uni1455;
unicode = 5205;
},
{
color = 2;
glyphname = "t-canadian";
kernLeft = mwestleft;
kernRight = mwestright;
lastChange = "2022-10-04 14:26:12 +0000";
layers = (
{
background = {
shapes = (
{
closed = 1;
nodes = (
(340,357,l),
(340,379,l),
(259,379,ls),
(160,379,o),
(108,436,o),
(108,535,cs),
(108,634,o),
(160,692,o),
(259,692,cs),
(340,692,l),
(340,714,l),
(256,714,ls),
(149,714,o),
(85,644,o),
(85,535,cs),
(85,426,o),
(149,357,o),
(259,357,cs)
);
}
);
};
layerId = m01;
shapes = (
{
closed = 1;
nodes = (
(340,357,l),
(340,379,l),
(259,379,ls),
(160,379,o),
(108,436,o),
(108,535,cs),
(108,634,o),
(160,692,o),
(259,692,cs),
(340,692,l),
(340,714,l),
(256,714,ls),
(149,714,o),
(85,644,o),
(85,535,cs),
(85,426,o),
(149,357,o),
(259,357,cs)
);
}
);
width = 420;
},
{
background = {
shapes = (
{
closed = 1;
nodes = (
(360,357,l),
(360,479,l),
(255,479,ls),
(209,479,o),
(185,497,o),
(185,535,cs),
(185,572,o),
(209,592,o),
(255,592,cs),
(360,592,l),
(360,714,l),
(248,714,ls),
(119,714,o),
(50,646,o),
(50,535,cs),
(50,423,o),
(119,357,o),
(248,357,cs)
);
}
);
};
layerId = "A1461942-0433-4891-A171-8512F51D8C86";
shapes = (
{
closed = 1;
nodes = (
(360,357,l),
(360,479,l),
(255,479,ls),
(209,479,o),
(185,497,o),
(185,535,cs),
(185,572,o),
(209,592,o),
(255,592,cs),
(360,592,l),
(360,714,l),
(248,714,ls),
(119,714,o),
(50,646,o),
(50,535,cs),
(50,423,o),
(119,357,o),
(248,357,cs)
);
}
);
width = 420;
},
{
background = {
shapes = (
{
closed = 1;
nodes = (
(240,357,l),
(240,379,l),
(219,379,ls),
(125,379,o),
(83,431,o),
(83,535,cs),
(83,637,o),
(125,692,o),
(219,692,cs),
(240,692,l),
(240,714,l),
(216,714,ls),
(112,714,o),
(60,649,o),
(60,535,cs),
(60,421,o),
(112,357,o),
(218,357,cs)
);
}
);
};
layerId = "341CD669-D84F-4333-8BC8-F9777E6D3814";
shapes = (
{
closed = 1;
nodes = (
(240,357,l),
(240,379,l),
(219,379,ls),
(125,379,o),
(83,431,o),
(83,535,cs),
(83,637,o),
(125,692,o),
(219,692,cs),
(240,692,l),
(240,714,l),
(216,714,ls),
(112,714,o),
(60,649,o),
(60,535,cs),
(60,421,o),
(112,357,o),
(218,357,cs)
);
}
);
width = 295;
},
{
background = {
shapes = (
{
closed = 1;
nodes = (
(258,357,l),
(258,469,l),
(216,469,ls),
(173,469,o),
(148,493,o),
(148,535,cs),
(148,577,o),
(173,602,o),
(216,602,cs),
(258,602,l),
(258,714,l),
(204,714,ls),
(95,714,o),
(30,642,o),
(30,535,cs),
(30,428,o),
(95,357,o),
(204,357,cs)
);
}
);
};
layerId = "4DD67900-F9B0-4F36-BC45-F4B21129580C";
shapes = (
{
closed = 1;
nodes = (
(258,357,l),
(258,469,l),
(216,469,ls),
(173,469,o),
(148,493,o),
(148,535,cs),
(148,577,o),
(173,602,o),
(216,602,cs),
(258,602,l),
(258,714,l),
(204,714,ls),
(95,714,o),
(30,642,o),
(30,535,cs),
(30,428,o),
(95,357,o),
(204,357,cs)
);
}
);
width = 293;
}
);
note = uni1466;
unicode = 5222;
},
{
color = 2;
glyphname = "ke-canadian";
lastChange = "2022-09-29 19:45:18 +0000";
layers = (
{
anchors = (
{
name = middle_center_can;
pos = (355,457);
},
{
name = top_center_can;
pos = (323,714);
},
{
name = top_left_can;
pos = (103,714);
},
{
name = top_right_can;
pos = (543,714);
}
);
background = {
anchors = (
{
name = middle_center_can;
pos = (355,457);
},
{
name = top_center_can;
pos = (323,714);
},
{
name = top_left_can;
pos = (103,714);
},
{
name = top_right_can;
pos = (543,714);
}
);
shapes = (
{
closed = 1;
nodes = (
(556,0,l),
(556,469,ls),
(556,626,o),
(465,726,o),
(323,726,cs),
(182,726,o),
(90,625,o),
(90,472,cs),
(90,321,o),
(184,221,o),
(323,221,cs),
(433,221,o),
(516,286,o),
(536,377,c),
(530,384,l),
(530,0,l)
);
},
{
closed = 1;
nodes = (
(198,246,o),
(116,334,o),
(116,474,cs),
(116,612,o),
(196,701,o),
(323,701,cs),
(451,701,o),
(530,614,o),
(530,474,cs),
(530,335,o),
(450,246,o),
(323,246,cs)
);
}
);
};
layerId = m01;
shapes = (
{
closed = 1;
nodes = (
(556,0,l),
(556,469,ls),
(556,626,o),
(465,726,o),
(323,726,cs),
(182,726,o),
(90,625,o),
(90,472,cs),
(90,321,o),
(184,221,o),
(323,221,cs),
(433,221,o),
(516,286,o),
(536,377,c),
(530,384,l),
(530,0,l)
);
},
{
closed = 1;
nodes = (
(198,246,o),
(116,334,o),
(116,474,cs),
(116,612,o),
(196,701,o),
(323,701,cs),
(451,701,o),
(530,614,o),
(530,474,cs),
(530,335,o),
(450,246,o),
(323,246,cs)
);
}
);
width = 646;
},
{
anchors = (
{
name = middle_center_can;
pos = (326,457);
},
{
name = top_center_can;
pos = (326,714);
},
{
name = top_left_can;
pos = (135,714);
},
{
name = top_right_can;
pos = (516,714);
}
);
background = {
anchors = (
{
name = middle_center_can;
pos = (326,457);
},
{
name = top_center_can;
pos = (326,714);
},
{
name = top_left_can;
pos = (135,714);
},
{
name = top_right_can;
pos = (516,714);
}
);
shapes = (
{
closed = 1;
nodes = (
(612,0,l),
(612,443,ls),
(612,618,o),
(504,729,o),
(330,729,cs),
(158,729,o),
(40,620,o),
(40,452,cs),
(40,292,o),
(148,185,o),
(298,185,cs),
(369,185,o),
(423,213,o),
(433,240,c),
(419,248,l),
(419,0,l)
);
},
{
closed = 1;
nodes = (
(269,347,o),
(229,387,o),
(229,457,cs),
(229,527,o),
(266,567,o),
(326,567,cs),
(386,567,o),
(423,527,o),
(423,457,cs),
(423,387,o),
(383,347,o),
(326,347,cs)
);
}
);
};
layerId = "A1461942-0433-4891-A171-8512F51D8C86";
shapes = (
{
closed = 1;
nodes = (
(612,0,l),
(612,443,ls),
(612,618,o),
(504,729,o),
(330,729,cs),
(158,729,o),
(40,620,o),
(40,452,cs),
(40,292,o),
(148,185,o),
(298,185,cs),
(369,185,o),
(423,213,o),
(433,240,c),
(419,248,l),
(419,0,l)
);
},
{
closed = 1;
nodes = (
(269,347,o),
(229,387,o),
(229,457,cs),
(229,527,o),
(266,567,o),
(326,567,cs),
(386,567,o),
(423,527,o),
(423,457,cs),
(423,387,o),
(383,347,o),
(326,347,cs)
);
}
);
width = 672;
},
{
anchors = (
{
name = middle_center_can;
pos = (252,457);
},
{
name = top_center_can;
pos = (230,714);
},
{
name = top_left_can;
pos = (78,714);
},
{
name = top_right_can;
pos = (383,714);
}
);
background = {
anchors = (
{
name = middle_center_can;
pos = (252,457);
},
{
name = top_center_can;
pos = (230,714);
},
{
name = top_left_can;
pos = (78,714);
},
{
name = top_right_can;
pos = (383,714);
}
);
shapes = (
{
closed = 1;
nodes = (
(396,0,l),
(396,469,ls),
(396,638,o),
(338,726,o),
(231,726,cs),
(125,726,o),
(65,638,o),
(65,472,cs),
(65,310,o),
(126,221,o),
(231,221,cs),
(307,221,o),
(362,275,o),
(375,356,c),
(371,385,l),
(371,0,l)
);
},
{
closed = 1;
nodes = (
(138,245,o),
(90,323,o),
(90,474,cs),
(90,625,o),
(138,702,o),
(231,702,cs),
(324,702,o),
(371,626,o),
(371,474,cs),
(371,323,o),
(323,245,o),
(231,245,cs)
);
}
);
};
layerId = "341CD669-D84F-4333-8BC8-F9777E6D3814";
shapes = (
{
closed = 1;
nodes = (
(396,0,l),
(396,469,ls),
(396,638,o),
(338,726,o),
(231,726,cs),
(125,726,o),
(65,638,o),
(65,472,cs),
(65,310,o),
(126,221,o),
(231,221,cs),
(307,221,o),
(362,275,o),
(375,356,c),
(371,385,l),
(371,0,l)
);
},
{
closed = 1;
nodes = (
(138,245,o),
(90,323,o),
(90,474,cs),
(90,625,o),
(138,702,o),
(231,702,cs),
(324,702,o),
(371,626,o),
(371,474,cs),
(371,323,o),
(323,245,o),
(231,245,cs)
);
}
);
width = 466;
},
{
anchors = (
{
name = middle_center_can;
pos = (251,457);
},
{
name = top_center_can;
pos = (252,714);
},
{
name = top_left_can;
pos = (119,714);
},
{
name = top_right_can;
pos = (383,714);
}
);
background = {
anchors = (
{
name = middle_center_can;
pos = (251,457);
},
{
name = top_center_can;
pos = (252,714);
},
{
name = top_left_can;
pos = (119,714);
},
{
name = top_right_can;
pos = (383,714);
}
);
shapes = (
{
closed = 1;
nodes = (
(473,0,l),
(473,454,ls),
(473,629,o),
(399,729,o),
(257,729,cs),
(115,729,o),
(29,623,o),
(29,452,cs),
(29,293,o),
(108,185,o),
(224,185,cs),
(267,185,o),
(298,210,o),
(306,230,c),
(290,254,l),
(290,0,l)
);
},
{
closed = 1;
nodes = (
(228,339,o),
(208,367,o),
(208,457,cs),
(208,547,o),
(225,575,o),
(251,575,cs),
(276,575,o),
(294,548,o),
(294,457,cs),
(294,366,o),
(273,339,o),
(251,339,cs)
);
}
);
};
layerId = "4DD67900-F9B0-4F36-BC45-F4B21129580C";
shapes = (
{
closed = 1;
nodes = (
(473,0,l),
(473,454,ls),
(473,629,o),
(399,729,o),
(257,729,cs),
(115,729,o),
(29,623,o),
(29,452,cs),
(29,293,o),
(108,185,o),
(224,185,cs),
(267,185,o),
(298,210,o),
(306,230,c),
(290,254,l),
(290,0,l)
);
},
{
closed = 1;
nodes = (
(228,339,o),
(208,367,o),
(208,457,cs),
(208,547,o),
(225,575,o),
(251,575,cs),
(276,575,o),
(294,548,o),
(294,457,cs),
(294,366,o),
(273,339,o),
(251,339,cs)
);
}
);
width = 513;
}
);
metricRight = "te-canadian";
note = uni146B;
unicode = 5227;
},
{
color = 2;
glyphname = "ki-canadian";
lastChange = "2022-09-29 19:45:23 +0000";
layers = (
{
anchors = (
{
name = middle_center_can;
pos = (355,457);
},
{
name = top_center_can;
pos = (323,714);
},
{
name = top_left_can;
pos = (103,714);
},
{
name = top_right_can;
pos = (543,714);
}
);
background = {
anchors = (
{
name = middle_center_can;
pos = (355,457);
},
{
name = top_center_can;
pos = (323,714);
},
{
name = top_left_can;
pos = (103,714);
},
{
name = top_right_can;
pos = (543,714);
}
);
shapes = (
{
closed = 1;
nodes = (
(116,0,l),
(116,384,l),
(110,377,l),
(131,286,o),
(213,221,o),
(323,221,cs),
(462,221,o),
(556,321,o),
(556,474,cs),
(556,625,o),
(464,726,o),
(323,726,cs),
(181,726,o),
(90,626,o),
(90,469,cs),
(90,0,l)
);
},
{
closed = 1;
nodes = (
(196,246,o),
(116,335,o),
(116,474,cs),
(116,614,o),
(195,701,o),
(323,701,cs),
(450,701,o),
(530,612,o),
(530,474,cs),
(530,334,o),
(448,246,o),
(323,246,cs)
);
}
);
};
layerId = m01;
shapes = (
{
closed = 1;
nodes = (
(116,0,l),
(116,384,l),
(110,377,l),
(131,286,o),
(213,221,o),
(323,221,cs),
(462,221,o),
(556,321,o),
(556,474,cs),
(556,625,o),
(464,726,o),
(323,726,cs),
(181,726,o),
(90,626,o),
(90,469,cs),
(90,0,l)
);
},
{
closed = 1;
nodes = (
(196,246,o),
(116,335,o),
(116,474,cs),
(116,614,o),
(195,701,o),
(323,701,cs),
(450,701,o),
(530,612,o),
(530,474,cs),
(530,334,o),
(448,246,o),
(323,246,cs)
);
}
);
width = 646;
},
{
anchors = (
{
name = middle_center_can;
pos = (346,457);
},
{
name = top_center_can;
pos = (346,714);
},
{
name = top_left_can;
pos = (156,714);
},
{
name = top_right_can;
pos = (538,714);
}
);
background = {
anchors = (
{
name = middle_center_can;
pos = (346,457);
},
{
name = top_center_can;
pos = (346,714);
},
{
name = top_left_can;
pos = (156,714);
},
{
name = top_right_can;
pos = (538,714);
}
);
shapes = (
{
closed = 1;
nodes = (
(253,0,l),
(253,248,l),
(239,240,l),
(249,213,o),
(303,185,o),
(374,185,cs),
(524,185,o),
(632,294,o),
(632,458,cs),
(632,624,o),
(516,729,o),
(350,729,cs),
(176,729,o),
(60,618,o),
(60,443,cs),
(60,0,l)
);
},
{
closed = 1;
nodes = (
(289,347,o),
(249,387,o),
(249,457,cs),
(249,527,o),
(286,567,o),
(346,567,cs),
(406,567,o),
(443,527,o),
(443,457,cs),
(443,387,o),
(403,347,o),
(346,347,cs)
);
}
);
};
layerId = "A1461942-0433-4891-A171-8512F51D8C86";
shapes = (
{
closed = 1;
nodes = (
(253,0,l),
(253,248,l),
(239,240,l),
(249,213,o),
(303,185,o),
(374,185,cs),
(524,185,o),
(632,294,o),
(632,458,cs),
(632,624,o),
(516,729,o),
(350,729,cs),
(176,729,o),
(60,618,o),
(60,443,cs),
(60,0,l)
);
},
{
closed = 1;
nodes = (
(289,347,o),
(249,387,o),
(249,457,cs),
(249,527,o),
(286,567,o),
(346,567,cs),
(406,567,o),
(443,527,o),
(443,457,cs),
(443,387,o),
(403,347,o),
(346,347,cs)
);
}
);
width = 672;
},
{
anchors = (
{
name = middle_center_can;
pos = (257,457);
},
{
name = top_center_can;
pos = (235,714);
},
{
name = top_left_can;
pos = (83,714);
},
{
name = top_right_can;
pos = (388,714);
}
);
background = {
anchors = (
{
name = middle_center_can;
pos = (257,457);
},
{
name = top_center_can;
pos = (235,714);
},
{
name = top_left_can;
pos = (83,714);
},
{
name = top_right_can;
pos = (388,714);
}
);
shapes = (
{
closed = 1;
nodes = (
(95,0,l),
(95,385,l),
(91,356,l),
(104,275,o),
(159,221,o),
(235,221,cs),
(340,221,o),
(401,310,o),
(401,472,cs),
(401,638,o),
(341,726,o),
(235,726,cs),
(128,726,o),
(70,638,o),
(70,469,cs),
(70,0,l)
);
},
{
closed = 1;
nodes = (
(143,245,o),
(95,323,o),
(95,474,cs),
(95,626,o),
(142,702,o),
(235,702,cs),
(328,702,o),
(376,625,o),
(376,474,cs),
(376,323,o),
(328,245,o),
(235,245,cs)
);
}
);
};
layerId = "341CD669-D84F-4333-8BC8-F9777E6D3814";
shapes = (
{
closed = 1;
nodes = (
(95,0,l),
(95,385,l),
(91,356,l),
(104,275,o),
(159,221,o),
(235,221,cs),
(340,221,o),
(401,310,o),
(401,472,cs),
(401,638,o),
(341,726,o),
(235,726,cs),
(128,726,o),
(70,638,o),
(70,469,cs),
(70,0,l)
);
},
{
closed = 1;
nodes = (
(143,245,o),
(95,323,o),
(95,474,cs),
(95,626,o),
(142,702,o),
(235,702,cs),
(328,702,o),
(376,625,o),
(376,474,cs),
(376,323,o),
(328,245,o),
(235,245,cs)
);
}
);
width = 466;
},
{
anchors = (
{
name = middle_center_can;
pos = (262,457);
},
{
name = top_center_can;
pos = (262,714);
},
{
name = top_left_can;
pos = (131,714);
},
{
name = top_right_can;
pos = (395,714);
}
);
background = {
anchors = (
{
name = middle_center_can;
pos = (262,457);
},
{
name = top_center_can;
pos = (262,714);
},
{
name = top_left_can;
pos = (131,714);
},
{
name = top_right_can;
pos = (395,714);
}
);
shapes = (
{
closed = 1;
nodes = (
(223,0,l),
(223,254,l),
(207,230,l),
(215,210,o),
(246,185,o),
(289,185,cs),
(405,185,o),
(484,293,o),
(484,452,cs),
(484,623,o),
(398,729,o),
(261,729,cs),
(114,729,o),
(40,619,o),
(40,454,cs),
(40,0,l)
);
},
{
closed = 1;
nodes = (
(240,339,o),
(219,366,o),
(219,457,cs),
(219,548,o),
(237,575,o),
(262,575,cs),
(288,575,o),
(305,547,o),
(305,457,cs),
(305,367,o),
(285,339,o),
(262,339,cs)
);
}
);
};
layerId = "4DD67900-F9B0-4F36-BC45-F4B21129580C";
shapes = (
{
closed = 1;
nodes = (
(223,0,l),
(223,254,l),
(207,230,l),
(215,210,o),
(246,185,o),
(289,185,cs),
(405,185,o),
(484,293,o),
(484,452,cs),
(484,623,o),
(398,729,o),
(261,729,cs),
(114,729,o),
(40,619,o),
(40,454,cs),
(40,0,l)
);
},
{
closed = 1;
nodes = (
(240,339,o),
(219,366,o),
(219,457,cs),
(219,548,o),
(237,575,o),
(262,575,cs),
(288,575,o),
(305,547,o),
(305,457,cs),
(305,367,o),
(285,339,o),
(262,339,cs)
);
}
);
width = 513;
}
);
metricLeft = "te-canadian";
metricRight = "==|ke-canadian";
note = uni146D;
unicode = 5229;
},
{
color = 2;
glyphname = "ko-canadian";
lastChange = "2022-09-29 19:45:28 +0000";
layers = (
{
anchors = (
{
name = middle_center_can;
pos = (355,457);
},
{
name = top_center_can;
pos = (323,714);
},
{
name = top_double;
pos = (543,714);
},
{
name = top_left_can;
pos = (103,714);
},
{
name = top_right_can;
pos = (543,714);
}
);
background = {
anchors = (
{
name = middle_center_can;
pos = (355,457);
},
{
name = top_center_can;
pos = (323,714);
},
{
name = top_double;
pos = (543,714);
},
{
name = top_left_can;
pos = (103,714);
},
{
name = top_right_can;
pos = (543,714);
}
);
shapes = (
{
closed = 1;
nodes = (
(465,-12,o),
(556,88,o),
(556,245,cs),
(556,714,l),
(530,714,l),
(530,330,l),
(536,337,l),
(516,428,o),
(433,493,o),
(323,493,cs),
(184,493,o),
(90,391,o),
(90,240,cs),
(90,88,o),
(182,-12,o),
(323,-12,cs)
);
},
{
closed = 1;
nodes = (
(196,13,o),
(116,102,o),
(116,241,cs),
(116,380,o),
(198,468,o),
(323,468,cs),
(450,468,o),
(530,379,o),
(530,240,cs),
(530,100,o),
(451,13,o),
(323,13,cs)
);
}
);
};
layerId = m01;
shapes = (
{
closed = 1;
nodes = (
(465,-12,o),
(556,88,o),
(556,245,cs),
(556,714,l),
(530,714,l),
(530,330,l),
(536,337,l),
(516,428,o),
(433,493,o),
(323,493,cs),
(184,493,o),
(90,391,o),
(90,240,cs),
(90,88,o),
(182,-12,o),
(323,-12,cs)
);
},
{
closed = 1;
nodes = (
(196,13,o),
(116,102,o),
(116,241,cs),
(116,380,o),
(198,468,o),
(323,468,cs),
(450,468,o),
(530,379,o),
(530,240,cs),
(530,100,o),
(451,13,o),
(323,13,cs)
);
}
);
width = 646;
},
{
anchors = (
{
name = middle_center_can;
pos = (326,254);
},
{
name = top_center_can;
pos = (326,714);
},
{
name = top_double;
pos = (516,714);
},
{
name = top_left_can;
pos = (135,714);
},
{
name = top_right_can;
pos = (516,714);
}
);
background = {
anchors = (
{
name = middle_center_can;
pos = (326,254);
},
{
name = top_center_can;
pos = (326,714);
},
{
name = top_double;
pos = (516,714);
},
{
name = top_left_can;
pos = (135,714);
},
{
name = top_right_can;
pos = (516,714);
}
);
shapes = (
{
closed = 1;
nodes = (
(503,-15,o),
(612,96,o),
(612,271,cs),
(612,714,l),
(419,714,l),
(419,466,l),
(433,474,l),
(423,501,o),
(369,529,o),
(301,529,cs),
(148,529,o),
(40,417,o),
(40,254,cs),
(40,89,o),
(151,-15,o),
(324,-15,cs)
);
},
{
closed = 1;
nodes = (
(266,147,o),
(229,187,o),
(229,257,cs),
(229,327,o),
(269,367,o),
(326,367,cs),
(383,367,o),
(423,327,o),
(423,257,cs),
(423,187,o),
(386,147,o),
(326,147,cs)
);
}
);
};
layerId = "A1461942-0433-4891-A171-8512F51D8C86";
shapes = (
{
closed = 1;
nodes = (
(503,-15,o),
(612,96,o),
(612,271,cs),
(612,714,l),
(419,714,l),
(419,466,l),
(433,474,l),
(423,501,o),
(369,529,o),
(301,529,cs),
(148,529,o),
(40,417,o),
(40,254,cs),
(40,89,o),
(151,-15,o),
(324,-15,cs)
);
},
{
closed = 1;
nodes = (
(266,147,o),
(229,187,o),
(229,257,cs),
(229,327,o),
(269,367,o),
(326,367,cs),
(383,367,o),
(423,327,o),
(423,257,cs),
(423,187,o),
(386,147,o),
(326,147,cs)
);
}
);
width = 672;
},
{
anchors = (
{
name = middle_center_can;
pos = (252,458);
},
{
name = top_center_can;
pos = (230,714);
},
{
name = top_double;
pos = (384,714);
},
{
name = top_left_can;
pos = (78,714);
},
{
name = top_right_can;
pos = (383,714);
}
);
background = {
anchors = (
{
name = middle_center_can;
pos = (252,458);
},
{
name = top_center_can;
pos = (230,714);
},
{
name = top_double;
pos = (384,714);
},
{
name = top_left_can;
pos = (78,714);
},
{
name = top_right_can;
pos = (383,714);
}
);
shapes = (
{
closed = 1;
nodes = (
(338,-12,o),
(396,76,o),
(396,245,cs),
(396,714,l),
(371,714,l),
(371,329,l),
(375,358,l),
(362,439,o),
(307,493,o),
(231,493,cs),
(126,493,o),
(65,404,o),
(65,242,cs),
(65,76,o),
(125,-12,o),
(231,-12,cs)
);
},
{
closed = 1;
nodes = (
(138,12,o),
(90,89,o),
(90,240,cs),
(90,391,o),
(138,469,o),
(231,469,cs),
(323,469,o),
(371,391,o),
(371,240,cs),
(371,88,o),
(324,12,o),
(231,12,cs)
);
}
);
};
layerId = "341CD669-D84F-4333-8BC8-F9777E6D3814";
shapes = (
{
closed = 1;
nodes = (
(338,-12,o),
(396,76,o),
(396,245,cs),
(396,714,l),
(371,714,l),
(371,329,l),
(375,358,l),
(362,439,o),
(307,493,o),
(231,493,cs),
(126,493,o),
(65,404,o),
(65,242,cs),
(65,76,o),
(125,-12,o),
(231,-12,cs)
);
},
{
closed = 1;
nodes = (
(138,12,o),
(90,89,o),
(90,240,cs),
(90,391,o),
(138,469,o),
(231,469,cs),
(323,469,o),
(371,391,o),
(371,240,cs),
(371,88,o),
(324,12,o),
(231,12,cs)
);
}
);
width = 466;
},
{
anchors = (
{
name = middle_center_can;
pos = (251,266);
},
{
name = top_center_can;
pos = (252,714);
},
{
name = top_double;
pos = (382,714);
},
{
name = top_left_can;
pos = (119,714);
},
{
name = top_right_can;
pos = (383,714);
}
);
background = {
anchors = (
{
name = middle_center_can;
pos = (251,266);
},
{
name = top_center_can;
pos = (252,714);
},
{
name = top_double;
pos = (382,714);
},
{
name = top_left_can;
pos = (119,714);
},
{
name = top_right_can;
pos = (383,714);
}
);
shapes = (
{
closed = 1;
nodes = (
(396,-15,o),
(473,85,o),
(473,260,cs),
(473,714,l),
(290,714,l),
(290,460,l),
(306,484,l),
(298,504,o),
(267,529,o),
(224,529,cs),
(108,529,o),
(29,421,o),
(29,252,cs),
(29,91,o),
(110,-15,o),
(255,-15,cs)
);
},
{
closed = 1;
nodes = (
(225,139,o),
(208,167,o),
(208,257,cs),
(208,347,o),
(228,375,o),
(251,375,cs),
(273,375,o),
(294,348,o),
(294,257,cs),
(294,166,o),
(276,139,o),
(251,139,cs)
);
}
);
};
layerId = "4DD67900-F9B0-4F36-BC45-F4B21129580C";
shapes = (
{
closed = 1;
nodes = (
(396,-15,o),
(473,85,o),
(473,260,cs),
(473,714,l),
(290,714,l),
(290,460,l),
(306,484,l),
(298,504,o),
(267,529,o),
(224,529,cs),
(108,529,o),
(29,421,o),
(29,252,cs),
(29,91,o),
(110,-15,o),
(255,-15,cs)
);
},
{
closed = 1;
nodes = (
(225,139,o),
(208,167,o),
(208,257,cs),
(208,347,o),
(228,375,o),
(251,375,cs),
(273,375,o),
(294,348,o),
(294,257,cs),
(294,166,o),
(276,139,o),
(251,139,cs)
);
}
);
width = 513;
}
);
metricLeft = "ke-canadian";
metricRight = "te-canadian";
note = uni146F;
unicode = 5231;
},
{
color = 2;
glyphname = "ka-canadian";
lastChange = "2022-09-29 19:45:32 +0000";
layers = (
{
anchors = (
{
name = middle_center_can;
pos = (355,457);
},
{
name = top_center_can;
pos = (323,714);
},
{
name = top_left_can;
pos = (103,714);
},
{
name = top_right_can;
pos = (543,714);
}
);
background = {
anchors = (
{
name = middle_center_can;
pos = (355,457);
},
{
name = top_center_can;
pos = (323,714);
},
{
name = top_left_can;
pos = (103,714);
},
{
name = top_right_can;
pos = (543,714);
}
);
shapes = (
{
closed = 1;
nodes = (
(464,-12,o),
(556,89,o),
(556,241,cs),
(556,393,o),
(462,493,o),
(323,493,cs),
(213,493,o),
(130,428,o),
(110,337,c),
(116,330,l),
(116,714,l),
(90,714,l),
(90,245,ls),
(90,88,o),
(180,-12,o),
(322,-12,cs)
);
},
{
closed = 1;
nodes = (
(195,13,o),
(116,100,o),
(116,240,cs),
(116,379,o),
(196,468,o),
(323,468,cs),
(448,468,o),
(530,380,o),
(530,241,cs),
(530,102,o),
(450,13,o),
(323,13,cs)
);
}
);
};
layerId = m01;
shapes = (
{
closed = 1;
nodes = (
(464,-12,o),
(556,89,o),
(556,241,cs),
(556,393,o),
(462,493,o),
(323,493,cs),
(213,493,o),
(130,428,o),
(110,337,c),
(116,330,l),
(116,714,l),
(90,714,l),
(90,245,ls),
(90,88,o),
(180,-12,o),
(322,-12,cs)
);
},
{
closed = 1;
nodes = (
(195,13,o),
(116,100,o),
(116,240,cs),
(116,379,o),
(196,468,o),
(323,468,cs),
(448,468,o),
(530,380,o),
(530,241,cs),
(530,102,o),
(450,13,o),
(323,13,cs)
);
}
);
width = 646;
},
{
anchors = (
{
name = middle_center_can;
pos = (346,259);
},
{
name = top_center_can;
pos = (346,714);
},
{
name = top_left_can;
pos = (157,714);
},
{
name = top_right_can;
pos = (538,714);
}
);
background = {
anchors = (
{
name = middle_center_can;
pos = (346,259);
},
{
name = top_center_can;
pos = (346,714);
},
{
name = top_left_can;
pos = (157,714);
},
{
name = top_right_can;
pos = (538,714);
}
);
shapes = (
{
closed = 1;
nodes = (
(513,-15,o),
(632,90,o),
(632,259,cs),
(632,420,o),
(524,529,o),
(381,529,cs),
(308,529,o),
(254,501,o),
(239,474,c),
(253,466,l),
(253,714,l),
(60,714,l),
(60,271,ls),
(60,96,o),
(168,-15,o),
(346,-15,cs)
);
},
{
closed = 1;
nodes = (
(286,147,o),
(249,187,o),
(249,257,cs),
(249,327,o),
(289,367,o),
(346,367,cs),
(403,367,o),
(443,327,o),
(443,257,cs),
(443,187,o),
(406,147,o),
(346,147,cs)
);
}
);
};
layerId = "A1461942-0433-4891-A171-8512F51D8C86";
shapes = (
{
closed = 1;
nodes = (
(513,-15,o),
(632,90,o),
(632,259,cs),
(632,420,o),
(524,529,o),
(381,529,cs),
(308,529,o),
(254,501,o),
(239,474,c),
(253,466,l),
(253,714,l),
(60,714,l),
(60,271,ls),
(60,96,o),
(168,-15,o),
(346,-15,cs)
);
},
{
closed = 1;
nodes = (
(286,147,o),
(249,187,o),
(249,257,cs),
(249,327,o),
(289,367,o),
(346,367,cs),
(403,367,o),
(443,327,o),
(443,257,cs),
(443,187,o),
(406,147,o),
(346,147,cs)
);
}
);
width = 672;
},
{
anchors = (
{
name = middle_center_can;
pos = (257,458);
},
{
name = top_center_can;
pos = (235,714);
},
{
name = top_left_can;
pos = (83,714);
},
{
name = top_right_can;
pos = (388,714);
}
);
background = {
anchors = (
{
name = middle_center_can;
pos = (257,458);
},
{
name = top_center_can;
pos = (235,714);
},
{
name = top_left_can;
pos = (83,714);
},
{
name = top_right_can;
pos = (388,714);
}
);
shapes = (
{
closed = 1;
nodes = (
(341,-12,o),
(401,76,o),
(401,242,cs),
(401,404,o),
(340,493,o),
(235,493,cs),
(159,493,o),
(104,439,o),
(91,358,c),
(95,329,l),
(95,714,l),
(70,714,l),
(70,245,ls),
(70,76,o),
(128,-12,o),
(235,-12,cs)
);
},
{
closed = 1;
nodes = (
(142,12,o),
(95,88,o),
(95,240,cs),
(95,391,o),
(143,469,o),
(235,469,cs),
(328,469,o),
(376,391,o),
(376,240,cs),
(376,89,o),
(328,12,o),
(235,12,cs)
);
}
);
};
layerId = "341CD669-D84F-4333-8BC8-F9777E6D3814";
shapes = (
{
closed = 1;
nodes = (
(341,-12,o),
(401,76,o),
(401,242,cs),
(401,404,o),
(340,493,o),
(235,493,cs),
(159,493,o),
(104,439,o),
(91,358,c),
(95,329,l),
(95,714,l),
(70,714,l),
(70,245,ls),
(70,76,o),
(128,-12,o),
(235,-12,cs)
);
},
{
closed = 1;
nodes = (
(142,12,o),
(95,88,o),
(95,240,cs),
(95,391,o),
(143,469,o),
(235,469,cs),
(328,469,o),
(376,391,o),
(376,240,cs),
(376,89,o),
(328,12,o),
(235,12,cs)
);
}
);
width = 466;
},
{
anchors = (
{
name = middle_center_can;
pos = (262,271);
},
{
name = top_center_can;
pos = (263,714);
},
{
name = top_left_can;
pos = (131,714);
},
{
name = top_right_can;
pos = (395,714);
}
);
background = {
anchors = (
{
name = middle_center_can;
pos = (262,271);
},
{
name = top_center_can;
pos = (263,714);
},
{
name = top_left_can;
pos = (131,714);
},
{
name = top_right_can;
pos = (395,714);
}
);
shapes = (
{
closed = 1;
nodes = (
(398,-15,o),
(484,91,o),
(484,262,cs),
(484,421,o),
(405,529,o),
(289,529,cs),
(246,529,o),
(215,504,o),
(207,484,c),
(223,460,l),
(223,714,l),
(40,714,l),
(40,260,ls),
(40,85,o),
(114,-15,o),
(256,-15,cs)
);
},
{
closed = 1;
nodes = (
(237,139,o),
(219,166,o),
(219,257,cs),
(219,348,o),
(240,375,o),
(262,375,cs),
(285,375,o),
(305,347,o),
(305,257,cs),
(305,167,o),
(288,139,o),
(262,139,cs)
);
}
);
};
layerId = "4DD67900-F9B0-4F36-BC45-F4B21129580C";
shapes = (
{
closed = 1;
nodes = (
(398,-15,o),
(484,91,o),
(484,262,cs),
(484,421,o),
(405,529,o),
(289,529,cs),
(246,529,o),
(215,504,o),
(207,484,c),
(223,460,l),
(223,714,l),
(40,714,l),
(40,260,ls),
(40,85,o),
(114,-15,o),
(256,-15,cs)
);
},
{
closed = 1;
nodes = (
(237,139,o),
(219,166,o),
(219,257,cs),
(219,348,o),
(240,375,o),
(262,375,cs),
(285,375,o),
(305,347,o),
(305,257,cs),
(305,167,o),
(288,139,o),
(262,139,cs)
);
}
);
width = 513;
}
);
metricLeft = "te-canadian";
metricRight = "==|ke-canadian";
note = uni1472;
unicode = 5234;
},
{
color = 2;
glyphname = "k-canadian";
kernLeft = mwestleft;
kernRight = mwestright;
lastChange = "2022-10-04 14:13:39 +0000";
layers = (
{
background = {
shapes = (
{
closed = 1;
nodes = (
(286,351,o),
(340,407,o),
(340,488,cs),
(340,568,o),
(286,622,o),
(213,622,cs),
(154,622,o),
(108,582,o),
(99,528,c),
(109,516,l),
(109,714,l),
(85,714,l),
(85,487,ls),
(85,403,o),
(138,351,o),
(212,351,cs)
);
},
{
closed = 1;
nodes = (
(147,373,o),
(108,416,o),
(108,487,cs),
(108,555,o),
(152,600,o),
(212,600,cs),
(274,600,o),
(317,555,o),
(317,488,cs),
(317,419,o),
(275,373,o),
(213,373,cs)
);
}
);
};
layerId = m01;
shapes = (
{
closed = 1;
nodes = (
(286,351,o),
(340,407,o),
(340,488,cs),
(340,568,o),
(286,622,o),
(213,622,cs),
(154,622,o),
(108,582,o),
(99,528,c),
(109,516,l),
(109,714,l),
(85,714,l),
(85,487,ls),
(85,403,o),
(138,351,o),
(212,351,cs)
);
},
{
closed = 1;
nodes = (
(147,373,o),
(108,416,o),
(108,487,cs),
(108,555,o),
(152,600,o),
(212,600,cs),
(274,600,o),
(317,555,o),
(317,488,cs),
(317,419,o),
(275,373,o),
(213,373,cs)
);
}
);
width = 415;
},
{
background = {
shapes = (
{
closed = 1;
nodes = (
(312,351,o),
(381,403,o),
(381,487,cs),
(381,568,o),
(322,622,o),
(247,622,cs),
(208,622,o),
(179,604,o),
(170,588,c),
(193,588,l),
(193,714,l),
(60,714,l),
(60,496,ls),
(60,410,o),
(122,351,o),
(226,351,cs)
);
},
{
closed = 1;
nodes = (
(198,444,o),
(181,460,o),
(181,486,cs),
(181,513,o),
(199,529,o),
(222,529,cs),
(246,529,o),
(264,513,o),
(264,486,cs),
(264,460,o),
(246,444,o),
(222,444,cs)
);
}
);
};
layerId = "A1461942-0433-4891-A171-8512F51D8C86";
shapes = (
{
closed = 1;
nodes = (
(312,351,o),
(381,403,o),
(381,487,cs),
(381,568,o),
(322,622,o),
(247,622,cs),
(208,622,o),
(179,604,o),
(170,588,c),
(193,588,l),
(193,714,l),
(60,714,l),
(60,496,ls),
(60,410,o),
(122,351,o),
(226,351,cs)
);
},
{
closed = 1;
nodes = (
(198,444,o),
(181,460,o),
(181,486,cs),
(181,513,o),
(199,529,o),
(222,529,cs),
(246,529,o),
(264,513,o),
(264,486,cs),
(264,460,o),
(246,444,o),
(222,444,cs)
);
}
);
width = 431;
},
{
background = {
shapes = (
{
closed = 1;
nodes = (
(201,351,o),
(241,397,o),
(241,488,cs),
(241,577,o),
(202,622,o),
(152,622,cs),
(109,622,o),
(76,587,o),
(73,528,c),
(82,528,l),
(82,714,l),
(60,714,l),
(60,487,ls),
(60,396,o),
(98,351,o),
(150,351,cs)
);
},
{
closed = 1;
nodes = (
(106,373,o),
(82,406,o),
(82,487,cs),
(82,564,o),
(109,600,o),
(151,600,cs),
(192,600,o),
(219,565,o),
(219,488,cs),
(219,410,o),
(193,373,o),
(151,373,cs)
);
}
);
};
layerId = "341CD669-D84F-4333-8BC8-F9777E6D3814";
shapes = (
{
closed = 1;
nodes = (
(201,351,o),
(241,397,o),
(241,488,cs),
(241,577,o),
(202,622,o),
(152,622,cs),
(109,622,o),
(76,587,o),
(73,528,c),
(82,528,l),
(82,714,l),
(60,714,l),
(60,487,ls),
(60,396,o),
(98,351,o),
(150,351,cs)
);
},
{
closed = 1;
nodes = (
(106,373,o),
(82,406,o),
(82,487,cs),
(82,564,o),
(109,600,o),
(151,600,cs),
(192,600,o),
(219,565,o),
(219,488,cs),
(219,410,o),
(193,373,o),
(151,373,cs)
);
}
);
width = 291;
},
{
background = {
shapes = (
{
closed = 1;
nodes = (
(232,351,o),
(288,393,o),
(288,495,cs),
(288,576,o),
(246,622,o),
(191,622,cs),
(158,622,o),
(134,603,o),
(128,574,c),
(153,574,l),
(153,714,l),
(35,714,l),
(35,485,ls),
(35,406,o),
(79,351,o),
(164,351,cs)
);
},
{
closed = 1;
nodes = (
(153,436,o),
(143,444,o),
(143,486,cs),
(143,528,o),
(153,537,o),
(163,537,cs),
(173,537,o),
(184,529,o),
(184,486,cs),
(184,444,o),
(173,436,o),
(163,436,cs)
);
}
);
};
layerId = "4DD67900-F9B0-4F36-BC45-F4B21129580C";
shapes = (
{
closed = 1;
nodes = (
(232,351,o),
(288,393,o),
(288,495,cs),
(288,576,o),
(246,622,o),
(191,622,cs),
(158,622,o),
(134,603,o),
(128,574,c),
(153,574,l),
(153,714,l),
(35,714,l),
(35,485,ls),
(35,406,o),
(79,351,o),
(164,351,cs)
);
},
{
closed = 1;
nodes = (
(153,436,o),
(143,444,o),
(143,486,cs),
(143,528,o),
(153,537,o),
(163,537,cs),
(173,537,o),
(184,529,o),
(184,486,cs),
(184,444,o),
(173,436,o),
(163,436,cs)
);
}
);
width = 313;
}
);
note = uni1483;
unicode = 5251;
},
{
color = 2;
glyphname = "kw-canadian";
kernLeft = mwestleft;
kernRight = mwestright;
lastChange = "2022-10-04 14:27:19 +0000";
layers = (
{
background = {
shapes = (
{
closed = 1;
nodes = (
(277,351,o),
(330,403,o),
(330,487,cs),
(330,714,l),
(306,714,l),
(306,516,l),
(316,528,l),
(307,582,o),
(261,622,o),
(202,622,cs),
(129,622,o),
(75,568,o),
(75,488,cs),
(75,407,o),
(129,351,o),
(203,351,cs)
);
},
{
closed = 1;
nodes = (
(140,373,o),
(98,419,o),
(98,488,cs),
(98,555,o),
(141,600,o),
(203,600,cs),
(263,600,o),
(307,555,o),
(307,487,cs),
(307,416,o),
(268,373,o),
(202,373,cs)
);
}
);
};
layerId = m01;
shapes = (
{
closed = 1;
nodes = (
(277,351,o),
(330,403,o),
(330,487,cs),
(330,714,l),
(306,714,l),
(306,516,l),
(316,528,l),
(307,582,o),
(261,622,o),
(202,622,cs),
(129,622,o),
(75,568,o),
(75,488,cs),
(75,407,o),
(129,351,o),
(203,351,cs)
);
},
{
closed = 1;
nodes = (
(140,373,o),
(98,419,o),
(98,488,cs),
(98,555,o),
(141,600,o),
(203,600,cs),
(263,600,o),
(307,555,o),
(307,487,cs),
(307,416,o),
(268,373,o),
(202,373,cs)
);
}
);
width = 415;
},
{
background = {
shapes = (
{
closed = 1;
nodes = (
(309,351,o),
(371,410,o),
(371,496,cs),
(371,714,l),
(238,714,l),
(238,588,l),
(261,588,l),
(252,604,o),
(223,622,o),
(184,622,cs),
(109,622,o),
(50,568,o),
(50,487,cs),
(50,403,o),
(119,351,o),
(205,351,cs)
);
},
{
closed = 1;
nodes = (
(185,444,o),
(167,460,o),
(167,486,cs),
(167,513,o),
(185,529,o),
(209,529,cs),
(232,529,o),
(250,513,o),
(250,486,cs),
(250,460,o),
(233,444,o),
(209,444,cs)
);
}
);
};
layerId = "A1461942-0433-4891-A171-8512F51D8C86";
shapes = (
{
closed = 1;
nodes = (
(309,351,o),
(371,410,o),
(371,496,cs),
(371,714,l),
(238,714,l),
(238,588,l),
(261,588,l),
(252,604,o),
(223,622,o),
(184,622,cs),
(109,622,o),
(50,568,o),
(50,487,cs),
(50,403,o),
(119,351,o),
(205,351,cs)
);
},
{
closed = 1;
nodes = (
(185,444,o),
(167,460,o),
(167,486,cs),
(167,513,o),
(185,529,o),
(209,529,cs),
(232,529,o),
(250,513,o),
(250,486,cs),
(250,460,o),
(233,444,o),
(209,444,cs)
);
}
);
width = 431;
},
{
background = {
shapes = (
{
closed = 1;
nodes = (
(193,351,o),
(231,396,o),
(231,487,cs),
(231,714,l),
(209,714,l),
(209,528,l),
(218,528,l),
(215,587,o),
(182,622,o),
(139,622,cs),
(89,622,o),
(50,577,o),
(50,488,cs),
(50,397,o),
(90,351,o),
(141,351,cs)
);
},
{
closed = 1;
nodes = (
(98,373,o),
(72,410,o),
(72,488,cs),
(72,565,o),
(99,600,o),
(140,600,cs),
(182,600,o),
(209,564,o),
(209,487,cs),
(209,406,o),
(185,373,o),
(140,373,cs)
);
}
);
};
layerId = "341CD669-D84F-4333-8BC8-F9777E6D3814";
shapes = (
{
closed = 1;
nodes = (
(193,351,o),
(231,396,o),
(231,487,cs),
(231,714,l),
(209,714,l),
(209,528,l),
(218,528,l),
(215,587,o),
(182,622,o),
(139,622,cs),
(89,622,o),
(50,577,o),
(50,488,cs),
(50,397,o),
(90,351,o),
(141,351,cs)
);
},
{
closed = 1;
nodes = (
(98,373,o),
(72,410,o),
(72,488,cs),
(72,565,o),
(99,600,o),
(140,600,cs),
(182,600,o),
(209,564,o),
(209,487,cs),
(209,406,o),
(185,373,o),
(140,373,cs)
);
}
);
width = 291;
},
{
background = {
shapes = (
{
closed = 1;
nodes = (
(234,351,o),
(278,406,o),
(278,485,cs),
(278,714,l),
(160,714,l),
(160,574,l),
(185,574,l),
(179,603,o),
(155,622,o),
(122,622,cs),
(67,622,o),
(25,576,o),
(25,495,cs),
(25,393,o),
(81,351,o),
(149,351,cs)
);
},
{
closed = 1;
nodes = (
(140,436,o),
(129,444,o),
(129,486,cs),
(129,529,o),
(140,537,o),
(150,537,cs),
(160,537,o),
(170,528,o),
(170,486,cs),
(170,444,o),
(160,436,o),
(150,436,cs)
);
}
);
};
layerId = "4DD67900-F9B0-4F36-BC45-F4B21129580C";
shapes = (
{
closed = 1;
nodes = (
(234,351,o),
(278,406,o),
(278,485,cs),
(278,714,l),
(160,714,l),
(160,574,l),
(185,574,l),
(179,603,o),
(155,622,o),
(122,622,cs),
(67,622,o),
(25,576,o),
(25,495,cs),
(25,393,o),
(81,351,o),
(149,351,cs)
);
},
{
closed = 1;
nodes = (
(140,436,o),
(129,444,o),
(129,486,cs),
(129,529,o),
(140,537,o),
(150,537,cs),
(160,537,o),
(170,528,o),
(170,486,cs),
(170,444,o),
(160,436,o),
(150,436,cs)
);
}
);
width = 313;
}
);
metricLeft = "=|k-canadian";
metricRight = "=|k-canadian";
note = uni1484;
unicode = 5252;
},
{
color = 2;
glyphname = "ce-canadian";
kernLeft = celeft;
lastChange = "2022-10-03 15:45:19 +0000";
layers = (
{
anchors = (
{
name = middle_center_can;
pos = (355,457);
},
{
name = top_center_can;
pos = (323,714);
},
{
name = top_left_can;
pos = (103,714);
},
{
name = top_right_can;
pos = (541,714);
}
);
background = {
anchors = (
{
name = middle_center_can;
pos = (355,457);
},
{
name = top_center_can;
pos = (323,714);
},
{
name = top_left_can;
pos = (103,714);
},
{
name = top_right_can;
pos = (541,714);
}
);
shapes = (
{
closed = 1;
nodes = (
(554,0,l),
(554,469,ls),
(554,628,o),
(465,726,o),
(324,726,cs),
(179,726,o),
(90,628,o),
(90,469,cs),
(90,410,l),
(116,410,l),
(116,469,ls),
(116,615,o),
(193,701,o),
(324,701,cs),
(451,701,o),
(528,615,o),
(528,472,cs),
(528,0,l)
);
}
);
};
layerId = m01;
shapes = (
{
closed = 1;
nodes = (
(554,0,l),
(554,469,ls),
(554,628,o),
(465,726,o),
(324,726,cs),
(179,726,o),
(90,628,o),
(90,469,cs),
(90,410,l),
(116,410,l),
(116,469,ls),
(116,615,o),
(193,701,o),
(324,701,cs),
(451,701,o),
(528,615,o),
(528,472,cs),
(528,0,l)
);
}
);
width = 644;
},
{
anchors = (
{
name = middle_center_can;
pos = (321,357);
},
{
name = top_center_can;
pos = (327,714);
},
{
name = top_left_can;
pos = (136,714);
},
{
name = top_right_can;
pos = (508,714);
}
);
background = {
anchors = (
{
name = middle_center_can;
pos = (321,357);
},
{
name = top_center_can;
pos = (327,714);
},
{
name = top_left_can;
pos = (136,714);
},
{
name = top_right_can;
pos = (508,714);
}
);
shapes = (
{
closed = 1;
nodes = (
(604,0,l),
(604,443,ls),
(604,629,o),
(499,729,o),
(327,729,cs),
(149,729,o),
(40,621,o),
(40,441,cs),
(40,390,l),
(231,390,l),
(231,451,ls),
(231,525,o),
(263,563,o),
(322,563,cs),
(379,563,o),
(411,526,o),
(411,450,cs),
(411,0,l)
);
}
);
};
layerId = "A1461942-0433-4891-A171-8512F51D8C86";
shapes = (
{
closed = 1;
nodes = (
(604,0,l),
(604,443,ls),
(604,629,o),
(499,729,o),
(327,729,cs),
(149,729,o),
(40,621,o),
(40,441,cs),
(40,390,l),
(231,390,l),
(231,451,ls),
(231,525,o),
(263,563,o),
(322,563,cs),
(379,563,o),
(411,526,o),
(411,450,cs),
(411,0,l)
);
}
);
width = 664;
},
{
anchors = (
{
name = middle_center_can;
pos = (251,458);
},
{
name = top_center_can;
pos = (231,714);
},
{
name = top_left_can;
pos = (78,714);
},
{
name = top_right_can;
pos = (382,714);
}
);
background = {
anchors = (
{
name = middle_center_can;
pos = (251,458);
},
{
name = top_center_can;
pos = (231,714);
},
{
name = top_left_can;
pos = (78,714);
},
{
name = top_right_can;
pos = (382,714);
}
);
shapes = (
{
closed = 1;
nodes = (
(394,0,l),
(394,494,ls),
(394,638,o),
(336,726,o),
(231,726,cs),
(123,726,o),
(65,638,o),
(65,504,cs),
(65,410,l),
(90,410,l),
(90,504,ls),
(90,627,o),
(136,702,o),
(231,702,cs),
(322,702,o),
(369,626,o),
(369,497,cs),
(369,0,l)
);
}
);
};
layerId = "341CD669-D84F-4333-8BC8-F9777E6D3814";
shapes = (
{
closed = 1;
nodes = (
(394,0,l),
(394,494,ls),
(394,638,o),
(336,726,o),
(231,726,cs),
(123,726,o),
(65,638,o),
(65,504,cs),
(65,410,l),
(90,410,l),
(90,504,ls),
(90,627,o),
(136,702,o),
(231,702,cs),
(322,702,o),
(369,626,o),
(369,497,cs),
(369,0,l)
);
}
);
width = 464;
},
{
anchors = (
{
name = middle_center_can;
pos = (243,363);
},
{
name = top_center_can;
pos = (245,714);
},
{
name = top_left_can;
pos = (116,714);
},
{
name = top_right_can;
pos = (371,714);
}
);
background = {
anchors = (
{
name = middle_center_can;
pos = (243,363);
},
{
name = top_center_can;
pos = (245,714);
},
{
name = top_left_can;
pos = (116,714);
},
{
name = top_right_can;
pos = (371,714);
}
);
shapes = (
{
closed = 1;
nodes = (
(462,0,l),
(462,464,ls),
(462,629,o),
(388,729,o),
(246,729,cs),
(109,729,o),
(25,641,o),
(25,463,cs),
(25,390,l),
(206,390,l),
(206,501,ls),
(206,548,o),
(219,570,o),
(243,570,cs),
(265,570,o),
(279,551,o),
(279,500,cs),
(279,0,l)
);
}
);
};
layerId = "4DD67900-F9B0-4F36-BC45-F4B21129580C";
shapes = (
{
closed = 1;
nodes = (
(462,0,l),
(462,464,ls),
(462,629,o),
(388,729,o),
(246,729,cs),
(109,729,o),
(25,641,o),
(25,463,cs),
(25,390,l),
(206,390,l),
(206,501,ls),
(206,548,o),
(219,570,o),
(243,570,cs),
(265,570,o),
(279,551,o),
(279,500,cs),
(279,0,l)
);
}
);
width = 502;
}
);
metricRight = "te-canadian";
note = uni1489;
unicode = 5257;
},
{
color = 2;
glyphname = "ci-canadian";
kernRight = ciright;
lastChange = "2022-10-04 10:11:38 +0000";
layers = (
{
anchors = (
{
name = middle_center_can;
pos = (355,457);
},
{
name = top_center_can;
pos = (323,714);
},
{
name = top_left_can;
pos = (103,714);
},
{
name = top_right_can;
pos = (543,714);
}
);
background = {
anchors = (
{
name = middle_center_can;
pos = (355,457);
},
{
name = top_center_can;
pos = (323,714);
},
{
name = top_left_can;
pos = (103,714);
},
{
name = top_right_can;
pos = (543,714);
}
);
shapes = (
{
closed = 1;
nodes = (
(116,0,l),
(116,472,ls),
(116,615,o),
(193,701,o),
(324,701,cs),
(454,701,o),
(528,615,o),
(528,469,cs),
(528,410,l),
(554,410,l),
(554,469,ls),
(554,627,o),
(467,726,o),
(324,726,cs),
(179,726,o),
(90,628,o),
(90,469,cs),
(90,0,l)
);
}
);
};
layerId = m01;
shapes = (
{
closed = 1;
nodes = (
(116,0,l),
(116,472,ls),
(116,615,o),
(193,701,o),
(324,701,cs),
(454,701,o),
(528,615,o),
(528,469,cs),
(528,410,l),
(554,410,l),
(554,469,ls),
(554,627,o),
(467,726,o),
(324,726,cs),
(179,726,o),
(90,628,o),
(90,469,cs),
(90,0,l)
);
}
);
width = 644;
},
{
anchors = (
{
name = middle_center_can;
pos = (322,357);
},
{
name = top_center_can;
pos = (350,714);
},
{
name = top_left_can;
pos = (157,714);
},
{
name = top_right_can;
pos = (529,714);
}
);
background = {
anchors = (
{
name = middle_center_can;
pos = (322,357);
},
{
name = top_center_can;
pos = (350,714);
},
{
name = top_left_can;
pos = (157,714);
},
{
name = top_right_can;
pos = (529,714);
}
);
shapes = (
{
closed = 1;
nodes = (
(253,0,l),
(253,450,ls),
(253,525,o),
(288,563,o),
(346,563,cs),
(402,563,o),
(433,527,o),
(433,454,cs),
(433,390,l),
(624,390,l),
(624,441,ls),
(624,621,o),
(524,729,o),
(350,729,cs),
(168,729,o),
(60,622,o),
(60,441,cs),
(60,0,l)
);
}
);
};
layerId = "A1461942-0433-4891-A171-8512F51D8C86";
shapes = (
{
closed = 1;
nodes = (
(253,0,l),
(253,450,ls),
(253,525,o),
(288,563,o),
(346,563,cs),
(402,563,o),
(433,527,o),
(433,454,cs),
(433,390,l),
(624,390,l),
(624,441,ls),
(624,621,o),
(524,729,o),
(350,729,cs),
(168,729,o),
(60,622,o),
(60,441,cs),
(60,0,l)
);
}
);
width = 664;
},
{
anchors = (
{
name = middle_center_can;
pos = (256,458);
},
{
name = top_center_can;
pos = (236,714);
},
{
name = top_left_can;
pos = (83,714);
},
{
name = top_right_can;
pos = (388,714);
}
);
background = {
anchors = (
{
name = middle_center_can;
pos = (256,458);
},
{
name = top_center_can;
pos = (236,714);
},
{
name = top_left_can;
pos = (83,714);
},
{
name = top_right_can;
pos = (388,714);
}
);
shapes = (
{
closed = 1;
nodes = (
(95,0,l),
(95,497,ls),
(95,626,o),
(142,702,o),
(233,702,cs),
(328,702,o),
(374,627,o),
(374,504,cs),
(374,410,l),
(399,410,l),
(399,504,ls),
(399,638,o),
(341,726,o),
(233,726,cs),
(128,726,o),
(70,638,o),
(70,494,cs),
(70,0,l)
);
}
);
};
layerId = "341CD669-D84F-4333-8BC8-F9777E6D3814";
shapes = (
{
closed = 1;
nodes = (
(95,0,l),
(95,497,ls),
(95,626,o),
(142,702,o),
(233,702,cs),
(328,702,o),
(374,627,o),
(374,504,cs),
(374,410,l),
(399,410,l),
(399,504,ls),
(399,638,o),
(341,726,o),
(233,726,cs),
(128,726,o),
(70,638,o),
(70,494,cs),
(70,0,l)
);
}
);
width = 464;
},
{
anchors = (
{
name = middle_center_can;
pos = (260,363);
},
{
name = top_center_can;
pos = (260,714);
},
{
name = top_left_can;
pos = (132,714);
},
{
name = top_right_can;
pos = (387,714);
}
);
background = {
anchors = (
{
name = middle_center_can;
pos = (260,363);
},
{
name = top_center_can;
pos = (260,714);
},
{
name = top_left_can;
pos = (132,714);
},
{
name = top_right_can;
pos = (387,714);
}
);
shapes = (
{
closed = 1;
nodes = (
(223,0,l),
(223,500,ls),
(223,551,o),
(237,570,o),
(259,570,cs),
(283,570,o),
(296,548,o),
(296,501,cs),
(296,390,l),
(477,390,l),
(477,463,ls),
(477,641,o),
(393,729,o),
(260,729,cs),
(112,729,o),
(40,629,o),
(40,464,cs),
(40,0,l)
);
}
);
};
layerId = "4DD67900-F9B0-4F36-BC45-F4B21129580C";
shapes = (
{
closed = 1;
nodes = (
(223,0,l),
(223,500,ls),
(223,551,o),
(237,570,o),
(259,570,cs),
(283,570,o),
(296,548,o),
(296,501,cs),
(296,390,l),
(477,390,l),
(477,463,ls),
(477,641,o),
(393,729,o),
(260,729,cs),
(112,729,o),
(40,629,o),
(40,464,cs),
(40,0,l)
);
}
);
width = 502;
}
);
metricLeft = "te-canadian";
metricRight = "=|ce-canadian";
note = uni148B;
unicode = 5259;
},
{
color = 2;
glyphname = "co-canadian";
kernLeft = coleft;
lastChange = "2022-10-03 15:43:36 +0000";
layers = (
{
anchors = (
{
name = middle_center_can;
pos = (355,457);
},
{
name = top_center_can;
pos = (322,714);
},
{
name = top_double;
pos = (541,714);
},
{
name = top_left_can;
pos = (103,714);
},
{
name = top_right_can;
pos = (541,714);
}
);
background = {
anchors = (
{
name = middle_center_can;
pos = (355,457);
},
{
name = top_center_can;
pos = (322,714);
},
{
name = top_double;
pos = (541,714);
},
{
name = top_left_can;
pos = (103,714);
},
{
name = top_right_can;
pos = (541,714);
}
);
shapes = (
{
closed = 1;
nodes = (
(465,-12,o),
(554,81,o),
(554,247,cs),
(554,714,l),
(528,714,l),
(528,244,ls),
(528,95,o),
(451,13,o),
(324,13,cs),
(190,13,o),
(116,97,o),
(116,247,cs),
(116,304,l),
(90,304,l),
(90,243,ls),
(90,86,o),
(176,-12,o),
(324,-12,cs)
);
}
);
};
layerId = m01;
shapes = (
{
closed = 1;
nodes = (
(465,-12,o),
(554,81,o),
(554,247,cs),
(554,714,l),
(528,714,l),
(528,244,ls),
(528,95,o),
(451,13,o),
(324,13,cs),
(190,13,o),
(116,97,o),
(116,247,cs),
(116,304,l),
(90,304,l),
(90,243,ls),
(90,86,o),
(176,-12,o),
(324,-12,cs)
);
}
);
width = 644;
},
{
anchors = (
{
name = middle_center_can;
pos = (321,357);
},
{
name = top_center_can;
pos = (327,714);
},
{
name = top_double;
pos = (508,714);
},
{
name = top_left_can;
pos = (136,714);
},
{
name = top_right_can;
pos = (508,714);
}
);
background = {
anchors = (
{
name = middle_center_can;
pos = (321,357);
},
{
name = top_center_can;
pos = (327,714);
},
{
name = top_double;
pos = (508,714);
},
{
name = top_left_can;
pos = (136,714);
},
{
name = top_right_can;
pos = (508,714);
}
);
shapes = (
{
closed = 1;
nodes = (
(497,-15,o),
(604,85,o),
(604,271,cs),
(604,714,l),
(411,714,l),
(411,260,ls),
(411,186,o),
(380,151,o),
(322,151,cs),
(261,151,o),
(231,189,o),
(231,273,cs),
(231,324,l),
(40,324,l),
(40,273,ls),
(40,94,o),
(140,-15,o),
(326,-15,cs)
);
}
);
};
layerId = "A1461942-0433-4891-A171-8512F51D8C86";
shapes = (
{
closed = 1;
nodes = (
(497,-15,o),
(604,85,o),
(604,271,cs),
(604,714,l),
(411,714,l),
(411,260,ls),
(411,186,o),
(380,151,o),
(322,151,cs),
(261,151,o),
(231,189,o),
(231,273,cs),
(231,324,l),
(40,324,l),
(40,273,ls),
(40,94,o),
(140,-15,o),
(326,-15,cs)
);
}
);
width = 664;
},
{
anchors = (
{
name = middle_center_can;
pos = (251,458);
},
{
name = top_center_can;
pos = (230,714);
},
{
name = top_double;
pos = (382,714);
},
{
name = top_left_can;
pos = (78,714);
},
{
name = top_right_can;
pos = (382,714);
}
);
background = {
anchors = (
{
name = middle_center_can;
pos = (251,458);
},
{
name = top_center_can;
pos = (230,714);
},
{
name = top_double;
pos = (382,714);
},
{
name = top_left_can;
pos = (78,714);
},
{
name = top_right_can;
pos = (382,714);
}
);
shapes = (
{
closed = 1;
nodes = (
(336,-12,o),
(394,76,o),
(394,220,cs),
(394,714,l),
(369,714,l),
(369,217,ls),
(369,88,o),
(322,12,o),
(231,12,cs),
(136,12,o),
(90,87,o),
(90,210,cs),
(90,304,l),
(65,304,l),
(65,210,ls),
(65,76,o),
(123,-12,o),
(231,-12,cs)
);
}
);
};
layerId = "341CD669-D84F-4333-8BC8-F9777E6D3814";
shapes = (
{
closed = 1;
nodes = (
(336,-12,o),
(394,76,o),
(394,220,cs),
(394,714,l),
(369,714,l),
(369,217,ls),
(369,88,o),
(322,12,o),
(231,12,cs),
(136,12,o),
(90,87,o),
(90,210,cs),
(90,304,l),
(65,304,l),
(65,210,ls),
(65,76,o),
(123,-12,o),
(231,-12,cs)
);
}
);
width = 464;
},
{
anchors = (
{
name = middle_center_can;
pos = (243,363);
},
{
name = top_center_can;
pos = (244,714);
},
{
name = top_double;
pos = (371,714);
},
{
name = top_left_can;
pos = (116,714);
},
{
name = top_right_can;
pos = (371,714);
}
);
background = {
anchors = (
{
name = middle_center_can;
pos = (243,363);
},
{
name = top_center_can;
pos = (244,714);
},
{
name = top_double;
pos = (371,714);
},
{
name = top_left_can;
pos = (116,714);
},
{
name = top_right_can;
pos = (371,714);
}
);
shapes = (
{
closed = 1;
nodes = (
(388,-15,o),
(462,85,o),
(462,250,cs),
(462,714,l),
(279,714,l),
(279,214,ls),
(279,163,o),
(265,144,o),
(243,144,cs),
(219,144,o),
(206,166,o),
(206,213,cs),
(206,324,l),
(25,324,l),
(25,251,ls),
(25,73,o),
(109,-15,o),
(249,-15,cs)
);
}
);
};
layerId = "4DD67900-F9B0-4F36-BC45-F4B21129580C";
shapes = (
{
closed = 1;
nodes = (
(388,-15,o),
(462,85,o),
(462,250,cs),
(462,714,l),
(279,714,l),
(279,214,ls),
(279,163,o),
(265,144,o),
(243,144,cs),
(219,144,o),
(206,166,o),
(206,213,cs),
(206,324,l),
(25,324,l),
(25,251,ls),
(25,73,o),
(109,-15,o),
(249,-15,cs)
);
}
);
width = 502;
}
);
metricLeft = "ce-canadian";
metricRight = "te-canadian";
note = uni148D;
unicode = 5261;
},
{
color = 2;
glyphname = "ca-canadian";
kernRight = caright;
lastChange = "2022-10-04 10:12:24 +0000";
layers = (
{
anchors = (
{
name = middle_center_can;
pos = (355,457);
},
{
name = top_center_can;
pos = (323,714);
},
{
name = top_left_can;
pos = (103,714);
},
{
name = top_right_can;
pos = (543,714);
}
);
background = {
anchors = (
{
name = middle_center_can;
pos = (355,457);
},
{
name = top_center_can;
pos = (323,714);
},
{
name = top_left_can;
pos = (103,714);
},
{
name = top_right_can;
pos = (543,714);
}
);
shapes = (
{
closed = 1;
nodes = (
(469,-12,o),
(554,83,o),
(554,245,cs),
(554,304,l),
(528,304,l),
(528,247,ls),
(528,95,o),
(455,13,o),
(324,13,cs),
(190,13,o),
(116,97,o),
(116,242,cs),
(116,714,l),
(90,714,l),
(90,245,ls),
(90,81,o),
(179,-12,o),
(324,-12,cs)
);
}
);
};
layerId = m01;
shapes = (
{
closed = 1;
nodes = (
(469,-12,o),
(554,83,o),
(554,245,cs),
(554,304,l),
(528,304,l),
(528,247,ls),
(528,95,o),
(455,13,o),
(324,13,cs),
(190,13,o),
(116,97,o),
(116,242,cs),
(116,714,l),
(90,714,l),
(90,245,ls),
(90,81,o),
(179,-12,o),
(324,-12,cs)
);
}
);
width = 644;
},
{
anchors = (
{
name = middle_center_can;
pos = (322,357);
},
{
name = top_center_can;
pos = (350,714);
},
{
name = top_left_can;
pos = (157,714);
},
{
name = top_right_can;
pos = (529,714);
}
);
background = {
anchors = (
{
name = middle_center_can;
pos = (322,357);
},
{
name = top_center_can;
pos = (350,714);
},
{
name = top_left_can;
pos = (157,714);
},
{
name = top_right_can;
pos = (529,714);
}
);
shapes = (
{
closed = 1;
nodes = (
(520,-15,o),
(624,93,o),
(624,273,cs),
(624,324,l),
(433,324,l),
(433,268,ls),
(433,187,o),
(402,151,o),
(345,151,cs),
(285,151,o),
(253,190,o),
(253,271,cs),
(253,714,l),
(60,714,l),
(60,271,ls),
(60,88,o),
(160,-15,o),
(345,-15,cs)
);
}
);
};
layerId = "A1461942-0433-4891-A171-8512F51D8C86";
shapes = (
{
closed = 1;
nodes = (
(520,-15,o),
(624,93,o),
(624,273,cs),
(624,324,l),
(433,324,l),
(433,268,ls),
(433,187,o),
(402,151,o),
(345,151,cs),
(285,151,o),
(253,190,o),
(253,271,cs),
(253,714,l),
(60,714,l),
(60,271,ls),
(60,88,o),
(160,-15,o),
(345,-15,cs)
);
}
);
width = 664;
},
{
anchors = (
{
name = middle_center_can;
pos = (256,458);
},
{
name = top_center_can;
pos = (236,714);
},
{
name = top_left_can;
pos = (83,714);
},
{
name = top_right_can;
pos = (387,714);
}
);
background = {
anchors = (
{
name = middle_center_can;
pos = (256,458);
},
{
name = top_center_can;
pos = (236,714);
},
{
name = top_left_can;
pos = (83,714);
},
{
name = top_right_can;
pos = (387,714);
}
);
shapes = (
{
closed = 1;
nodes = (
(341,-12,o),
(399,76,o),
(399,210,cs),
(399,304,l),
(374,304,l),
(374,210,ls),
(374,87,o),
(328,12,o),
(233,12,cs),
(142,12,o),
(95,88,o),
(95,217,cs),
(95,714,l),
(70,714,l),
(70,220,ls),
(70,76,o),
(128,-12,o),
(233,-12,cs)
);
}
);
};
layerId = "341CD669-D84F-4333-8BC8-F9777E6D3814";
shapes = (
{
closed = 1;
nodes = (
(341,-12,o),
(399,76,o),
(399,210,cs),
(399,304,l),
(374,304,l),
(374,210,ls),
(374,87,o),
(328,12,o),
(233,12,cs),
(142,12,o),
(95,88,o),
(95,217,cs),
(95,714,l),
(70,714,l),
(70,220,ls),
(70,76,o),
(128,-12,o),
(233,-12,cs)
);
}
);
width = 464;
},
{
anchors = (
{
name = middle_center_can;
pos = (260,363);
},
{
name = top_center_can;
pos = (260,714);
},
{
name = top_left_can;
pos = (132,714);
},
{
name = top_right_can;
pos = (387,714);
}
);
background = {
anchors = (
{
name = middle_center_can;
pos = (260,363);
},
{
name = top_center_can;
pos = (260,714);
},
{
name = top_left_can;
pos = (132,714);
},
{
name = top_right_can;
pos = (387,714);
}
);
shapes = (
{
closed = 1;
nodes = (
(393,-15,o),
(477,73,o),
(477,251,cs),
(477,324,l),
(296,324,l),
(296,213,ls),
(296,166,o),
(283,144,o),
(259,144,cs),
(237,144,o),
(223,163,o),
(223,214,cs),
(223,714,l),
(40,714,l),
(40,250,ls),
(40,85,o),
(114,-15,o),
(256,-15,cs)
);
}
);
};
layerId = "4DD67900-F9B0-4F36-BC45-F4B21129580C";
shapes = (
{
closed = 1;
nodes = (
(393,-15,o),
(477,73,o),
(477,251,cs),
(477,324,l),
(296,324,l),
(296,213,ls),
(296,166,o),
(283,144,o),
(259,144,cs),
(237,144,o),
(223,163,o),
(223,214,cs),
(223,714,l),
(40,714,l),
(40,250,ls),
(40,85,o),
(114,-15,o),
(256,-15,cs)
);
}
);
width = 502;
}
);
metricLeft = "te-canadian";
metricRight = "=|ce-canadian";
note = uni1490;
unicode = 5264;
},
{
color = 2;
glyphname = "c-canadian";
kernLeft = mwestleft;
kernRight = mwestright;
lastChange = "2022-10-04 14:32:55 +0000";
layers = (
{
background = {
shapes = (
{
closed = 1;
nodes = (
(285,351,o),
(340,397,o),
(340,483,cs),
(340,500,l),
(317,500,l),
(317,479,ls),
(317,409,o),
(275,373,o),
(212,373,cs),
(148,373,o),
(109,410,o),
(109,489,cs),
(109,714,l),
(85,714,l),
(85,491,ls),
(85,399,o),
(136,351,o),
(213,351,cs)
);
}
);
};
layerId = m01;
shapes = (
{
closed = 1;
nodes = (
(285,351,o),
(340,397,o),
(340,483,cs),
(340,500,l),
(317,500,l),
(317,479,ls),
(317,409,o),
(275,373,o),
(212,373,cs),
(148,373,o),
(109,410,o),
(109,489,cs),
(109,714,l),
(85,714,l),
(85,491,ls),
(85,399,o),
(136,351,o),
(213,351,cs)
);
}
);
width = 405;
},
{
background = {
shapes = (
{
closed = 1;
nodes = (
(323,351,o),
(385,405,o),
(385,491,cs),
(385,510,l),
(260,510,l),
(260,490,ls),
(260,467,o),
(247,452,o),
(225,452,cs),
(204,452,o),
(193,467,o),
(193,490,cs),
(193,714,l),
(60,714,l),
(60,506,ls),
(60,404,o),
(116,351,o),
(226,351,cs)
);
}
);
};
layerId = "A1461942-0433-4891-A171-8512F51D8C86";
shapes = (
{
closed = 1;
nodes = (
(323,351,o),
(385,405,o),
(385,491,cs),
(385,510,l),
(260,510,l),
(260,490,ls),
(260,467,o),
(247,452,o),
(225,452,cs),
(204,452,o),
(193,467,o),
(193,490,cs),
(193,714,l),
(60,714,l),
(60,506,ls),
(60,404,o),
(116,351,o),
(226,351,cs)
);
}
);
width = 420;
},
{
background = {
shapes = (
{
closed = 1;
nodes = (
(203,351,o),
(241,394,o),
(241,471,cs),
(241,500,l),
(220,500,l),
(220,469,ls),
(220,406,o),
(194,373,o),
(152,373,cs),
(105,373,o),
(82,405,o),
(82,478,cs),
(82,714,l),
(60,714,l),
(60,478,ls),
(60,393,o),
(96,351,o),
(151,351,cs)
);
}
);
};
layerId = "341CD669-D84F-4333-8BC8-F9777E6D3814";
shapes = (
{
closed = 1;
nodes = (
(203,351,o),
(241,394,o),
(241,471,cs),
(241,500,l),
(220,500,l),
(220,469,ls),
(220,406,o),
(194,373,o),
(152,373,cs),
(105,373,o),
(82,405,o),
(82,478,cs),
(82,714,l),
(60,714,l),
(60,478,ls),
(60,393,o),
(96,351,o),
(151,351,cs)
);
}
);
width = 281;
},
{
background = {
shapes = (
{
closed = 1;
nodes = (
(243,351,o),
(290,399,o),
(290,485,cs),
(290,509,l),
(182,509,l),
(182,463,ls),
(182,451,o),
(176,442,o),
(166,442,cs),
(156,442,o),
(153,450,o),
(153,463,cs),
(153,714,l),
(35,714,l),
(35,485,ls),
(35,399,o),
(79,351,o),
(164,351,cs)
);
}
);
};
layerId = "4DD67900-F9B0-4F36-BC45-F4B21129580C";
shapes = (
{
closed = 1;
nodes = (
(243,351,o),
(290,399,o),
(290,485,cs),
(290,509,l),
(182,509,l),
(182,463,ls),
(182,451,o),
(176,442,o),
(166,442,cs),
(156,442,o),
(153,450,o),
(153,463,cs),
(153,714,l),
(35,714,l),
(35,485,ls),
(35,399,o),
(79,351,o),
(164,351,cs)
);
}
);
width = 305;
}
);
note = uni14A1;
unicode = 5281;
},
{
color = 2;
glyphname = "thSayisi-canadian";
lastChange = "2022-10-04 15:23:01 +0000";
layers = (
{
background = {
shapes = (
{
closed = 1;
nodes = (
(269,351,o),
(320,399,o),
(320,491,cs),
(320,714,l),
(296,714,l),
(296,489,ls),
(296,410,o),
(257,373,o),
(193,373,cs),
(130,373,o),
(88,409,o),
(88,479,cs),
(88,500,l),
(65,500,l),
(65,483,ls),
(65,397,o),
(120,351,o),
(192,351,cs)
);
}
);
};
layerId = m01;
shapes = (
{
closed = 1;
nodes = (
(269,351,o),
(320,399,o),
(320,491,cs),
(320,714,l),
(296,714,l),
(296,489,ls),
(296,410,o),
(257,373,o),
(193,373,cs),
(130,373,o),
(88,409,o),
(88,479,cs),
(88,500,l),
(65,500,l),
(65,483,ls),
(65,397,o),
(120,351,o),
(192,351,cs)
);
}
);
width = 405;
},
{
background = {
shapes = (
{
closed = 1;
nodes = (
(304,351,o),
(360,404,o),
(360,506,cs),
(360,714,l),
(227,714,l),
(227,490,ls),
(227,467,o),
(216,452,o),
(195,452,cs),
(173,452,o),
(160,467,o),
(160,490,cs),
(160,510,l),
(35,510,l),
(35,491,ls),
(35,405,o),
(97,351,o),
(194,351,cs)
);
}
);
};
layerId = "A1461942-0433-4891-A171-8512F51D8C86";
shapes = (
{
closed = 1;
nodes = (
(304,351,o),
(360,404,o),
(360,506,cs),
(360,714,l),
(227,714,l),
(227,490,ls),
(227,467,o),
(216,452,o),
(195,452,cs),
(173,452,o),
(160,467,o),
(160,490,cs),
(160,510,l),
(35,510,l),
(35,491,ls),
(35,405,o),
(97,351,o),
(194,351,cs)
);
}
);
width = 420;
},
{
background = {
shapes = (
{
closed = 1;
nodes = (
(185,351,o),
(221,393,o),
(221,478,cs),
(221,714,l),
(199,714,l),
(199,478,ls),
(199,405,o),
(176,373,o),
(129,373,cs),
(87,373,o),
(61,406,o),
(61,469,cs),
(61,500,l),
(40,500,l),
(40,471,ls),
(40,394,o),
(78,351,o),
(130,351,cs)
);
}
);
};
layerId = "341CD669-D84F-4333-8BC8-F9777E6D3814";
shapes = (
{
closed = 1;
nodes = (
(185,351,o),
(221,393,o),
(221,478,cs),
(221,714,l),
(199,714,l),
(199,478,ls),
(199,405,o),
(176,373,o),
(129,373,cs),
(87,373,o),
(61,406,o),
(61,469,cs),
(61,500,l),
(40,500,l),
(40,471,ls),
(40,394,o),
(78,351,o),
(130,351,cs)
);
}
);
width = 281;
},
{
background = {
shapes = (
{
closed = 1;
nodes = (
(226,351,o),
(270,399,o),
(270,485,cs),
(270,714,l),
(152,714,l),
(152,463,ls),
(152,450,o),
(149,442,o),
(139,442,cs),
(129,442,o),
(123,451,o),
(123,463,cs),
(123,509,l),
(15,509,l),
(15,485,ls),
(15,399,o),
(62,351,o),
(148,351,cs)
);
}
);
};
layerId = "4DD67900-F9B0-4F36-BC45-F4B21129580C";
shapes = (
{
closed = 1;
nodes = (
(226,351,o),
(270,399,o),
(270,485,cs),
(270,714,l),
(152,714,l),
(152,463,ls),
(152,450,o),
(149,442,o),
(139,442,cs),
(129,442,o),
(123,451,o),
(123,463,cs),
(123,509,l),
(15,509,l),
(15,485,ls),
(15,399,o),
(62,351,o),
(148,351,cs)
);
}
);
width = 305;
}
);
metricLeft = "=|c-canadian";
metricRight = "=|c-canadian";
note = uni14A2;
unicode = 5282;
},
{
color = 2;
glyphname = "me-canadian";
kernLeft = meleft;
lastChange = "2022-10-03 15:45:54 +0000";
layers = (
{
anchors = (
{
name = middle_center_can;
pos = (242,357);
},
{
name = top_center_can;
pos = (255,714);
},
{
name = top_left_can;
pos = (63,714);
},
{
name = top_right_can;
pos = (447,714);
}
);
background = {
anchors = (
{
name = middle_center_can;
pos = (242,357);
},
{
name = top_center_can;
pos = (255,714);
},
{
name = top_left_can;
pos = (63,714);
},
{
name = top_right_can;
pos = (447,714);
}
);
shapes = (
{
closed = 1;
nodes = (
(460,0,l),
(460,714,l),
(50,714,l),
(50,689,l),
(434,689,l),
(434,0,l)
);
}
);
};
layerId = m01;
shapes = (
{
closed = 1;
nodes = (
(460,0,l),
(460,714,l),
(50,714,l),
(50,689,l),
(434,689,l),
(434,0,l)
);
}
);
width = 560;
},
{
anchors = (
{
name = middle_center_can;
pos = (206,357);
},
{
name = top_center_can;
pos = (307,714);
},
{
name = top_left_can;
pos = (135,714);
},
{
name = top_right_can;
pos = (469,714);
}
);
background = {
anchors = (
{
name = middle_center_can;
pos = (206,357);
},
{
name = top_center_can;
pos = (307,714);
},
{
name = top_left_can;
pos = (135,714);
},
{
name = top_right_can;
pos = (469,714);
}
);
shapes = (
{
closed = 1;
nodes = (
(565,0,l),
(565,714,l),
(39,714,l),
(39,543,l),
(372,543,l),
(372,0,l)
);
}
);
};
layerId = "A1461942-0433-4891-A171-8512F51D8C86";
shapes = (
{
closed = 1;
nodes = (
(565,0,l),
(565,714,l),
(39,714,l),
(39,543,l),
(372,543,l),
(372,0,l)
);
}
);
width = 635;
},
{
anchors = (
{
name = middle_center_can;
pos = (171,357);
},
{
name = top_center_can;
pos = (184,714);
},
{
name = top_left_can;
pos = (50,714);
},
{
name = top_right_can;
pos = (317,714);
}
);
background = {
anchors = (
{
name = middle_center_can;
pos = (171,357);
},
{
name = top_center_can;
pos = (184,714);
},
{
name = top_left_can;
pos = (50,714);
},
{
name = top_right_can;
pos = (317,714);
}
);
shapes = (
{
closed = 1;
nodes = (
(330,0,l),
(330,714,l),
(38,714,l),
(38,690,l),
(305,690,l),
(305,0,l)
);
}
);
};
layerId = "341CD669-D84F-4333-8BC8-F9777E6D3814";
shapes = (
{
closed = 1;
nodes = (
(330,0,l),
(330,714,l),
(38,714,l),
(38,690,l),
(305,690,l),
(305,0,l)
);
}
);
width = 405;
},
{
anchors = (
{
name = middle_center_can;
pos = (141,357);
},
{
name = top_center_can;
pos = (237,714);
},
{
name = top_left_can;
pos = (118,714);
},
{
name = top_right_can;
pos = (345,714);
}
);
background = {
anchors = (
{
name = middle_center_can;
pos = (141,357);
},
{
name = top_center_can;
pos = (237,714);
},
{
name = top_left_can;
pos = (118,714);
},
{
name = top_right_can;
pos = (345,714);
}
);
shapes = (
{
closed = 1;
nodes = (
(436,0,l),
(436,714,l),
(27,714,l),
(27,547,l),
(253,547,l),
(253,0,l)
);
}
);
};
layerId = "4DD67900-F9B0-4F36-BC45-F4B21129580C";
shapes = (
{
closed = 1;
nodes = (
(436,0,l),
(436,714,l),
(27,714,l),
(27,547,l),
(253,547,l),
(253,0,l)
);
}
);
width = 476;
}
);
metricRight = "nunavuth-canadian";
note = uni14A3;
unicode = 5283;
},
{
color = 2;
glyphname = "mi-canadian";
kernRight = miright;
lastChange = "2022-10-04 11:15:28 +0000";
layers = (
{
anchors = (
{
name = middle_center_can;
pos = (318,357);
},
{
name = top_center_can;
pos = (305,714);
},
{
name = top_left_can;
pos = (113,714);
},
{
name = top_right_can;
pos = (497,714);
}
);
background = {
anchors = (
{
name = middle_center_can;
pos = (318,357);
},
{
name = top_center_can;
pos = (305,714);
},
{
name = top_left_can;
pos = (113,714);
},
{
name = top_right_can;
pos = (497,714);
}
);
shapes = (
{
closed = 1;
nodes = (
(126,0,l),
(126,689,l),
(510,689,l),
(510,714,l),
(100,714,l),
(100,0,l)
);
}
);
};
layerId = m01;
shapes = (
{
closed = 1;
nodes = (
(126,0,l),
(126,689,l),
(510,689,l),
(510,714,l),
(100,714,l),
(100,0,l)
);
}
);
width = 560;
},
{
anchors = (
{
name = middle_center_can;
pos = (430,357);
},
{
name = top_center_can;
pos = (333,714);
},
{
name = top_left_can;
pos = (167,714);
},
{
name = top_right_can;
pos = (500,714);
}
);
background = {
anchors = (
{
name = middle_center_can;
pos = (430,357);
},
{
name = top_center_can;
pos = (333,714);
},
{
name = top_left_can;
pos = (167,714);
},
{
name = top_right_can;
pos = (500,714);
}
);
shapes = (
{
closed = 1;
nodes = (
(263,0,l),
(263,543,l),
(596,543,l),
(596,714,l),
(70,714,l),
(70,0,l)
);
}
);
};
layerId = "A1461942-0433-4891-A171-8512F51D8C86";
shapes = (
{
closed = 1;
nodes = (
(263,0,l),
(263,543,l),
(596,543,l),
(596,714,l),
(70,714,l),
(70,0,l)
);
}
);
width = 635;
},
{
anchors = (
{
name = middle_center_can;
pos = (234,357);
},
{
name = top_center_can;
pos = (221,714);
},
{
name = top_left_can;
pos = (88,714);
},
{
name = top_right_can;
pos = (354,714);
}
);
background = {
anchors = (
{
name = middle_center_can;
pos = (234,357);
},
{
name = top_center_can;
pos = (221,714);
},
{
name = top_left_can;
pos = (88,714);
},
{
name = top_right_can;
pos = (354,714);
}
);
shapes = (
{
closed = 1;
nodes = (
(100,0,l),
(100,690,l),
(367,690,l),
(367,714,l),
(75,714,l),
(75,0,l)
);
}
);
};
layerId = "341CD669-D84F-4333-8BC8-F9777E6D3814";
shapes = (
{
closed = 1;
nodes = (
(100,0,l),
(100,690,l),
(367,690,l),
(367,714,l),
(75,714,l),
(75,0,l)
);
}
);
width = 405;
},
{
anchors = (
{
name = middle_center_can;
pos = (337,357);
},
{
name = top_center_can;
pos = (245,714);
},
{
name = top_left_can;
pos = (132,714);
},
{
name = top_right_can;
pos = (358,714);
}
);
background = {
anchors = (
{
name = middle_center_can;
pos = (337,357);
},
{
name = top_center_can;
pos = (245,714);
},
{
name = top_left_can;
pos = (132,714);
},
{
name = top_right_can;
pos = (358,714);
}
);
shapes = (
{
closed = 1;
nodes = (
(223,0,l),
(223,547,l),
(449,547,l),
(449,714,l),
(40,714,l),
(40,0,l)
);
}
);
};
layerId = "4DD67900-F9B0-4F36-BC45-F4B21129580C";
shapes = (
{
closed = 1;
nodes = (
(223,0,l),
(223,547,l),
(449,547,l),
(449,714,l),
(40,714,l),
(40,0,l)
);
}
);
width = 476;
}
);
metricLeft = "nunavuth-canadian";
metricRight = "=|me-canadian";
note = uni14A5;
unicode = 5285;
},
{
color = 2;
glyphname = "mo-canadian";
kernLeft = moleft;
lastChange = "2022-10-04 11:10:47 +0000";
layers = (
{
anchors = (
{
name = middle_center_can;
pos = (242,357);
},
{
name = top_center_can;
pos = (255,714);
},
{
name = top_double;
pos = (447,714);
},
{
name = top_left_can;
pos = (63,714);
},
{
name = top_right_can;
pos = (447,714);
}
);
background = {
anchors = (
{
name = middle_center_can;
pos = (242,357);
},
{
name = top_center_can;
pos = (255,714);
},
{
name = top_double;
pos = (447,714);
},
{
name = top_left_can;
pos = (63,714);
},
{
name = top_right_can;
pos = (447,714);
}
);
shapes = (
{
closed = 1;
nodes = (
(460,0,l),
(460,714,l),
(434,714,l),
(434,25,l),
(50,25,l),
(50,0,l)
);
}
);
};
layerId = m01;
shapes = (
{
closed = 1;
nodes = (
(460,0,l),
(460,714,l),
(434,714,l),
(434,25,l),
(50,25,l),
(50,0,l)
);
}
);
width = 560;
},
{
anchors = (
{
name = middle_center_can;
pos = (206,357);
},
{
name = top_center_can;
pos = (307,714);
},
{
name = top_double;
pos = (469,714);
},
{
name = top_left_can;
pos = (135,714);
},
{
name = top_right_can;
pos = (469,714);
}
);
background = {
anchors = (
{
name = middle_center_can;
pos = (206,357);
},
{
name = top_center_can;
pos = (307,714);
},
{
name = top_double;
pos = (469,714);
},
{
name = top_left_can;
pos = (135,714);
},
{
name = top_right_can;
pos = (469,714);
}
);
shapes = (
{
closed = 1;
nodes = (
(565,0,l),
(565,714,l),
(372,714,l),
(372,171,l),
(39,171,l),
(39,0,l)
);
}
);
};
layerId = "A1461942-0433-4891-A171-8512F51D8C86";
shapes = (
{
closed = 1;
nodes = (
(565,0,l),
(565,714,l),
(372,714,l),
(372,171,l),
(39,171,l),
(39,0,l)
);
}
);
width = 635;
},
{
anchors = (
{
name = middle_center_can;
pos = (171,357);
},
{
name = top_center_can;
pos = (184,714);
},
{
name = top_double;
pos = (318,714);
},
{
name = top_left_can;
pos = (50,714);
},
{
name = top_right_can;
pos = (317,714);
}
);
background = {
anchors = (
{
name = middle_center_can;
pos = (171,357);
},
{
name = top_center_can;
pos = (184,714);
},
{
name = top_double;
pos = (318,714);
},
{
name = top_left_can;
pos = (50,714);
},
{
name = top_right_can;
pos = (317,714);
}
);
shapes = (
{
closed = 1;
nodes = (
(330,0,l),
(330,714,l),
(305,714,l),
(305,24,l),
(38,24,l),
(38,0,l)
);
}
);
};
layerId = "341CD669-D84F-4333-8BC8-F9777E6D3814";
shapes = (
{
closed = 1;
nodes = (
(330,0,l),
(330,714,l),
(305,714,l),
(305,24,l),
(38,24,l),
(38,0,l)
);
}
);
width = 405;
},
{
anchors = (
{
name = middle_center_can;
pos = (141,357);
},
{
name = top_center_can;
pos = (237,714);
},
{
name = top_double;
pos = (345,714);
},
{
name = top_left_can;
pos = (118,714);
},
{
name = top_right_can;
pos = (345,714);
}
);
background = {
anchors = (
{
name = middle_center_can;
pos = (141,357);
},
{
name = top_center_can;
pos = (237,714);
},
{
name = top_double;
pos = (345,714);
},
{
name = top_left_can;
pos = (118,714);
},
{
name = top_right_can;
pos = (345,714);
}
);
shapes = (
{
closed = 1;
nodes = (
(436,0,l),
(436,714,l),
(253,714,l),
(253,167,l),
(27,167,l),
(27,0,l)
);
}
);
};
layerId = "4DD67900-F9B0-4F36-BC45-F4B21129580C";
shapes = (
{
closed = 1;
nodes = (
(436,0,l),
(436,714,l),
(253,714,l),
(253,167,l),
(27,167,l),
(27,0,l)
);
}
);
width = 476;
}
);
metricLeft = "me-canadian";
metricRight = "nunavuth-canadian";
note = uni14A7;
unicode = 5287;
},
{
color = 2;
glyphname = "ma-canadian";
kernRight = maright;
lastChange = "2022-10-04 11:15:58 +0000";
layers = (
{
anchors = (
{
name = middle_center_can;
pos = (318,357);
},
{
name = top_center_can;
pos = (305,714);
},
{
name = top_left_can;
pos = (113,714);
},
{
name = top_right_can;
pos = (497,714);
}
);
background = {
anchors = (
{
name = middle_center_can;
pos = (318,357);
},
{
name = top_center_can;
pos = (305,714);
},
{
name = top_left_can;
pos = (113,714);
},
{
name = top_right_can;
pos = (497,714);
}
);
shapes = (
{
closed = 1;
nodes = (
(510,0,l),
(510,25,l),
(126,25,l),
(126,714,l),
(100,714,l),
(100,0,l)
);
}
);
};
layerId = m01;
shapes = (
{
closed = 1;
nodes = (
(510,0,l),
(510,25,l),
(126,25,l),
(126,714,l),
(100,714,l),
(100,0,l)
);
}
);
width = 560;
},
{
anchors = (
{
name = middle_center_can;
pos = (430,357);
},
{
name = top_center_can;
pos = (333,714);
},
{
name = top_left_can;
pos = (167,714);
},
{
name = top_right_can;
pos = (499,714);
}
);
background = {
anchors = (
{
name = middle_center_can;
pos = (430,357);
},
{
name = top_center_can;
pos = (333,714);
},
{
name = top_left_can;
pos = (167,714);
},
{
name = top_right_can;
pos = (499,714);
}
);
shapes = (
{
closed = 1;
nodes = (
(596,0,l),
(596,171,l),
(263,171,l),
(263,714,l),
(70,714,l),
(70,0,l)
);
}
);
};
layerId = "A1461942-0433-4891-A171-8512F51D8C86";
shapes = (
{
closed = 1;
nodes = (
(596,0,l),
(596,171,l),
(263,171,l),
(263,714,l),
(70,714,l),
(70,0,l)
);
}
);
width = 635;
},
{
anchors = (
{
name = middle_center_can;
pos = (234,357);
},
{
name = top_center_can;
pos = (221,714);
},
{
name = top_left_can;
pos = (88,714);
},
{
name = top_right_can;
pos = (354,714);
}
);
background = {
anchors = (
{
name = middle_center_can;
pos = (234,357);
},
{
name = top_center_can;
pos = (221,714);
},
{
name = top_left_can;
pos = (88,714);
},
{
name = top_right_can;
pos = (354,714);
}
);
shapes = (
{
closed = 1;
nodes = (
(367,0,l),
(367,24,l),
(100,24,l),
(100,714,l),
(75,714,l),
(75,0,l)
);
}
);
};
layerId = "341CD669-D84F-4333-8BC8-F9777E6D3814";
shapes = (
{
closed = 1;
nodes = (
(367,0,l),
(367,24,l),
(100,24,l),
(100,714,l),
(75,714,l),
(75,0,l)
);
}
);
width = 405;
},
{
anchors = (
{
name = middle_center_can;
pos = (337,357);
},
{
name = top_center_can;
pos = (245,714);
},
{
name = top_left_can;
pos = (132,714);
},
{
name = top_right_can;
pos = (357,714);
}
);
background = {
anchors = (
{
name = middle_center_can;
pos = (337,357);
},
{
name = top_center_can;
pos = (245,714);
},
{
name = top_left_can;
pos = (132,714);
},
{
name = top_right_can;
pos = (357,714);
}
);
shapes = (
{
closed = 1;
nodes = (
(449,0,l),
(449,167,l),
(223,167,l),
(223,714,l),
(40,714,l),
(40,0,l)
);
}
);
};
layerId = "4DD67900-F9B0-4F36-BC45-F4B21129580C";
shapes = (
{
closed = 1;
nodes = (
(449,0,l),
(449,167,l),
(223,167,l),
(223,714,l),
(40,714,l),
(40,0,l)
);
}
);
width = 476;
}
);
metricLeft = "nunavuth-canadian";
metricRight = "=|me-canadian";
note = uni14AA;
unicode = 5290;
},
{
color = 2;
glyphname = "m-canadian";
kernLeft = mwestleft;
kernRight = mwestright;
lastChange = "2022-10-04 15:44:30 +0000";
layers = (
{
background = {
shapes = (
{
closed = 1;
nodes = (
(312,379,l),
(109,379,l),
(109,714,l),
(85,714,l),
(85,357,l),
(312,357,l)
);
}
);
};
layerId = m01;
shapes = (
{
closed = 1;
nodes = (
(312,379,l),
(109,379,l),
(109,714,l),
(85,714,l),
(85,357,l),
(312,357,l)
);
}
);
width = 377;
},
{
background = {
shapes = (
{
closed = 1;
nodes = (
(342,479,l),
(193,479,l),
(193,714,l),
(60,714,l),
(60,357,l),
(342,357,l)
);
}
);
};
layerId = "A1461942-0433-4891-A171-8512F51D8C86";
shapes = (
{
closed = 1;
nodes = (
(342,479,l),
(193,479,l),
(193,714,l),
(60,714,l),
(60,357,l),
(342,357,l)
);
}
);
width = 392;
},
{
background = {
shapes = (
{
closed = 1;
nodes = (
(221,379,l),
(82,379,l),
(82,714,l),
(60,714,l),
(60,357,l),
(221,357,l)
);
}
);
};
layerId = "341CD669-D84F-4333-8BC8-F9777E6D3814";
shapes = (
{
closed = 1;
nodes = (
(221,379,l),
(82,379,l),
(82,714,l),
(60,714,l),
(60,357,l),
(221,357,l)
);
}
);
width = 256;
},
{
background = {
shapes = (
{
closed = 1;
nodes = (
(261,469,l),
(153,469,l),
(153,714,l),
(35,714,l),
(35,357,l),
(261,357,l)
);
}
);
};
layerId = "4DD67900-F9B0-4F36-BC45-F4B21129580C";
shapes = (
{
closed = 1;
nodes = (
(261,469,l),
(153,469,l),
(153,714,l),
(35,714,l),
(35,357,l),
(261,357,l)
);
}
);
width = 281;
}
);
metricLeft = "pWestCree-canadian";
note = uni14BB;
unicode = 5307;
},
{
color = 2;
glyphname = "mh-canadian";
kernLeft = mwestleft;
kernRight = mwestright;
lastChange = "2022-10-04 14:27:36 +0000";
layers = (
{
background = {
shapes = (
{
closed = 1;
nodes = (
(292,357,l),
(292,714,l),
(268,714,l),
(268,379,l),
(65,379,l),
(65,357,l)
);
}
);
};
layerId = m01;
shapes = (
{
closed = 1;
nodes = (
(292,357,l),
(292,714,l),
(268,714,l),
(268,379,l),
(65,379,l),
(65,357,l)
);
}
);
width = 377;
},
{
background = {
shapes = (
{
closed = 1;
nodes = (
(332,357,l),
(332,714,l),
(199,714,l),
(199,479,l),
(50,479,l),
(50,357,l)
);
}
);
};
layerId = "A1461942-0433-4891-A171-8512F51D8C86";
shapes = (
{
closed = 1;
nodes = (
(332,357,l),
(332,714,l),
(199,714,l),
(199,479,l),
(50,479,l),
(50,357,l)
);
}
);
width = 392;
},
{
background = {
shapes = (
{
closed = 1;
nodes = (
(196,357,l),
(196,714,l),
(175,714,l),
(175,379,l),
(35,379,l),
(35,357,l)
);
}
);
};
layerId = "341CD669-D84F-4333-8BC8-F9777E6D3814";
shapes = (
{
closed = 1;
nodes = (
(196,357,l),
(196,714,l),
(175,714,l),
(175,379,l),
(35,379,l),
(35,357,l)
);
}
);
width = 256;
},
{
background = {
shapes = (
{
closed = 1;
nodes = (
(246,357,l),
(246,714,l),
(128,714,l),
(128,469,l),
(20,469,l),
(20,357,l)
);
}
);
};
layerId = "4DD67900-F9B0-4F36-BC45-F4B21129580C";
shapes = (
{
closed = 1;
nodes = (
(246,357,l),
(246,714,l),
(128,714,l),
(128,469,l),
(20,469,l),
(20,357,l)
);
}
);
width = 281;
}
);
metricLeft = "=|m-canadian";
metricRight = "=|m-canadian";
note = uni14BD;
unicode = 5309;
},
{
color = 2;
glyphname = "mAthapascan-canadian";
lastChange = "2022-09-28 16:00:22 +0000";
layers = (
{
background = {
shapes = (
{
closed = 1;
nodes = (
(334,357,l),
(334,379,l),
(121,379,l),
(121,364,l),
(258,502,ls),
(294,538,o),
(308,572,o),
(308,619,cs),
(308,679,o),
(262,720,o),
(194,720,cs),
(120,720,o),
(75,672,o),
(75,593,c),
(98,593,l),
(98,662,o),
(133,698,o),
(196,698,cs),
(252,698,o),
(285,669,o),
(285,618,cs),
(285,573,o),
(271,545,o),
(233,507,cs),
(92,366,l),
(92,357,l)
);
}
);
};
layerId = m01;
shapes = (
{
closed = 1;
nodes = (
(334,357,l),
(334,379,l),
(121,379,l),
(121,364,l),
(258,502,ls),
(294,538,o),
(308,572,o),
(308,619,cs),
(308,679,o),
(262,720,o),
(194,720,cs),
(120,720,o),
(75,672,o),
(75,593,c),
(98,593,l),
(98,662,o),
(133,698,o),
(196,698,cs),
(252,698,o),
(285,669,o),
(285,618,cs),
(285,573,o),
(271,545,o),
(233,507,cs),
(92,366,l),
(92,357,l)
);
}
);
width = 399;
},
{
background = {
shapes = (
{
closed = 1;
nodes = (
(353,357,l),
(353,457,l),
(190,457,l),
(190,408,l),
(290,495,ls),
(331,531,o),
(346,567,o),
(346,603,cs),
(346,678,o),
(291,720,o),
(202,720,cs),
(104,720,o),
(50,665,o),
(45,587,c),
(162,587,l),
(162,609,o),
(174,626,o),
(199,626,cs),
(220,626,o),
(230,615,o),
(230,598,cs),
(230,580,o),
(220,565,o),
(195,543,cs),
(58,425,l),
(58,357,l)
);
}
);
};
layerId = "A1461942-0433-4891-A171-8512F51D8C86";
shapes = (
{
closed = 1;
nodes = (
(353,357,l),
(353,457,l),
(190,457,l),
(190,408,l),
(290,495,ls),
(331,531,o),
(346,567,o),
(346,603,cs),
(346,678,o),
(291,720,o),
(202,720,cs),
(104,720,o),
(50,665,o),
(45,587,c),
(162,587,l),
(162,609,o),
(174,626,o),
(199,626,cs),
(220,626,o),
(230,615,o),
(230,598,cs),
(230,580,o),
(220,565,o),
(195,543,cs),
(58,425,l),
(58,357,l)
);
}
);
width = 398;
},
{
background = {
shapes = (
{
closed = 1;
nodes = (
(238,357,l),
(238,379,l),
(91,379,l),
(91,364,l),
(183,501,ls),
(217,552,o),
(221,584,o),
(221,620,cs),
(221,682,o),
(187,720,o),
(140,720,cs),
(86,720,o),
(55,679,o),
(55,601,c),
(77,601,l),
(77,670,o),
(97,699,o),
(140,699,cs),
(179,699,o),
(199,670,o),
(199,620,cs),
(199,588,o),
(198,562,o),
(163,509,cs),
(67,366,l),
(67,357,l)
);
}
);
};
layerId = "341CD669-D84F-4333-8BC8-F9777E6D3814";
shapes = (
{
closed = 1;
nodes = (
(238,357,l),
(238,379,l),
(91,379,l),
(91,364,l),
(183,501,ls),
(217,552,o),
(221,584,o),
(221,620,cs),
(221,682,o),
(187,720,o),
(140,720,cs),
(86,720,o),
(55,679,o),
(55,601,c),
(77,601,l),
(77,670,o),
(97,699,o),
(140,699,cs),
(179,699,o),
(199,670,o),
(199,620,cs),
(199,588,o),
(198,562,o),
(163,509,cs),
(67,366,l),
(67,357,l)
);
}
);
width = 283;
},
{
background = {
shapes = (
{
closed = 1;
nodes = (
(264,357,l),
(264,457,l),
(148,457,l),
(150,410,l),
(217,487,ls),
(249,524,o),
(264,572,o),
(264,608,cs),
(264,664,o),
(237,720,o),
(151,720,cs),
(67,720,o),
(25,664,o),
(25,587,c),
(129,587,l),
(129,629,o),
(135,638,o),
(146,638,cs),
(156,638,o),
(160,629,o),
(160,608,cs),
(160,582,o),
(157,560,o),
(122,520,cs),
(37,421,l),
(37,357,l)
);
}
);
};
layerId = "4DD67900-F9B0-4F36-BC45-F4B21129580C";
shapes = (
{
closed = 1;
nodes = (
(264,357,l),
(264,457,l),
(148,457,l),
(150,410,l),
(217,487,ls),
(249,524,o),
(264,572,o),
(264,608,cs),
(264,664,o),
(237,720,o),
(151,720,cs),
(67,720,o),
(25,664,o),
(25,587,c),
(129,587,l),
(129,629,o),
(135,638,o),
(146,638,cs),
(156,638,o),
(160,629,o),
(160,608,cs),
(160,582,o),
(157,560,o),
(122,520,cs),
(37,421,l),
(37,357,l)
);
}
);
width = 294;
}
);
note = uni14BE;
unicode = 5310;
},
{
color = 2;
glyphname = "mSayisi-canadian";
lastChange = "2022-09-29 19:49:16 +0000";
layers = (
{
background = {
shapes = (
{
closed = 1;
nodes = (
(566,25,l),
(139,25,l),
(139,14,l),
(415,274,ls),
(542,394,o),
(556,452,o),
(556,531,cs),
(556,631,o),
(484,726,o),
(337,726,cs),
(176,726,o),
(90,625,o),
(90,472,c),
(116,472,l),
(116,612,o),
(191,701,o),
(337,701,cs),
(471,701,o),
(530,619,o),
(530,532,cs),
(530,458,o),
(516,403,o),
(396,289,cs),
(112,21,l),
(112,0,l),
(566,0,l)
);
}
);
};
layerId = m01;
shapes = (
{
closed = 1;
nodes = (
(566,25,l),
(139,25,l),
(139,14,l),
(415,274,ls),
(542,394,o),
(556,452,o),
(556,531,cs),
(556,631,o),
(484,726,o),
(337,726,cs),
(176,726,o),
(90,625,o),
(90,472,c),
(116,472,l),
(116,612,o),
(191,701,o),
(337,701,cs),
(471,701,o),
(530,619,o),
(530,532,cs),
(530,458,o),
(516,403,o),
(396,289,cs),
(112,21,l),
(112,0,l),
(566,0,l)
);
}
);
width = 646;
},
{
background = {
shapes = (
{
closed = 1;
nodes = (
(626,171,l),
(297,171,l),
(297,113,l),
(492,275,ls),
(584,351,o),
(611,421,o),
(611,498,cs),
(611,638,o),
(502,729,o),
(340,729,cs),
(160,729,o),
(43,619,o),
(39,462,c),
(230,462,l),
(230,520,o),
(270,557,o),
(333,557,cs),
(387,557,o),
(418,530,o),
(418,485,cs),
(418,448,o),
(406,410,o),
(343,358,cs),
(66,128,l),
(66,0,l),
(626,0,l)
);
}
);
};
layerId = "A1461942-0433-4891-A171-8512F51D8C86";
shapes = (
{
closed = 1;
nodes = (
(626,171,l),
(297,171,l),
(297,113,l),
(492,275,ls),
(584,351,o),
(611,421,o),
(611,498,cs),
(611,638,o),
(502,729,o),
(340,729,cs),
(160,729,o),
(43,619,o),
(39,462,c),
(230,462,l),
(230,520,o),
(270,557,o),
(333,557,cs),
(387,557,o),
(418,530,o),
(418,485,cs),
(418,448,o),
(406,410,o),
(343,358,cs),
(66,128,l),
(66,0,l),
(626,0,l)
);
}
);
width = 666;
},
{
background = {
shapes = (
{
closed = 1;
nodes = (
(393,24,l),
(96,24,l),
(96,13,l),
(310,312,ls),
(369,395,o),
(386,470,o),
(386,541,cs),
(386,660,o),
(325,726,o),
(226,726,cs),
(113,726,o),
(55,640,o),
(55,472,c),
(80,472,l),
(80,628,o),
(127,702,o),
(225,702,cs),
(312,702,o),
(361,648,o),
(361,542,cs),
(361,473,o),
(345,402,o),
(286,320,cs),
(71,20,l),
(71,0,l),
(393,0,l)
);
}
);
};
layerId = "341CD669-D84F-4333-8BC8-F9777E6D3814";
shapes = (
{
closed = 1;
nodes = (
(393,24,l),
(96,24,l),
(96,13,l),
(310,312,ls),
(369,395,o),
(386,470,o),
(386,541,cs),
(386,660,o),
(325,726,o),
(226,726,cs),
(113,726,o),
(55,640,o),
(55,472,c),
(80,472,l),
(80,628,o),
(127,702,o),
(225,702,cs),
(312,702,o),
(361,648,o),
(361,542,cs),
(361,473,o),
(345,402,o),
(286,320,cs),
(71,20,l),
(71,0,l),
(393,0,l)
);
}
);
width = 448;
},
{
background = {
shapes = (
{
closed = 1;
nodes = (
(480,167,l),
(256,167,l),
(260,107,l),
(388,283,ls),
(452,371,o),
(472,445,o),
(472,510,cs),
(472,648,o),
(382,729,o),
(258,729,cs),
(110,729,o),
(28,629,o),
(28,463,c),
(209,463,l),
(209,541,o),
(224,570,o),
(253,570,cs),
(276,570,o),
(289,548,o),
(289,510,cs),
(289,468,o),
(268,416,o),
(226,358,cs),
(49,116,l),
(49,0,l),
(480,0,l)
);
}
);
};
layerId = "4DD67900-F9B0-4F36-BC45-F4B21129580C";
shapes = (
{
closed = 1;
nodes = (
(480,167,l),
(256,167,l),
(260,107,l),
(388,283,ls),
(452,371,o),
(472,445,o),
(472,510,cs),
(472,648,o),
(382,729,o),
(258,729,cs),
(110,729,o),
(28,629,o),
(28,463,c),
(209,463,l),
(209,541,o),
(224,570,o),
(253,570,cs),
(276,570,o),
(289,548,o),
(289,510,cs),
(289,468,o),
(268,416,o),
(226,358,cs),
(49,116,l),
(49,0,l),
(480,0,l)
);
}
);
width = 508;
}
);
note = uni14BF;
unicode = 5311;
},
{
color = 2;
glyphname = "ne-canadian";
kernLeft = neleft;
lastChange = "2022-10-04 09:41:56 +0000";
layers = (
{
anchors = (
{
name = middle_center_can;
pos = (580,254);
},
{
name = top_center_can;
pos = (574,499);
},
{
name = top_left_can;
pos = (93,499);
},
{
name = top_right_can;
pos = (808,499);
}
);
background = {
anchors = (
{
name = middle_center_can;
pos = (580,254);
},
{
name = top_center_can;
pos = (574,499);
},
{
name = top_left_can;
pos = (93,499);
},
{
name = top_right_can;
pos = (808,499);
}
);
shapes = (
{
closed = 1;
nodes = (
(726,-12,o),
(821,86,o),
(821,235,cs),
(821,381,o),
(727,481,o),
(574,481,cs),
(80,481,l),
(80,456,l),
(497,456,l),
(498,466,l),
(392,436,o),
(339,344,o),
(339,235,cs),
(339,86,o),
(435,-12,o),
(580,-12,cs)
);
},
{
closed = 1;
nodes = (
(447,13,o),
(365,99,o),
(365,235,cs),
(365,371,o),
(447,456,o),
(577,456,cs),
(713,456,o),
(795,370,o),
(795,235,cs),
(795,100,o),
(713,13,o),
(580,13,cs)
);
}
);
};
layerId = m01;
shapes = (
{
closed = 1;
nodes = (
(726,-12,o),
(821,86,o),
(821,235,cs),
(821,381,o),
(727,481,o),
(574,481,cs),
(80,481,l),
(80,456,l),
(497,456,l),
(498,466,l),
(392,436,o),
(339,344,o),
(339,235,cs),
(339,86,o),
(435,-12,o),
(580,-12,cs)
);
},
{
closed = 1;
nodes = (
(447,13,o),
(365,99,o),
(365,235,cs),
(365,371,o),
(447,456,o),
(577,456,cs),
(713,456,o),
(795,370,o),
(795,235,cs),
(795,100,o),
(713,13,o),
(580,13,cs)
);
}
);
width = 911;
},
{
anchors = (
{
name = middle_center_can;
pos = (571,254);
},
{
name = top_center_can;
pos = (552,534);
},
{
name = top_left_can;
pos = (136,534);
},
{
name = top_right_can;
pos = (769,534);
}
);
background = {
anchors = (
{
name = middle_center_can;
pos = (571,254);
},
{
name = top_center_can;
pos = (552,534);
},
{
name = top_left_can;
pos = (136,534);
},
{
name = top_right_can;
pos = (769,534);
}
);
shapes = (
{
closed = 1;
nodes = (
(742,-15,o),
(863,95,o),
(863,250,cs),
(863,417,o),
(746,514,o),
(552,514,cs),
(40,514,l),
(40,345,l),
(361,345,l),
(324,384,l),
(295,345,o),
(281,289,o),
(281,239,cs),
(281,87,o),
(394,-15,o),
(571,-15,cs)
);
},
{
closed = 1;
nodes = (
(503,147,o),
(470,197,o),
(470,249,cs),
(470,301,o),
(503,352,o),
(571,352,cs),
(639,352,o),
(674,301,o),
(674,249,cs),
(674,197,o),
(639,147,o),
(571,147,cs)
);
}
);
};
layerId = "A1461942-0433-4891-A171-8512F51D8C86";
shapes = (
{
closed = 1;
nodes = (
(742,-15,o),
(863,95,o),
(863,250,cs),
(863,417,o),
(746,514,o),
(552,514,cs),
(40,514,l),
(40,345,l),
(361,345,l),
(324,384,l),
(295,345,o),
(281,289,o),
(281,239,cs),
(281,87,o),
(394,-15,o),
(571,-15,cs)
);
},
{
closed = 1;
nodes = (
(503,147,o),
(470,197,o),
(470,249,cs),
(470,301,o),
(503,352,o),
(571,352,cs),
(639,352,o),
(674,301,o),
(674,249,cs),
(674,197,o),
(639,147,o),
(571,147,cs)
);
}
);
width = 903;
},
{
anchors = (
{
name = middle_center_can;
pos = (411,254);
},
{
name = top_center_can;
pos = (407,499);
},
{
name = top_left_can;
pos = (73,499);
},
{
name = top_right_can;
pos = (570,499);
}
);
background = {
anchors = (
{
name = middle_center_can;
pos = (411,254);
},
{
name = top_center_can;
pos = (407,499);
},
{
name = top_left_can;
pos = (73,499);
},
{
name = top_right_can;
pos = (570,499);
}
);
shapes = (
{
closed = 1;
nodes = (
(519,-12,o),
(582,75,o),
(582,235,cs),
(582,395,o),
(519,481,o),
(410,481,cs),
(60,481,l),
(60,457,l),
(349,457,l),
(349,466,l),
(277,435,o),
(242,342,o),
(242,235,cs),
(242,75,o),
(305,-12,o),
(412,-12,cs)
);
},
{
closed = 1;
nodes = (
(315,12,o),
(267,88,o),
(267,235,cs),
(267,371,o),
(316,457,o),
(412,457,cs),
(507,457,o),
(557,382,o),
(557,235,cs),
(557,88,o),
(509,12,o),
(412,12,cs)
);
}
);
};
layerId = "341CD669-D84F-4333-8BC8-F9777E6D3814";
shapes = (
{
closed = 1;
nodes = (
(519,-12,o),
(582,75,o),
(582,235,cs),
(582,395,o),
(519,481,o),
(410,481,cs),
(60,481,l),
(60,457,l),
(349,457,l),
(349,466,l),
(277,435,o),
(242,342,o),
(242,235,cs),
(242,75,o),
(305,-12,o),
(412,-12,cs)
);
},
{
closed = 1;
nodes = (
(315,12,o),
(267,88,o),
(267,235,cs),
(267,371,o),
(316,457,o),
(412,457,cs),
(507,457,o),
(557,382,o),
(557,235,cs),
(557,88,o),
(509,12,o),
(412,12,cs)
);
}
);
width = 647;
},
{
anchors = (
{
name = middle_center_can;
pos = (422,254);
},
{
name = top_center_can;
pos = (402,534);
},
{
name = top_left_can;
pos = (120,534);
},
{
name = top_right_can;
pos = (557,534);
}
);
background = {
anchors = (
{
name = middle_center_can;
pos = (422,254);
},
{
name = top_center_can;
pos = (402,534);
},
{
name = top_left_can;
pos = (120,534);
},
{
name = top_right_can;
pos = (557,534);
}
);
shapes = (
{
closed = 1;
nodes = (
(553,-15,o),
(646,71,o),
(646,250,cs),
(646,429,o),
(556,514,o),
(394,514,cs),
(29,514,l),
(29,349,l),
(235,349,l),
(225,391,l),
(209,352,o),
(198,294,o),
(198,240,cs),
(198,71,o),
(285,-15,o),
(422,-15,cs)
);
},
{
closed = 1;
nodes = (
(396,139,o),
(377,166,o),
(377,251,cs),
(377,336,o),
(396,363,o),
(422,363,cs),
(448,363,o),
(467,337,o),
(467,251,cs),
(467,165,o),
(448,139,o),
(422,139,cs)
);
}
);
};
layerId = "4DD67900-F9B0-4F36-BC45-F4B21129580C";
shapes = (
{
closed = 1;
nodes = (
(553,-15,o),
(646,71,o),
(646,250,cs),
(646,429,o),
(556,514,o),
(394,514,cs),
(29,514,l),
(29,349,l),
(235,349,l),
(225,391,l),
(209,352,o),
(198,294,o),
(198,240,cs),
(198,71,o),
(285,-15,o),
(422,-15,cs)
);
},
{
closed = 1;
nodes = (
(396,139,o),
(377,166,o),
(377,251,cs),
(377,336,o),
(396,363,o),
(422,363,cs),
(448,363,o),
(467,337,o),
(467,251,cs),
(467,165,o),
(448,139,o),
(422,139,cs)
);
}
);
width = 675;
}
);
metricRight = "=|ke-canadian";
note = uni14C0;
unicode = 5312;
},
{
color = 2;
glyphname = "ni-canadian";
kernRight = niright;
lastChange = "2022-10-04 09:42:51 +0000";
layers = (
{
anchors = (
{
name = middle_center_can;
pos = (331,254);
},
{
name = top_center_can;
pos = (336,499);
},
{
name = top_left_can;
pos = (103,499);
},
{
name = top_right_can;
pos = (818,499);
}
);
background = {
anchors = (
{
name = middle_center_can;
pos = (331,254);
},
{
name = top_center_can;
pos = (336,499);
},
{
name = top_left_can;
pos = (103,499);
},
{
name = top_right_can;
pos = (818,499);
}
);
shapes = (
{
closed = 1;
nodes = (
(476,-12,o),
(572,86,o),
(572,235,cs),
(572,344,o),
(517,436,o),
(411,466,c),
(414,456,l),
(831,456,l),
(831,481,l),
(336,481,ls),
(182,481,o),
(90,381,o),
(90,235,cs),
(90,86,o),
(185,-12,o),
(331,-12,cs)
);
},
{
closed = 1;
nodes = (
(198,13,o),
(116,100,o),
(116,235,cs),
(116,370,o),
(198,456,o),
(334,456,cs),
(464,456,o),
(546,371,o),
(546,235,cs),
(546,99,o),
(464,13,o),
(331,13,cs)
);
}
);
};
layerId = m01;
shapes = (
{
closed = 1;
nodes = (
(476,-12,o),
(572,86,o),
(572,235,cs),
(572,344,o),
(517,436,o),
(411,466,c),
(414,456,l),
(831,456,l),
(831,481,l),
(336,481,ls),
(182,481,o),
(90,381,o),
(90,235,cs),
(90,86,o),
(185,-12,o),
(331,-12,cs)
);
},
{
closed = 1;
nodes = (
(198,13,o),
(116,100,o),
(116,235,cs),
(116,370,o),
(198,456,o),
(334,456,cs),
(464,456,o),
(546,371,o),
(546,235,cs),
(546,99,o),
(464,13,o),
(331,13,cs)
);
}
);
width = 911;
},
{
anchors = (
{
name = middle_center_can;
pos = (332,254);
},
{
name = top_center_can;
pos = (356,534);
},
{
name = top_left_can;
pos = (135,534);
},
{
name = top_right_can;
pos = (767,534);
}
);
background = {
anchors = (
{
name = middle_center_can;
pos = (332,254);
},
{
name = top_center_can;
pos = (356,534);
},
{
name = top_left_can;
pos = (135,534);
},
{
name = top_right_can;
pos = (767,534);
}
);
shapes = (
{
closed = 1;
nodes = (
(509,-15,o),
(622,87,o),
(622,243,cs),
(622,293,o),
(608,349,o),
(579,388,c),
(542,345,l),
(863,345,l),
(863,514,l),
(356,514,ls),
(154,514,o),
(40,399,o),
(40,245,cs),
(40,94,o),
(158,-15,o),
(332,-15,cs)
);
},
{
closed = 1;
nodes = (
(264,147,o),
(229,197,o),
(229,249,cs),
(229,301,o),
(264,352,o),
(332,352,cs),
(400,352,o),
(433,301,o),
(433,249,cs),
(433,197,o),
(400,147,o),
(332,147,cs)
);
}
);
};
layerId = "A1461942-0433-4891-A171-8512F51D8C86";
shapes = (
{
closed = 1;
nodes = (
(509,-15,o),
(622,87,o),
(622,243,cs),
(622,293,o),
(608,349,o),
(579,388,c),
(542,345,l),
(863,345,l),
(863,514,l),
(356,514,ls),
(154,514,o),
(40,399,o),
(40,245,cs),
(40,94,o),
(158,-15,o),
(332,-15,cs)
);
},
{
closed = 1;
nodes = (
(264,147,o),
(229,197,o),
(229,249,cs),
(229,301,o),
(264,352,o),
(332,352,cs),
(400,352,o),
(433,301,o),
(433,249,cs),
(433,197,o),
(400,147,o),
(332,147,cs)
);
}
);
width = 903;
},
{
anchors = (
{
name = middle_center_can;
pos = (236,254);
},
{
name = top_center_can;
pos = (240,499);
},
{
name = top_left_can;
pos = (78,499);
},
{
name = top_right_can;
pos = (575,499);
}
);
background = {
anchors = (
{
name = middle_center_can;
pos = (236,254);
},
{
name = top_center_can;
pos = (240,499);
},
{
name = top_left_can;
pos = (78,499);
},
{
name = top_right_can;
pos = (575,499);
}
);
shapes = (
{
closed = 1;
nodes = (
(342,-12,o),
(405,75,o),
(405,235,cs),
(405,342,o),
(370,435,o),
(298,466,c),
(298,457,l),
(587,457,l),
(587,481,l),
(237,481,ls),
(128,481,o),
(65,395,o),
(65,235,cs),
(65,75,o),
(128,-12,o),
(235,-12,cs)
);
},
{
closed = 1;
nodes = (
(138,12,o),
(90,88,o),
(90,235,cs),
(90,382,o),
(140,457,o),
(235,457,cs),
(331,457,o),
(380,371,o),
(380,235,cs),
(380,88,o),
(332,12,o),
(235,12,cs)
);
}
);
};
layerId = "341CD669-D84F-4333-8BC8-F9777E6D3814";
shapes = (
{
closed = 1;
nodes = (
(342,-12,o),
(405,75,o),
(405,235,cs),
(405,342,o),
(370,435,o),
(298,466,c),
(298,457,l),
(587,457,l),
(587,481,l),
(237,481,ls),
(128,481,o),
(65,395,o),
(65,235,cs),
(65,75,o),
(128,-12,o),
(235,-12,cs)
);
},
{
closed = 1;
nodes = (
(138,12,o),
(90,88,o),
(90,235,cs),
(90,382,o),
(140,457,o),
(235,457,cs),
(331,457,o),
(380,371,o),
(380,235,cs),
(380,88,o),
(332,12,o),
(235,12,cs)
);
}
);
width = 647;
},
{
anchors = (
{
name = middle_center_can;
pos = (256,254);
},
{
name = top_center_can;
pos = (278,534);
},
{
name = top_left_can;
pos = (119,534);
},
{
name = top_right_can;
pos = (555,534);
}
);
background = {
anchors = (
{
name = middle_center_can;
pos = (256,254);
},
{
name = top_center_can;
pos = (278,534);
},
{
name = top_left_can;
pos = (119,534);
},
{
name = top_right_can;
pos = (555,534);
}
);
shapes = (
{
closed = 1;
nodes = (
(390,-15,o),
(477,71,o),
(477,240,cs),
(477,294,o),
(466,352,o),
(450,391,c),
(440,349,l),
(646,349,l),
(646,514,l),
(281,514,ls),
(119,514,o),
(29,424,o),
(29,246,cs),
(29,69,o),
(122,-15,o),
(253,-15,cs)
);
},
{
closed = 1;
nodes = (
(227,139,o),
(208,165,o),
(208,251,cs),
(208,337,o),
(227,363,o),
(253,363,cs),
(279,363,o),
(298,336,o),
(298,251,cs),
(298,166,o),
(279,139,o),
(253,139,cs)
);
}
);
};
layerId = "4DD67900-F9B0-4F36-BC45-F4B21129580C";
shapes = (
{
closed = 1;
nodes = (
(390,-15,o),
(477,71,o),
(477,240,cs),
(477,294,o),
(466,352,o),
(450,391,c),
(440,349,l),
(646,349,l),
(646,514,l),
(281,514,ls),
(119,514,o),
(29,424,o),
(29,246,cs),
(29,69,o),
(122,-15,o),
(253,-15,cs)
);
},
{
closed = 1;
nodes = (
(227,139,o),
(208,165,o),
(208,251,cs),
(208,337,o),
(227,363,o),
(253,363,cs),
(279,363,o),
(298,336,o),
(298,251,cs),
(298,166,o),
(279,139,o),
(253,139,cs)
);
}
);
width = 675;
}
);
metricLeft = "ke-canadian";
metricRight = "=|ne-canadian";
note = uni14C2;
unicode = 5314;
},
